<svg width="25" height="24" viewBox="0 0 25 24" fill="none" xmlns="http://www.w3.org/2000/svg">
<path d="M18.3524 12.919C18.3262 10.2808 20.5038 9.01543 20.6012 8.9515C19.3773 7.16208 17.4706 6.91654 16.792 6.8886C15.1707 6.72393 13.6268 7.84364 12.8042 7.84364C11.9834 7.84364 10.7126 6.91273 9.36806 6.93644C7.59937 6.96269 5.96912 7.96514 5.05895 9.5484C3.22211 12.7348 4.58905 17.4571 6.3789 20.0432C7.25393 21.3073 8.29745 22.7297 9.66651 22.6776C10.986 22.6256 11.4839 21.8242 13.079 21.8242C14.6741 21.8242 15.122 22.6776 16.5177 22.651C17.9367 22.6251 18.8363 21.3628 19.7041 20.0936C20.7087 18.6251 21.1223 17.2031 21.1469 17.1311C21.116 17.1167 18.3808 16.069 18.3524 12.919Z" fill="black"/>
<path d="M15.7301 5.17684C16.4561 4.29546 16.948 3.07076 16.8143 1.85156C15.7665 1.8939 14.4982 2.54794 13.7459 3.42848C13.072 4.20995 12.4827 5.45412 12.6406 6.65131C13.8094 6.7419 15.0015 6.05653 15.7301 5.17684Z" fill="black"/>
</svg>
