<svg width="25" height="24" viewBox="0 0 25 24" fill="none" xmlns="http://www.w3.org/2000/svg">
<g clip-path="url(#clip0_915_6036)">
<path d="M24.0998 12.2765C24.0998 11.4608 24.0336 10.6406 23.8925 9.83813H12.5737V14.4591H19.0555C18.7865 15.9495 17.9223 17.2679 16.6568 18.1056V21.104H20.5238C22.7946 19.014 24.0998 15.9274 24.0998 12.2765Z" fill="#4285F4"/>
<path d="M12.5736 24.0008C15.81 24.0008 18.5394 22.9382 20.528 21.1039L16.661 18.1055C15.5852 18.8375 14.1962 19.252 12.578 19.252C9.44738 19.252 6.79296 17.1399 5.84054 14.3003H1.8501V17.3912C3.88721 21.4434 8.03639 24.0008 12.5736 24.0008Z" fill="#34A853"/>
<path d="M5.83627 14.3002C5.33361 12.8099 5.33361 11.196 5.83627 9.70569V6.61475H1.85023C0.14823 10.0055 0.14823 14.0004 1.85023 17.3912L5.83627 14.3002Z" fill="#FBBC04"/>
<path d="M12.5736 4.74966C14.2844 4.7232 15.9379 5.36697 17.1769 6.54867L20.603 3.12262C18.4336 1.0855 15.5543 -0.034466 12.5736 0.000808666C8.03639 0.000808666 3.88721 2.55822 1.8501 6.61481L5.83613 9.70575C6.78414 6.86173 9.44297 4.74966 12.5736 4.74966Z" fill="#EA4335"/>
</g>
<defs>
<clipPath id="clip0_915_6036">
<rect width="24" height="24" fill="white" transform="translate(0.333496)"/>
</clipPath>
</defs>
</svg>
