<svg width="25" height="24" viewBox="0 0 25 24" fill="none" xmlns="http://www.w3.org/2000/svg">
<g clip-path="url(#clip0_915_6039)">
<path fill-rule="evenodd" clip-rule="evenodd" d="M24.667 3C24.667 1.34423 23.3228 0 21.667 0H3.66699C2.01123 0 0.666992 1.34423 0.666992 3V21C0.666992 22.6558 2.01123 24 3.66699 24H21.667C23.3228 24 24.667 22.6558 24.667 21V3Z" fill="#2867B2"/>
<path d="M7.54881 8.37512H3.52881V20.4671H7.54881V8.37512Z" fill="white"/>
<path d="M5.56599 2.54443C4.19063 2.54443 3.29199 3.44865 3.29199 4.63379C3.29199 5.79404 4.1633 6.7232 5.51279 6.7232H5.53876C6.94046 6.7232 7.81295 5.79404 7.81295 4.63379C7.78693 3.44865 6.94055 2.54443 5.56599 2.54443Z" fill="white"/>
<path d="M17.4142 8.0907C15.2819 8.0907 14.3268 9.26337 13.7919 10.0871V8.37504H9.77295C9.82625 9.50928 9.77295 20.467 9.77295 20.467H13.7919V13.714C13.7919 13.3525 13.8178 12.9912 13.9244 12.7328C14.2144 12.0109 14.8762 11.2632 15.9866 11.2632C17.4402 11.2632 18.0226 12.3724 18.0226 13.9973V20.467H22.0417V13.5327C22.0417 9.81851 20.0587 8.0907 17.4142 8.0907Z" fill="white"/>
</g>
<defs>
<clipPath id="clip0_915_6039">
<rect width="24" height="24" fill="white" transform="translate(0.666992)"/>
</clipPath>
</defs>
</svg>
