<svg width="24" height="24" viewBox="0 0 24 24" fill="none" xmlns="http://www.w3.org/2000/svg">
<path d="M22.4853 5.69238H12.6989C12.3131 5.69238 12 6.00668 12 6.39354C12 6.78031 12.3131 7.09432 12.6989 7.09432H20.4484L16.1536 10.4434L13.0735 8.47929L12.3243 9.66265L15.8192 11.8915C15.9326 11.9646 16.064 12.0008 16.194 12.0008C16.345 12.0008 16.4975 11.9518 16.6234 11.8536L21.7864 7.8259V16.9073H12.6989C12.3131 16.9073 12 17.2213 12 17.6079C12 17.9949 12.3131 18.3091 12.6989 18.3091H22.4853C22.8713 18.3091 23.1844 17.9949 23.1844 17.6079V6.39349C23.1845 6.00668 22.8713 5.69238 22.4853 5.69238Z" fill="#1B80E4"/>
<path d="M13.145 1.64798C12.9854 1.51481 12.7716 1.45725 12.5703 1.49948L1.38585 3.60206C1.05454 3.66403 0.81543 3.95273 0.81543 4.29051V19.7108C0.81543 20.0472 1.05454 20.3372 1.38585 20.3993L12.5703 22.5019C12.6122 22.5102 12.6555 22.5146 12.6989 22.5146C12.8611 22.5146 13.019 22.4584 13.145 22.3531C13.3059 22.2202 13.3978 22.0211 13.3978 21.8135V2.18789C13.3978 1.97892 13.3058 1.7812 13.145 1.64798Z" fill="#2299F8"/>
<path d="M7.10647 16.9073C5.17991 16.9073 3.61133 15.0204 3.61133 12.7017C3.61133 10.3831 5.17995 8.49609 7.10647 8.49609C9.03303 8.49609 10.6017 10.3831 10.6017 12.7017C10.6017 15.0204 9.03303 16.9073 7.10647 16.9073ZM7.10647 9.89808C5.9503 9.89808 5.00947 11.1555 5.00947 12.7017C5.00947 14.248 5.9503 15.5054 7.10647 15.5054C8.26269 15.5054 9.2038 14.248 9.2038 12.7017C9.2038 11.1555 8.26269 9.89808 7.10647 9.89808Z" fill="#FCFCFC"/>
</svg>
