<svg width="1440" height="210" viewBox="0 0 1440 210" fill="none" xmlns="http://www.w3.org/2000/svg">
<path d="M-2 97.677C88 60.3437 330.6 1.577 581 65.177C894 144.677 1121.5 238.677 1447 115.177" stroke="url(#paint0_linear_786_9649)" stroke-width="3"/>
<rect x="0.5" y="-0.5" width="143" height="143" rx="71.5" transform="matrix(1 0 0 -1 648 173)" fill="#ABADFA"/>
<rect x="0.5" y="-0.5" width="143" height="143" rx="71.5" transform="matrix(1 0 0 -1 648 173)" stroke="white"/>
<path d="M687 133.52H751.57V68.9503H687V133.52Z" fill="black"/>
<rect width="72" height="72" rx="36" transform="matrix(1 0 0 -1 1246.4 194.57)" fill="#9597F5"/>
<path d="M1267 173.37H1300.85V139.519H1267V173.37Z" fill="black"/>
<circle cx="575" cy="11" r="1" fill="white"/>
<circle cx="593" cy="1" r="1" fill="white"/>
<circle cx="625" cy="15" r="1" fill="white"/>
<circle cx="620.5" cy="2.5" r="0.5" fill="white"/>
<circle cx="574.5" cy="33.5" r="0.5" fill="white"/>
<circle cx="588" cy="76" r="1" fill="white"/>
<circle cx="552.5" cy="107.5" r="2.5" fill="white"/>
<circle cx="625" cy="109" r="2" fill="white"/>
<circle cx="669" cy="16" r="2" fill="white"/>
<circle cx="638" cy="7" r="2" fill="white"/>
<circle cx="639" cy="47" r="1" fill="white"/>
<circle cx="584" cy="108" r="1" fill="white"/>
<circle cx="504" cy="51" r="1" fill="white"/>
<circle cx="596" cy="122" r="1" fill="white"/>
<circle cx="604.5" cy="114.5" r="0.5" fill="white"/>
<circle cx="693" cy="24" r="1" fill="white"/>
<circle cx="688" cy="23" r="2" fill="white"/>
<circle cx="868" cy="199" r="1" transform="rotate(180 868 199)" fill="white"/>
<circle cx="850" cy="209" r="1" transform="rotate(180 850 209)" fill="white"/>
<circle cx="818" cy="195" r="1" transform="rotate(180 818 195)" fill="white"/>
<circle cx="822.5" cy="207.5" r="0.5" transform="rotate(180 822.5 207.5)" fill="white"/>
<circle cx="868.5" cy="176.5" r="0.5" transform="rotate(180 868.5 176.5)" fill="white"/>
<circle cx="855" cy="134" r="1" transform="rotate(180 855 134)" fill="white"/>
<circle cx="890.5" cy="102.5" r="2.5" transform="rotate(180 890.5 102.5)" fill="white"/>
<circle cx="818" cy="101" r="2" transform="rotate(180 818 101)" fill="white"/>
<circle cx="774" cy="194" r="2" transform="rotate(180 774 194)" fill="white"/>
<circle cx="805" cy="203" r="2" transform="rotate(180 805 203)" fill="white"/>
<circle cx="804" cy="163" r="1" transform="rotate(180 804 163)" fill="white"/>
<circle cx="859" cy="102" r="1" transform="rotate(180 859 102)" fill="white"/>
<circle cx="939" cy="159" r="1" transform="rotate(180 939 159)" fill="white"/>
<circle cx="847" cy="88" r="1" transform="rotate(180 847 88)" fill="white"/>
<circle cx="838.5" cy="95.5" r="0.5" transform="rotate(180 838.5 95.5)" fill="white"/>
<circle cx="750" cy="186" r="1" transform="rotate(180 750 186)" fill="white"/>
<circle cx="755" cy="187" r="2" transform="rotate(180 755 187)" fill="white"/>
<defs>
<linearGradient id="paint0_linear_786_9649" x1="1447" y1="105.934" x2="-66.5" y2="106" gradientUnits="userSpaceOnUse">
<stop stop-color="white" stop-opacity="0"/>
<stop offset="0.472753" stop-color="white"/>
<stop offset="0.961281" stop-color="white" stop-opacity="0"/>
</linearGradient>
</defs>
</svg>
