<svg width="1440" height="173" viewBox="0 0 1440 173" fill="none" xmlns="http://www.w3.org/2000/svg">
<path d="M1447 75.4846C1357 38.1513 1114.4 -20.6154 864 42.9846C551 122.485 323.5 216.485 -2 92.9846" stroke="url(#paint0_linear_853_2688)" stroke-width="3"/>
<rect x="796.5" y="151.308" width="143" height="143" rx="71.5" transform="rotate(180 796.5 151.308)" fill="#ABADFA"/>
<rect x="796.5" y="151.308" width="143" height="143" rx="71.5" transform="rotate(180 796.5 151.308)" stroke="white"/>
<path d="M758 104.327H693.43V39.7579H758V104.327Z" fill="black"/>
<rect x="198.6" y="172.378" width="72" height="72" rx="36" transform="rotate(180 198.6 172.378)" fill="#9597F5"/>
<path d="M178 151.177H144.15V117.327H178V151.177Z" fill="black"/>
<rect x="1315" y="72" width="72" height="72" rx="36" transform="rotate(180 1315 72)" fill="#9597F5"/>
<path d="M1294.4 50.7994H1260.55V16.9493H1294.4V50.7994Z" fill="black"/>
<defs>
<linearGradient id="paint0_linear_853_2688" x1="-1.99993" y1="83.7418" x2="1511.5" y2="83.8076" gradientUnits="userSpaceOnUse">
<stop stop-color="white" stop-opacity="0"/>
<stop offset="0.472753" stop-color="white"/>
<stop offset="0.961281" stop-color="white" stop-opacity="0"/>
</linearGradient>
</defs>
</svg>
