<svg width="1440" height="173" viewBox="0 0 1440 173" fill="none" xmlns="http://www.w3.org/2000/svg">
<path d="M-2 75.4846C88 38.1513 330.6 -20.6154 581 42.9846C894 122.485 1121.5 216.485 1447 92.9846" stroke="url(#paint0_linear_889_3432)" stroke-width="3"/>
<rect x="791.5" y="151.308" width="143" height="143" rx="71.5" transform="rotate(180 791.5 151.308)" fill="#FBFBFB"/>
<rect x="791.5" y="151.308" width="143" height="143" rx="71.5" transform="rotate(180 791.5 151.308)" stroke="#E6E6E6"/>
<path d="M753 104.327H688.43V39.7579H753V104.327Z" fill="#0E131D"/>
<rect x="1318.4" y="172.378" width="72" height="72" rx="36" transform="rotate(180 1318.4 172.378)" fill="#F6F6F6"/>
<path d="M1299.8 153.177H1265.95V119.327H1299.8V153.177Z" fill="#0E131D"/>
<rect x="202" y="72" width="72" height="72" rx="36" transform="rotate(180 202 72)" fill="#F6F6F6"/>
<path d="M181.4 50.7994H147.55V16.9493H181.4V50.7994Z" fill="#0E131D"/>
<defs>
<linearGradient id="paint0_linear_889_3432" x1="1447" y1="83.7418" x2="-66.5" y2="83.8076" gradientUnits="userSpaceOnUse">
<stop stop-color="white" stop-opacity="0"/>
<stop offset="0.472753" stop-color="#E1E1E1"/>
<stop offset="0.961281" stop-color="white" stop-opacity="0"/>
</linearGradient>
</defs>
</svg>
