<svg width="1446" height="174" viewBox="0 0 1446 174" fill="none" xmlns="http://www.w3.org/2000/svg">
<path d="M-2 97.7007C88 135.034 330.6 193.801 581 130.201C894 50.7007 1121.5 -43.2993 1447 80.2007" stroke="url(#paint0_linear_1024_11732)" stroke-width="3"/>
<rect x="793.5" y="164.878" width="143" height="143" rx="71.5" transform="rotate(-180 793.5 164.878)" fill="#FBFBFB"/>
<rect x="793.5" y="164.878" width="143" height="143" rx="71.5" transform="rotate(-180 793.5 164.878)" stroke="#E6E6E6"/>
<path d="M755 127.898H690.43V63.328H755V127.898Z" fill="#0E131D"/>
<rect x="1323.4" y="72.8076" width="72" height="72" rx="36" transform="rotate(-180 1323.4 72.8076)" fill="#F6F6F6"/>
<path d="M1304.8 53.6071H1270.95V19.7569H1304.8V53.6071Z" fill="#0E131D"/>
<rect x="202" y="173.185" width="72" height="72" rx="36" transform="rotate(-180 202 173.185)" fill="#F6F6F6"/>
<path d="M181.4 151.985H147.55V118.135H181.4V151.985Z" fill="#0E131D"/>
<defs>
<linearGradient id="paint0_linear_1024_11732" x1="1447" y1="89.4435" x2="-66.5" y2="89.3777" gradientUnits="userSpaceOnUse">
<stop stop-color="white" stop-opacity="0"/>
<stop offset="0.472753" stop-color="#E1E1E1"/>
<stop offset="0.961281" stop-color="white" stop-opacity="0"/>
</linearGradient>
</defs>
</svg>
