<svg width="195" height="183" viewBox="0 0 195 183" fill="none" xmlns="http://www.w3.org/2000/svg">
<path d="M82.3766 143.154C80.1234 131.523 88.4786 104.958 92.9376 93.1288C94.4241 93.8322 106.863 91.4092 110.853 85.6251C114.045 80.9977 119.465 79.1803 122.118 78.3558C125.638 77.2614 131.506 77.4177 132.601 80.0753L133.774 82.8112C137.608 93.8322 134.27 110.586 131.897 118.063L123.135 119.627C116.501 108.871 119.901 95.7604 122.431 90.5494C119.74 94.1763 112.183 98.001 108.741 99.46C108.584 109.074 93.8765 142.216 90.6691 144.326C88.1031 146.015 84.0716 144.248 82.3766 143.154Z" fill="#0E131D"/>
<path d="M87.9957 145.07L86.9004 147.061M83.4574 143.808L81.3674 149.327L81.1882 149.8C80.9893 150.278 80.8515 151.08 81.1882 151.762C81.4256 152.244 81.899 152.666 82.7533 152.875C84.8189 153.379 92.5864 153.926 96.2118 154.136C96.8378 154.215 98.0273 153.916 97.7767 152.087C97.5263 150.257 96.2118 148.584 94.7252 147.908C93.5191 147.36 90.4094 146.51 86.9004 147.061L83.4574 143.808ZM85.8048 147.277C86.1732 147.189 86.5389 147.117 86.9004 147.061L85.8048 147.277Z" stroke="#0E131D" stroke-width="1.17999" stroke-linecap="round"/>
<path d="M124.384 119.202C124.306 121.522 124.517 126.088 125.09 126.786C125.796 127.646 126.659 127.724 131.914 126.082C136.118 124.769 137.796 124.753 138.816 124.597C139.522 124.489 140.384 124.394 140.384 122.642C140.384 120.453 139.522 118.968 136.855 118.655C134.722 118.405 131.679 119.697 130.424 120.375V118.264" stroke="#0E131D" stroke-width="1.17999" stroke-linecap="round"/>
<path d="M114.345 40.5103C106.289 41.3244 90.457 44.756 91.5834 51.9688C91.7561 52.5813 92.2522 53.5584 93.1771 54.4776C94.0679 55.3629 95.3564 56.1945 97.137 56.5945" stroke="#0E131D" stroke-width="1.17999" stroke-linecap="round"/>
<path d="M93.177 54.4773C95.6963 58.3973 103.082 66.9116 112.468 69.6085" stroke="#0E131D" stroke-width="1.17999" stroke-linecap="round"/>
<path d="M112.408 69.6087C112.981 68.8379 114.489 67.4448 116.26 67.3787" stroke="#0E131D" stroke-width="1.17999" stroke-linecap="round"/>
<path d="M116.26 67.3786C116.207 65.1773 114.35 59.5005 107.339 54.4038" stroke="#0E131D" stroke-width="1.17999" stroke-linecap="round"/>
<path d="M105.312 56.2285C106.04 55.0505 108.275 52.5496 111.394 51.9712" stroke="#0E131D" stroke-width="1.17999" stroke-linecap="round"/>
<path d="M122.747 53.9985C123.085 54.3979 123.76 55.4841 123.76 56.634" stroke="#0E131D" stroke-width="1.17999" stroke-linecap="round"/>
<path d="M122.667 70.8274C124.265 70.7494 127.601 70.515 128.167 70.2024C128.874 69.8119 129.031 69.8119 129.031 69.0306C129.031 68.2495 122.667 69.5776 122.667 67.0777C123.244 66.5048 124.176 65.2185 123.296 64.6559C122.416 64.0935 120.572 65.7237 119.76 66.609C118.922 67.4943 117.042 68.8901 116.224 67.3901" stroke="#0E131D" stroke-width="1.17999" stroke-linecap="round"/>
<path d="M112.61 69.5774C113.317 71.6345 115.863 75.3268 120.389 73.6395C124.915 71.9522 125.103 71.0616 124.631 70.8272" stroke="#0E131D" stroke-width="1.17999" stroke-linecap="round"/>
<path d="M151.587 70.4529C152.687 70.1523 155.091 68.754 155.908 65.5651C156.725 62.3763 155.62 62.3607 154.965 62.7514" stroke="#0E131D" stroke-width="1.17999" stroke-linecap="round"/>
<path d="M147.502 68.1445C147.843 66.3729 149.042 62.9548 151.116 63.455" stroke="#0E131D" stroke-width="1.17999" stroke-linecap="round"/>
<path d="M148.367 65.2525C146.921 64.0645 146.036 66.7896 145.774 68.3007C144.14 68.8009 143.522 71.1665 143.417 72.2868C147.199 72.6747 149.886 71.6592 151.587 70.4529C152.629 69.7144 153.302 68.9043 153.63 68.3007C154.442 66.1384 155.625 61.626 153.865 60.8757C152.106 60.1254 151.613 61.8135 151.587 62.7514C151.776 64.8774 150.671 67.2325 150.095 68.1444" stroke="#0E131D" stroke-width="1.17999" stroke-linecap="round"/>
<path d="M125.585 70.8018C128.989 73.9802 137.322 78.7269 143.418 72.2868" stroke="#0E131D" stroke-width="1.17999" stroke-linecap="round"/>
<path d="M124.977 71.2307C124.977 72.7064 124.612 76.0697 123.152 77.7181" stroke="#0E131D" stroke-width="1.17999" stroke-linecap="round"/>
<path d="M93.1482 74.677C89.9355 79.0134 85.4377 88.8145 93.1482 93.3283" stroke="#0E131D" stroke-width="1.17999" stroke-linecap="round"/>
<path d="M123.176 154.96H68.4148V181.719" stroke="#0E131D" stroke-width="1.17999" stroke-linecap="round"/>
<path d="M161.251 128.279H116.439V160.906" stroke="#0E131D" stroke-width="1.17999" stroke-linecap="round"/>
<path d="M190.865 90.8789H154.513V134.46" stroke="#0E131D" stroke-width="1.17999" stroke-linecap="round"/>
<path d="M184.44 62.4119V96.9822" stroke="#0E131D" stroke-width="1.17999" stroke-linecap="round"/>
<path d="M189.243 56.0258L191.067 52.9849" stroke="#0E131D" stroke-width="1.17999" stroke-linecap="round"/>
<path d="M190.135 57.6155L193.5 57.459" stroke="#0E131D" stroke-width="1.17999" stroke-linecap="round"/>
<path d="M189.445 59.4722L191.473 62.1077" stroke="#0E131D" stroke-width="1.17999" stroke-linecap="round"/>
<path d="M184.44 50.3496V53.2892" stroke="#0E131D" stroke-width="1.17999" stroke-linecap="round"/>
<path d="M113.429 71.5419L68.5503 76.7043C63.3587 72.5452 64.6151 66.3362 65.8921 63.7516L97.0885 60.0122" stroke="#0E131D" stroke-width="1.17999" stroke-linecap="round"/>
<path d="M128.832 70.2956L144.235 68.8154" stroke="#0E131D" stroke-width="1.17999" stroke-linecap="round"/>
<path d="M155.494 67.1793L165.58 66.478L179.106 60.3471C177.48 58.6206 178.372 57.0827 179.049 56.5325L165.58 53.3901L112.257 57.8308" stroke="#0E131D" stroke-width="1.17999" stroke-linecap="round"/>
<path d="M61.0592 63.816L65.631 63.324C62.4603 70.4273 66.0949 75.2598 68.4149 77.1401L63.0791 77.9206C58.6192 72.489 59.7689 66.4105 61.0592 63.816Z" fill="#0E131D"/>
<path d="M179.593 60.6886C177.896 58.9176 178.849 56.8084 179.556 56.1272L185.999 57.7172L179.593 60.6886Z" fill="#0E131D"/>
<path d="M165.726 53.3901C164.043 55.5265 161.687 61.1126 165.726 66.3649" stroke="#0E131D" stroke-width="1.17999"/>
<path d="M126.967 41.878C128.308 41.0527 138.396 41.8482 140.357 29.1591C143.714 29.1984 145.54 26.4479 142.978 25.2709C140.247 23.8625 140.452 21.2769 140.947 19.7534C141.734 17.7554 141.781 15.6577 141.612 15.219" stroke="#0E131D" stroke-width="1.17999" stroke-linecap="round"/>
<path d="M137.397 24.577C137.778 24.5814 138.092 24.1218 138.099 23.5502C138.105 22.9787 137.802 22.5118 137.421 22.5073C137.04 22.5029 136.726 22.9626 136.719 23.5341C136.712 24.1056 137.016 24.5725 137.397 24.577Z" fill="#0E131D"/>
<path d="M135.524 20.3886C136.084 19.7897 137.533 18.9138 138.845 20.2005" stroke="#0E131D" stroke-width="1.17999" stroke-linecap="round"/>
<path d="M131.718 32.0488C132.748 33.6332 133.878 34.083 136.074 33.0607" stroke="#0E131D" stroke-width="1.17999" stroke-linecap="round"/>
<path d="M123.29 20.9438C123.051 21.4677 122.852 22.6569 123.96 23.2229" stroke="#0E131D" stroke-width="1.17999" stroke-linecap="round"/>
<path d="M111.472 15.5648C110.165 22.7121 114.253 28.0924 117.216 32.2285C120.381 30.5187 125.568 26.4527 123.579 26.0138C121.488 25.5526 119.282 19.8491 121.313 18.1044C123.695 16.0574 125.843 19.1546 126.252 21.5031L128.171 18.1847C127.628 15.8637 127.416 11.7924 130.905 14.0748C134.395 16.3572 139.514 15.7593 141.637 15.1751C145.823 12.1786 152.327 5.18916 144.853 1.2033C138.636 -2.11185 130.547 2.07939 125.608 5.84544C122.265 4.96277 113.253 5.81966 111.472 15.5648Z" fill="#0E131D"/>
<path d="M117.448 31.7495C118.96 33.5688 119.71 35.0796 119.617 38.2091" stroke="#0E131D" stroke-width="1.17999" stroke-linecap="round"/>
<path d="M115.767 42.399C115.238 40.5534 114.928 37.0331 117.921 37.7174C121.661 38.5725 129.285 42.2715 128.727 44.3219" stroke="#0E131D" stroke-width="1.17999" stroke-linecap="round"/>
<path d="M128.727 47.207C131.464 49.7412 132.072 51.363 132.478 54.404" stroke="#0E131D" stroke-width="1.17999" stroke-linecap="round"/>
</svg>
