<svg width="206" height="196" viewBox="0 0 206 196" fill="none" xmlns="http://www.w3.org/2000/svg">
<path d="M9.37374 89.839C10.5189 89.839 11.4472 88.9107 11.4472 87.7656C11.4472 86.6205 10.5189 85.6921 9.37374 85.6921C8.22861 85.6921 7.30029 86.6205 7.30029 87.7656C7.30029 88.9107 8.22861 89.839 9.37374 89.839Z" stroke="white" stroke-width="0.698224"/>
<path d="M13.4367 87.9766C17.6189 87.5461 24.1812 88.0553 24.9568 91.2903C25.7325 94.5254 22.7706 95.7085 21.1928 95.8957C15.1857 96.8505 7.22046 96.4012 7.22046 91.2903" stroke="white" stroke-width="0.698224" stroke-linecap="round"/>
<path d="M11.9253 92.8692C12.1895 92.8692 12.4036 92.6551 12.4036 92.3909C12.4036 92.1267 12.1895 91.9126 11.9253 91.9126C11.6612 91.9126 11.447 92.1267 11.447 92.3909C11.447 92.6551 11.6612 92.8692 11.9253 92.8692Z" stroke="white" stroke-width="0.698224"/>
<path d="M16.5506 92.3909C16.5506 92.6232 16.3341 92.8692 15.9926 92.8692C15.651 92.8692 15.4346 92.6232 15.4346 92.3909C15.4346 92.1586 15.651 91.9126 15.9926 91.9126C16.3341 91.9126 16.5506 92.1586 16.5506 92.3909Z" stroke="white" stroke-width="0.698224"/>
<path d="M20.0596 92.8692C20.3238 92.8692 20.5379 92.6551 20.5379 92.3909C20.5379 92.1267 20.3238 91.9126 20.0596 91.9126C19.7954 91.9126 19.5813 92.1267 19.5813 92.3909C19.5813 92.6551 19.7954 92.8692 20.0596 92.8692Z" stroke="white" stroke-width="0.698224"/>
<path d="M166.716 31.4636C167.773 31.4636 168.63 30.6067 168.63 29.5497C168.63 28.4926 167.773 27.6357 166.716 27.6357C165.659 27.6357 164.802 28.4926 164.802 29.5497C164.802 30.6067 165.659 31.4636 166.716 31.4636Z" stroke="white" stroke-width="0.698224"/>
<path d="M170.476 27.875C171.879 27.875 175.886 27.875 177.772 27.875C179.299 27.875 180.034 28.2128 180.034 30.5772C180.034 32.8744 180.015 35.8501 180.034 37.0511C180.047 37.8955 179.626 38.83 178.224 38.9651C176.821 39.1001 171.193 39.0214 168.553 38.9651C167.573 38.9651 165.839 38.4094 165.839 36.1503V33.617" stroke="white" stroke-width="0.698224" stroke-linecap="round"/>
<path d="M169.507 31.8621L173.016 34.2545" stroke="white" stroke-width="0.698224" stroke-linecap="round"/>
<path d="M173.016 34.2546L179.396 28.3533" stroke="white" stroke-width="0.698224" stroke-linecap="round"/>
<path d="M174.633 32.8195L176.376 34.5739L178.12 36.3284" stroke="white" stroke-width="0.698224" stroke-linecap="round"/>
<path d="M168.231 36.3284L170.803 32.8195" stroke="white" stroke-width="0.698224" stroke-linecap="round"/>
<path d="M180.742 151.082C180.212 151.613 179.755 152.071 179.441 152.386C178.62 153.208 177.758 152.728 177.43 152.386L172.194 147.342C171.421 146.623 170.768 145.913 167.846 143.126C167.547 142.827 167.074 142.062 167.57 141.399C168.067 140.735 170.86 137.253 172.194 135.594C172.599 135.008 173.478 134.311 174.6 135.354C175.567 136.252 178.879 139.361 181.709 141.726" stroke="white" stroke-width="0.698224" stroke-linecap="round"/>
<path d="M172.139 135.774C172.304 138.799 173.414 143.67 179.157 145.503" stroke="white" stroke-width="0.698224" stroke-linecap="round"/>
<path d="M186.702 145.737C186.439 145.068 184.418 144.289 183.654 145.737C182.867 147.231 183.469 148.489 183.981 148.736C184.635 149.051 185.595 149.215 186.609 147.402" stroke="white" stroke-width="0.698224" stroke-linecap="round"/>
<path d="M186.869 144.806C186.81 145.155 186.75 145.302 186.702 145.737C186.64 146.303 186.6 146.897 186.609 147.402C186.628 148.288 186.804 148.9 187.301 148.605C188.3 148.013 188.839 147.527 188.983 147.032C189.222 146.2 189.223 144.605 187.877 143.563C186.254 142.305 184.423 142.339 182.982 143.563C181.552 144.778 181.161 146.723 181.239 147.732C181.325 148.836 182.149 151.207 184.837 151.244C187.525 151.281 188.981 149.832 189.204 149.154" stroke="white" stroke-width="0.698224" stroke-linecap="round"/>
<path d="M45.1804 125.816C44.6071 123.603 42.703 119.52 39.6751 120.9C36.6471 122.28 38.4134 124.753 39.6751 125.816C40.5241 126.391 42.3494 127.007 42.8579 124.868C43.3663 122.729 41.2235 121.849 40.6213 122.798C40.3037 123.171 39.945 124.109 41.0514 124.868" stroke="white" stroke-width="0.698224" stroke-linecap="round"/>
<path d="M58.192 16.4131C58.1818 16.3561 58.2415 16.3122 58.2928 16.3389L58.4535 16.0289L58.2928 16.3389L62.0702 18.2972C62.2946 18.4136 62.5619 18.4121 62.785 18.2931L66.5397 16.2917C66.5908 16.2644 66.6509 16.3076 66.6414 16.3647L65.9462 20.5623C65.9049 20.8117 65.9889 21.0655 66.171 21.2409L69.2347 24.1933C69.2764 24.2335 69.254 24.304 69.1967 24.3126L64.9897 24.9486C64.7397 24.9864 64.5244 25.1447 64.4138 25.372L62.5526 29.1982C62.5273 29.2503 62.4533 29.2507 62.4274 29.1989L60.5226 25.3943C60.4094 25.1683 60.1922 25.0124 59.9419 24.9775L55.7278 24.3898C55.6705 24.3818 55.6472 24.3115 55.6884 24.2709L58.7182 21.2836C58.8982 21.1061 58.9794 20.8514 58.9352 20.6025L58.192 16.4131Z" stroke="white" stroke-width="0.698224"/>
<path d="M107.942 89.8253V103.382" stroke="white" stroke-width="0.698224" stroke-linecap="round"/>
<path d="M118.149 91.4204V104.34" stroke="white" stroke-width="0.698224" stroke-linecap="round"/>
<path d="M94.2743 150.128C90.9036 150.548 83.013 152.096 81.2846 155.243C80.766 156.188 80.1645 158.486 81.9067 160.122C83.6492 161.759 86.8331 161.329 88.2071 160.909L96.2189 157.683" stroke="white" stroke-width="0.698224" stroke-linecap="round"/>
<path d="M140.208 126.376C133.919 126.578 106.141 140.026 93.0378 146.725C91.9221 154.106 96.6306 159.406 99.1243 161.133C112.185 157.342 138.991 149.657 141.73 149.253C144.468 148.848 147.182 146.893 148.196 145.966C155.297 137.675 150.056 130.631 146.548 128.145C144.05 126.375 141.895 126.321 140.208 126.376Z" fill="white"/>
<path d="M81.2952 124.494C85.7514 124.792 105.191 132.326 114.401 136.274L93.3368 146.8C83.9097 149.565 78.1184 148.654 76.3499 148.058C66.141 143.14 70.1408 131.006 74.197 126.511C76.8112 124.286 79.6985 124.388 81.2952 124.494Z" fill="white"/>
<path d="M130.891 151.564C133.676 152.902 135.182 154.656 135.946 156.094C137.582 159.839 134.644 162.09 131.289 161.031C129.436 160.446 128.999 160.054 128.017 159.24C127.519 158.827 125.192 156.665 122.536 154.111" stroke="white" stroke-width="0.698224" stroke-linecap="round"/>
<path d="M77.3986 87.4511L79.5587 126.705C79.5994 127.445 80.2116 128.025 80.953 128.025H140.996C141.768 128.025 142.393 127.4 142.393 126.628V86.5359C142.393 85.7573 141.756 85.1291 140.978 85.1396L78.7741 85.9781C77.9802 85.9888 77.355 86.6584 77.3986 87.4511Z" fill="white"/>
<rect x="79.2327" y="128.583" width="63.1603" height="3.03042" rx="1.39645" fill="white"/>
<path d="M118.309 68.2936C123.865 68.2138 136.093 72.4404 140.957 85.7583" stroke="white" stroke-width="0.698224" stroke-linecap="round"/>
<path d="M106.108 68.2136C93.4277 70.6858 87.3669 76.1087 82.582 86.5556" stroke="white" stroke-width="0.698224" stroke-linecap="round"/>
<path d="M148.533 80.8274L151.644 75.6438" stroke="white" stroke-width="0.698224" stroke-linecap="round"/>
<path d="M151.644 82.2629L155.87 78.754" stroke="white" stroke-width="0.698224" stroke-linecap="round"/>
<path d="M152.282 84.6552C153.106 84.9742 154.977 85.2773 155.87 83.9375" stroke="white" stroke-width="0.698224" stroke-linecap="round"/>
<path d="M70.6994 79.8571L65.9146 74.9127" stroke="white" stroke-width="0.698224" stroke-linecap="round"/>
<path d="M75.5643 79.0592L72.6934 71.6427" stroke="white" stroke-width="0.698224" stroke-linecap="round"/>
<path d="M69.5032 82.6482L65.9146 81.2925" stroke="white" stroke-width="0.698224" stroke-linecap="round"/>
<path d="M144.147 94.7035C147.098 99.3289 150.448 104.831 144.147 115.185" stroke="white" stroke-width="0.698224" stroke-linecap="round"/>
<path d="M118.389 68.6922C119.107 66.6188 118.453 65.2235 117.815 64.9576C113.987 68.4665 108.181 67.164 106.028 65.0374C105.262 65.7392 105.709 67.815 106.028 68.453C110.175 73.0464 116.076 70.4732 118.389 68.6922Z" fill="white"/>
<path d="M101.403 81.452L102.951 79.0757C104.044 77.3982 106.171 76.7285 108.028 77.4772L111.931 79.0511C113.598 79.7233 115.508 79.257 116.678 77.8921L120.462 73.4772" stroke="white" stroke-width="0.698224" stroke-linecap="round"/>
<path d="M76.4415 97.6407C75.2453 100.459 73.8258 107.29 77.7175 112.075" stroke="white" stroke-width="0.698224" stroke-linecap="round"/>
<path d="M129.385 36.092C127.63 42.3921 126.753 42.9503 124.201 45.7415C124.201 42.983 123.727 38.3529 123.727 36.425C115.372 36.425 108.32 33.0139 105.838 31.3084C105.927 37.0923 100.505 40.8741 100.505 40.8741C100.505 40.8741 101.283 43.2099 101.727 48.4377C102.083 52.6199 101.06 51.8116 100.505 50.8847C98.9047 45.7237 96.2824 47.1029 95.1712 48.4377C81.5363 26.283 102.505 22.0023 106.505 22.4101C109.527 19.8296 113.742 17.8074 116.705 17.5108C127.391 16.441 132.23 25.8766 129.385 36.092Z" fill="white"/>
<path d="M100.692 54.8283C102.127 63.5919 111.762 69.8934 118.715 62.7944C125.667 55.6953 124.276 42.7008 123.533 36.6371" stroke="white" stroke-width="0.698224" stroke-linecap="round"/>
<path d="M95.0137 47.8947C94.1365 50.0478 94.9595 54.8191 100.692 54.8191" stroke="white" stroke-width="0.698224" stroke-linecap="round"/>
<path d="M97.542 49.0774C97.4152 49.538 97.5167 50.6292 98.9368 51.3094" stroke="white" stroke-width="0.698224" stroke-linecap="round"/>
<path d="M123.34 53.7027C125.211 52.9227 126.53 50.0343 126.022 45.4089" stroke="white" stroke-width="0.698224" stroke-linecap="round"/>
<path d="M112.813 58.9664C114.647 59.4448 114.531 58.1281 115.923 56.9727" stroke="white" stroke-width="0.698224" stroke-linecap="round"/>
<circle cx="118.289" cy="47.8252" r="1.19622" fill="white"/>
<circle cx="107.762" cy="47.9848" r="1.19622" fill="white"/>
<path d="M105.158 45.2497C105.409 44.5085 106.496 43.1374 108.826 43.5821" stroke="white" stroke-width="0.698224" stroke-linecap="round"/>
<path d="M116.322 43.8141C116.878 43.3327 118.39 42.6587 119.991 43.8141" stroke="white" stroke-width="0.698224" stroke-linecap="round"/>
<path d="M112.464 47.1636C112.278 48.7384 112.151 51.9321 113.132 52.1079" stroke="white" stroke-width="0.698224" stroke-linecap="round"/>
<path d="M158.422 119.505C179.715 125.406 217.962 132.185 200.609 112.088C195.133 106.692 187.052 100.366 174.053 94.7832" stroke="white" stroke-width="0.698224" stroke-linecap="round"/>
<path d="M181.469 78.2737C194.707 69.7939 216.032 52.2759 195.425 50.043C174.818 47.8101 156.003 55.5456 149.171 59.6925" stroke="white" stroke-width="0.698224" stroke-linecap="round"/>
<path d="M130.191 65.8816C138.964 46.9814 153.159 7.80927 139.761 2.32262C123.014 -4.5357 101.323 15.2418 83.6187 62.4525" stroke="white" stroke-width="0.698224" stroke-linecap="round"/>
<path d="M64.1092 49.6005C44.4912 38.8611 4.44187 22.3427 1.18816 42.1839C-2.06555 62.0252 37.6861 78.5755 57.9686 84.3705" stroke="white" stroke-width="0.698224" stroke-linecap="round"/>
<path d="M63.1766 94.7832C34.5471 109.377 -1.32516 129.56 18.5448 140.08C26.679 144.386 47.4932 141.755 57.063 137.847" stroke="white" stroke-width="0.698224" stroke-linecap="round"/>
<ellipse cx="110.015" cy="190.321" rx="39.4752" ry="4.78487" fill="white"/>
</svg>
