<svg width="192" height="183" viewBox="0 0 192 183" fill="none" xmlns="http://www.w3.org/2000/svg">
<path d="M8.21292 84.2982C9.28663 84.2982 10.157 83.4277 10.157 82.354C10.157 81.2803 9.28663 80.4099 8.21292 80.4099C7.13921 80.4099 6.2688 81.2803 6.2688 82.354C6.2688 83.4277 7.13921 84.2982 8.21292 84.2982Z" stroke="#0E131D" stroke-width="0.654676"/>
<path d="M12.0227 82.5519C15.944 82.1483 22.097 82.6257 22.8243 85.6589C23.5515 88.6922 20.7744 89.8016 19.295 89.9771C13.6625 90.8723 6.19409 90.4511 6.19409 85.6589" stroke="#0E131D" stroke-width="0.654676" stroke-linecap="round"/>
<path d="M10.6054 87.1394C10.8531 87.1394 11.0539 86.9386 11.0539 86.6909C11.0539 86.4432 10.8531 86.2424 10.6054 86.2424C10.3578 86.2424 10.157 86.4432 10.157 86.6909C10.157 86.9386 10.3578 87.1394 10.6054 87.1394Z" stroke="#0E131D" stroke-width="0.654676"/>
<path d="M14.9422 86.6909C14.9422 86.9087 14.7392 87.1394 14.419 87.1394C14.0987 87.1394 13.8958 86.9087 13.8958 86.6909C13.8958 86.4731 14.0987 86.2424 14.419 86.2424C14.7392 86.2424 14.9422 86.4731 14.9422 86.6909Z" stroke="#0E131D" stroke-width="0.654676"/>
<path d="M18.2324 87.1394C18.4801 87.1394 18.6809 86.9386 18.6809 86.6909C18.6809 86.4432 18.4801 86.2424 18.2324 86.2424C17.9847 86.2424 17.7839 86.4432 17.7839 86.6909C17.7839 86.9386 17.9847 87.1394 18.2324 87.1394Z" stroke="#0E131D" stroke-width="0.654676"/>
<path d="M155.742 29.5638C156.733 29.5638 157.536 28.7603 157.536 27.7692C157.536 26.7781 156.733 25.9746 155.742 25.9746C154.751 25.9746 153.947 26.7781 153.947 27.7692C153.947 28.7603 154.751 29.5638 155.742 29.5638Z" stroke="#0E131D" stroke-width="0.654676"/>
<path d="M159.268 26.1987C160.583 26.1987 164.34 26.1987 166.108 26.1987C167.54 26.1987 168.229 26.5155 168.229 28.7324C168.229 30.8863 168.211 33.6764 168.229 34.8025C168.241 35.5942 167.847 36.4704 166.532 36.5971C165.217 36.7238 159.939 36.6499 157.465 36.5971C156.546 36.5971 154.919 36.0761 154.919 33.9579V31.5826" stroke="#0E131D" stroke-width="0.654676" stroke-linecap="round"/>
<path d="M158.359 29.9373L161.649 32.1805" stroke="#0E131D" stroke-width="0.654676" stroke-linecap="round"/>
<path d="M161.649 32.1805L167.631 26.6472" stroke="#0E131D" stroke-width="0.654676" stroke-linecap="round"/>
<path d="M163.165 30.8347L164.8 32.4797L166.435 34.1248" stroke="#0E131D" stroke-width="0.654676" stroke-linecap="round"/>
<path d="M157.162 34.1248L159.574 30.8347" stroke="#0E131D" stroke-width="0.654676" stroke-linecap="round"/>
<path d="M168.893 141.722C168.396 142.22 167.968 142.649 167.673 142.944C166.903 143.715 166.095 143.265 165.787 142.944L160.878 138.214C160.154 137.541 159.541 136.875 156.802 134.262C156.521 133.981 156.077 133.264 156.543 132.642C157.009 132.02 159.627 128.755 160.878 127.2C161.258 126.65 162.083 125.996 163.134 126.974C164.04 127.816 167.146 130.732 169.799 132.949" stroke="#0E131D" stroke-width="0.654676" stroke-linecap="round"/>
<path d="M160.827 127.368C160.981 130.205 162.022 134.772 167.407 136.49" stroke="#0E131D" stroke-width="0.654676" stroke-linecap="round"/>
<path d="M174.481 136.71C174.235 136.082 172.34 135.352 171.623 136.71C170.886 138.11 171.45 139.29 171.93 139.521C172.543 139.817 173.443 139.971 174.395 138.271" stroke="#0E131D" stroke-width="0.654676" stroke-linecap="round"/>
<path d="M174.638 135.837C174.583 136.165 174.526 136.302 174.481 136.71C174.423 137.241 174.385 137.798 174.394 138.271C174.412 139.102 174.577 139.676 175.043 139.399C175.98 138.844 176.485 138.389 176.62 137.924C176.844 137.144 176.845 135.649 175.583 134.672C174.061 133.492 172.344 133.524 170.994 134.672C169.653 135.811 169.286 137.635 169.359 138.581C169.44 139.616 170.212 141.839 172.733 141.874C175.253 141.908 176.618 140.55 176.827 139.914" stroke="#0E131D" stroke-width="0.654676" stroke-linecap="round"/>
<path d="M41.7865 118.032C41.2489 115.956 39.4636 112.128 36.6246 113.422C33.7854 114.716 35.4415 117.034 36.6246 118.032C37.4206 118.571 39.132 119.148 39.6088 117.142C40.0856 115.137 38.0764 114.312 37.5117 115.201C37.2139 115.552 36.8776 116.431 37.915 117.142" stroke="#0E131D" stroke-width="0.654676" stroke-linecap="round"/>
<path d="M53.9865 15.4517C53.977 15.3983 54.0329 15.3572 54.081 15.3822L54.2317 15.0916L54.081 15.3822L57.6228 17.2184C57.8332 17.3275 58.0839 17.3261 58.293 17.2146L61.8136 15.3379C61.8614 15.3124 61.9178 15.3528 61.9089 15.4064L61.2571 19.3422C61.2183 19.5761 61.2971 19.814 61.4678 19.9785L64.3405 22.7467C64.3796 22.7844 64.3585 22.8505 64.3049 22.8586L60.3602 23.4549C60.1259 23.4903 59.9239 23.6388 59.8203 23.8519L58.0752 27.4395C58.0514 27.4883 57.9821 27.4887 57.9578 27.4402L56.1717 23.8728C56.0656 23.6609 55.862 23.5147 55.6272 23.482L51.676 22.9309C51.6223 22.9234 51.6004 22.8576 51.6391 22.8195L54.4799 20.0185C54.6487 19.852 54.7248 19.6132 54.6834 19.3799L53.9865 15.4517Z" stroke="#0E131D" stroke-width="0.654676"/>
<path d="M100.633 84.2852V96.9967" stroke="#0E131D" stroke-width="0.654676" stroke-linecap="round"/>
<path d="M110.204 85.781V97.8944" stroke="#0E131D" stroke-width="0.654676" stroke-linecap="round"/>
<path d="M87.8183 140.827C84.6579 141.221 77.2594 142.672 75.6388 145.623C75.1525 146.509 74.5885 148.664 76.2221 150.198C77.8559 151.733 80.8413 151.329 82.1296 150.936L89.6417 147.911" stroke="#0E131D" stroke-width="0.654676" stroke-linecap="round"/>
<path d="M130.887 118.556C124.99 118.746 98.9445 131.355 86.6589 137.636C85.6127 144.557 90.0276 149.527 92.3658 151.146C104.612 147.591 129.746 140.386 132.314 140.006C134.882 139.627 137.426 137.794 138.377 136.925C145.035 129.151 140.121 122.546 136.832 120.215C134.49 118.556 132.469 118.505 130.887 118.556Z" fill="#0E131D"/>
<path d="M75.6488 116.792C79.8271 117.071 98.054 124.135 106.69 127.837L86.9394 137.707C78.1003 140.299 72.6702 139.445 71.012 138.886C61.4398 134.275 65.1902 122.897 68.9933 118.683C71.4445 116.597 74.1518 116.692 75.6488 116.792Z" fill="#0E131D"/>
<path d="M122.151 142.173C124.763 143.428 126.175 145.072 126.891 146.421C128.425 149.932 125.67 152.043 122.525 151.05C120.787 150.502 120.377 150.134 119.457 149.371C118.989 148.984 116.808 146.956 114.317 144.562" stroke="#0E131D" stroke-width="0.654676" stroke-linecap="round"/>
<path d="M71.9952 82.0591L74.0205 118.865C74.0587 119.559 74.6327 120.102 75.3279 120.102H131.626C132.35 120.102 132.936 119.516 132.936 118.793V81.2009C132.936 80.4709 132.339 79.8818 131.609 79.8917L73.2849 80.6779C72.5405 80.6879 71.9543 81.3158 71.9952 82.0591Z" fill="#0E131D"/>
<rect x="73.7148" y="120.625" width="59.221" height="2.84141" rx="1.30935" fill="#0E131D"/>
<path d="M110.354 64.0965C115.563 64.0217 127.029 67.9847 131.59 80.472" stroke="#0E131D" stroke-width="0.654676" stroke-linecap="round"/>
<path d="M98.9136 64.0215C87.0245 66.3395 81.3417 71.4241 76.8552 81.2195" stroke="#0E131D" stroke-width="0.654676" stroke-linecap="round"/>
<path d="M138.693 75.8486L141.61 70.9883" stroke="#0E131D" stroke-width="0.654676" stroke-linecap="round"/>
<path d="M141.61 77.1946L145.573 73.9045" stroke="#0E131D" stroke-width="0.654676" stroke-linecap="round"/>
<path d="M142.208 79.4376C142.981 79.7367 144.735 80.0209 145.573 78.7646" stroke="#0E131D" stroke-width="0.654676" stroke-linecap="round"/>
<path d="M65.7137 74.939L61.2273 70.303" stroke="#0E131D" stroke-width="0.654676" stroke-linecap="round"/>
<path d="M70.2754 74.1908L67.5835 67.2368" stroke="#0E131D" stroke-width="0.654676" stroke-linecap="round"/>
<path d="M64.5921 77.5558L61.2273 76.2847" stroke="#0E131D" stroke-width="0.654676" stroke-linecap="round"/>
<path d="M134.581 88.8591C137.348 93.196 140.488 98.3554 134.581 108.063" stroke="#0E131D" stroke-width="0.654676" stroke-linecap="round"/>
<path d="M110.429 64.4704C111.102 62.5263 110.489 61.218 109.891 60.9688C106.301 64.2588 100.858 63.0375 98.839 61.0435C98.1212 61.7015 98.5399 63.6479 98.839 64.2461C102.727 68.553 108.26 66.1403 110.429 64.4704Z" fill="#0E131D"/>
<path d="M94.502 76.4344L95.9536 74.2064C96.9783 72.6335 98.9727 72.0056 100.714 72.7076L104.373 74.1833C105.937 74.8136 107.728 74.3764 108.825 73.0966L112.373 68.957" stroke="#0E131D" stroke-width="0.654676" stroke-linecap="round"/>
<path d="M71.0979 91.6135C69.9763 94.2555 68.6453 100.661 72.2943 105.148" stroke="#0E131D" stroke-width="0.654676" stroke-linecap="round"/>
<path d="M120.739 33.9033C119.094 39.8104 118.272 40.3338 115.879 42.9509C115.879 40.3645 115.435 36.0232 115.435 34.2155C107.6 34.2155 100.988 31.0172 98.6611 29.418C98.7444 34.8412 93.6603 38.3871 93.6603 38.3871C93.6603 38.3871 94.3896 40.5772 94.8063 45.479C95.1397 49.4003 94.1812 48.6425 93.6603 47.7734C92.16 42.9342 89.7012 44.2275 88.6593 45.479C75.8749 24.7061 95.5355 20.6923 99.2861 21.0747C102.12 18.6551 106.072 16.759 108.85 16.4809C118.87 15.4779 123.407 24.325 120.739 33.9033Z" fill="#0E131D"/>
<path d="M93.8354 51.471C95.1814 59.6879 104.215 65.5965 110.734 58.9402C117.254 52.2839 115.949 40.0999 115.252 34.4143" stroke="#0E131D" stroke-width="0.654676" stroke-linecap="round"/>
<path d="M88.5117 44.97C87.6892 46.9889 88.4609 51.4626 93.8356 51.4626" stroke="#0E131D" stroke-width="0.654676" stroke-linecap="round"/>
<path d="M90.8823 46.0789C90.7634 46.5107 90.8585 47.5339 92.1901 48.1717" stroke="#0E131D" stroke-width="0.654676" stroke-linecap="round"/>
<path d="M115.071 50.4157C116.825 49.6843 118.062 46.9761 117.586 42.6392" stroke="#0E131D" stroke-width="0.654676" stroke-linecap="round"/>
<path d="M105.201 55.351C106.921 55.7997 106.812 54.5651 108.117 53.4817" stroke="#0E131D" stroke-width="0.654676" stroke-linecap="round"/>
<circle cx="110.335" cy="44.9048" r="1.12161" fill="#0E131D"/>
<circle cx="100.465" cy="45.0545" r="1.12161" fill="#0E131D"/>
<path d="M98.0229 42.4898C98.259 41.7948 99.2774 40.5092 101.463 40.9261" stroke="#0E131D" stroke-width="0.654676" stroke-linecap="round"/>
<path d="M108.491 41.1438C109.012 40.6924 110.43 40.0605 111.931 41.1438" stroke="#0E131D" stroke-width="0.654676" stroke-linecap="round"/>
<path d="M104.873 44.2844C104.699 45.7611 104.581 48.7556 105.5 48.9204" stroke="#0E131D" stroke-width="0.654676" stroke-linecap="round"/>
<path d="M147.966 112.114C167.93 117.647 203.792 124.003 187.521 105.16C182.387 100.1 174.809 94.1683 162.621 88.9341" stroke="#0E131D" stroke-width="0.654676" stroke-linecap="round"/>
<path d="M169.575 73.4543C181.987 65.5034 201.982 49.078 182.66 46.9843C163.339 44.8906 145.697 52.1437 139.292 56.032" stroke="#0E131D" stroke-width="0.654676" stroke-linecap="round"/>
<path d="M121.495 61.8349C129.721 44.1135 143.03 7.38445 130.468 2.24C114.766 -4.19057 94.4272 14.3534 77.8274 58.6196" stroke="#0E131D" stroke-width="0.654676" stroke-linecap="round"/>
<path d="M59.5347 46.5693C41.1403 36.4998 3.58877 21.0116 0.537994 39.6154C-2.51279 58.2191 34.7596 73.7372 53.7771 79.1708" stroke="#0E131D" stroke-width="0.654676" stroke-linecap="round"/>
<path d="M58.6601 88.9341C31.8162 102.618 -1.8187 121.542 16.812 131.406C24.4388 135.444 43.9549 132.976 52.9278 129.312" stroke="#0E131D" stroke-width="0.654676" stroke-linecap="round"/>
<ellipse cx="102.578" cy="178.514" rx="37.0131" ry="4.48644" fill="#0E131D"/>
</svg>
