<svg width="240" height="179" viewBox="0 0 240 179" fill="none" xmlns="http://www.w3.org/2000/svg">
<path d="M110.601 90.2138C113.056 87.5266 118.003 82.9584 118.158 86.183C118.352 90.2138 113.508 100.609 118.158 95.9416C122.809 91.2744 128.428 83.0009 128.816 86.183C129.203 89.3651 129.784 90.2137 135.21 84.4857" stroke="white" stroke-width="1.10038" stroke-linecap="round"/>
<path d="M16.4429 136.17C17.348 137.513 20.2445 140.129 24.5891 139.844" stroke="white" stroke-width="1.10038" stroke-linecap="round"/>
<path d="M70.9684 142.096C66.6758 144.655 54.1173 147.08 38.1266 136.407C38.0286 136.342 37.897 136.359 37.826 136.453C34.8735 140.362 26.0533 148.772 14.4878 149.801C11.1207 150.1 8.73117 148.26 12.6413 146.719C14.8137 145.863 16.443 145.297 17.2032 144.467" stroke="white" stroke-width="1.10038" stroke-linecap="round"/>
<path d="M10.9036 147.786C8.73123 148.892 5.9072 149.635 5.47273 147.549C4.92965 144.941 8.83984 145.415 10.3605 144.111" stroke="white" stroke-width="1.10038" stroke-linecap="round"/>
<path d="M5.1469 147.667C1.45397 148.852 -0.259893 145.283 2.9746 143.519C6.01587 141.859 8.62265 142.452 10.5778 139.963" stroke="white" stroke-width="1.10038" stroke-linecap="round"/>
<path d="M1.88834 144.348C1.05561 143.558 0.0635808 141.527 2.75728 139.725C6.1244 137.473 21.8738 129.887 19.9187 123.842C19.3437 122.065 16.2258 122.183 13.619 118.509C11.6827 115.78 13.619 112.582 16.0085 114.36C16.624 114.874 20.4184 117.561 22.4169 116.612C24.909 115.43 33.1296 114.366 38.9922 122.479C39.0198 122.517 39.0574 122.546 39.1023 122.56C43.9146 124.101 54.6339 126.365 59.5638 123.25" stroke="white" stroke-width="1.10038" stroke-linecap="round"/>
<path d="M22.634 127.636C23.9736 129.019 27.739 129.532 30.1286 127.043" stroke="white" stroke-width="1.10038" stroke-linecap="round"/>
<path d="M223.557 134.76C222.652 136.103 219.756 138.719 215.411 138.435" stroke="white" stroke-width="1.10038" stroke-linecap="round"/>
<path d="M169.032 140.687C173.324 143.245 185.883 145.671 201.873 134.998C201.971 134.933 202.103 134.95 202.174 135.044C205.126 138.953 213.947 147.363 225.512 148.391C228.879 148.691 231.269 146.85 227.359 145.309C225.186 144.453 223.557 143.887 222.797 143.057" stroke="white" stroke-width="1.10038" stroke-linecap="round"/>
<path d="M229.096 146.376C231.269 147.482 234.093 148.225 234.527 146.139C235.07 143.531 231.16 144.005 229.64 142.702" stroke="white" stroke-width="1.10038" stroke-linecap="round"/>
<path d="M234.853 146.258C238.546 147.443 240.26 143.874 237.025 142.109C233.984 140.45 231.377 141.042 229.422 138.553" stroke="white" stroke-width="1.10038" stroke-linecap="round"/>
<path d="M238.112 142.938C238.944 142.148 239.936 140.117 237.243 138.316C233.876 136.064 218.126 128.478 220.081 122.433C220.656 120.655 223.774 120.774 226.381 117.099C228.317 114.37 226.381 111.173 223.991 112.951C223.376 113.464 219.582 116.151 217.583 115.203C215.091 114.02 206.87 112.956 201.008 121.069C200.98 121.107 200.943 121.136 200.898 121.151C196.085 122.691 185.366 124.955 180.436 121.84" stroke="white" stroke-width="1.10038" stroke-linecap="round"/>
<path d="M217.366 126.226C216.026 127.609 212.261 128.123 209.871 125.634" stroke="white" stroke-width="1.10038" stroke-linecap="round"/>
<path d="M108.379 41.5338C109.199 51.7374 113.395 69.733 123.585 70.4304C134.319 71.1651 138.791 47.4111 138.791 41.2889" stroke="white" stroke-width="1.10038" stroke-linecap="round"/>
<path d="M110.334 41.0522L107.292 40.5781" stroke="white" stroke-width="1.10038" stroke-linecap="round"/>
<path d="M139.944 40.5781C143.238 41.4821 145.829 45.4103 137.923 52.9051" stroke="white" stroke-width="1.10038" stroke-linecap="round"/>
<path d="M106.953 40.5781C104.081 40.989 101.059 45.7555 109.899 52.9051" stroke="white" stroke-width="1.10038" stroke-linecap="round"/>
<ellipse cx="115.982" cy="42.5931" rx="1.9551" ry="2.01499" fill="white"/>
<ellipse cx="130.862" cy="42.5931" rx="1.84649" ry="2.01499" fill="white"/>
<path d="M122.383 42.4743C122.383 46.2753 119.57 49.2729 116.199 49.2729C112.828 49.2729 110.015 46.2753 110.015 42.4743C110.015 38.6733 112.828 35.6757 116.199 35.6757C119.57 35.6757 122.383 38.6733 122.383 42.4743Z" stroke="white" stroke-width="1.10038"/>
<path d="M136.721 42.4743C136.721 46.2841 133.948 49.2729 130.645 49.2729C127.342 49.2729 124.57 46.2841 124.57 42.4743C124.57 38.6645 127.342 35.6757 130.645 35.6757C133.948 35.6757 136.721 38.6645 136.721 42.4743Z" stroke="white" stroke-width="1.10038"/>
<path d="M122.064 41.7635H124.671" stroke="white" stroke-width="1.10038" stroke-linecap="round"/>
<path d="M121.01 46.2668C120.445 49.6844 120.383 55.3585 125.975 52.2339" stroke="white" stroke-width="1.10038" stroke-linecap="round"/>
<path d="M119.675 59.5421C120.87 58.8266 123.976 57.8248 126.844 59.5421" stroke="white" stroke-width="1.10038" stroke-linecap="round"/>
<path d="M136.185 40.5781H139.878" stroke="white" stroke-width="1.10038" stroke-linecap="round"/>
<path d="M106.56 20.7897C95.1619 26.6467 100.475 36.8964 104.557 41.2891C105.269 40.7034 107.525 40.557 108.564 40.557C106.605 24.9384 113.981 20.7895 117.246 19.8134C126.374 18.1051 136.837 20.7897 138.618 28.599C140.745 37.928 140.812 41.0451 142.466 41.2891C148.75 35.8226 147.824 25.3451 146.575 20.7897C148.204 15.7012 144.565 11.1093 142.466 8.34353C140.367 5.57772 134.611 0.534063 124.37 1.02228C104.111 3.21865 105.447 16.885 106.56 20.7897Z" fill="white"/>
<path d="M112.289 32.7548C113.212 32.5759 115.982 32.3254 119.675 32.7548" stroke="white" stroke-width="1.10038" stroke-linecap="round"/>
<path d="M127.496 33.2288C128.365 32.871 130.971 32.3701 134.447 33.2288" stroke="white" stroke-width="1.10038" stroke-linecap="round"/>
<path d="M113.546 69.3199C92.0402 67.6604 86.7397 64.318 71.1858 104.997" stroke="white" stroke-width="1.10038" stroke-linecap="round"/>
<path d="M134.383 68.4639C152.847 72.0195 161.754 59.6925 173.919 100.348" stroke="white" stroke-width="1.10038" stroke-linecap="round"/>
<path d="M84.1111 130.718C81.8239 142.643 74.5336 143.445 70.9149 142.307C70.7763 142.263 70.7294 142.092 70.8114 141.972C79.0632 129.907 66.3327 120.983 59.7865 123.285C59.665 123.328 59.5297 123.259 59.4977 123.134C58.2755 118.367 65.3968 117.574 66.0808 111.042C66.4283 107.723 66.8411 106.025 68.5789 105.945C76.2907 105.59 87.0437 115.427 84.1111 130.718Z" stroke="white" stroke-width="1.10038" stroke-linecap="round"/>
<path d="M175.44 101.888C177.267 111.152 183.134 115.659 180.944 121.838C180.905 121.949 180.776 122.007 180.664 121.971C166.841 117.582 163.877 135.069 169.579 140.4C169.726 140.537 169.643 140.791 169.443 140.793C160.052 140.906 152.89 123.804 155.02 117.297C160.994 99.0435 174.809 98.6878 175.44 101.888Z" stroke="white" stroke-width="1.10038" stroke-linecap="round"/>
<path d="M157.736 132.113C157.663 147.799 157.931 164.14 160.016 177.036" stroke="white" stroke-width="1.10038" stroke-linecap="round"/>
<path d="M84.5457 129.295C84.6906 144.783 84.2633 162.555 81.8303 178.011" stroke="white" stroke-width="1.10038" stroke-linecap="round"/>
<path d="M132.41 74.2474C133.376 71.2868 132.492 69.2945 131.635 68.9149C126.466 73.9254 118.627 72.0653 115.723 69.0286C114.688 70.0308 115.29 72.9951 115.723 73.9059C121.32 80.4651 129.287 76.7909 132.41 74.2474Z" fill="white"/>
</svg>
