<svg width="246" height="183" viewBox="0 0 246 183" fill="none" xmlns="http://www.w3.org/2000/svg">
<path d="M113.337 91.7341C115.861 88.9713 120.947 84.2747 121.107 87.59C121.306 91.7341 116.325 102.422 121.107 97.6231C125.888 92.8246 131.665 84.3184 132.064 87.59C132.462 90.8616 133.06 91.734 138.638 85.845" stroke="#0E131D" stroke-width="1.13132" stroke-linecap="round"/>
<path d="M16.5305 138.983C17.4611 140.364 20.439 143.053 24.9059 142.76" stroke="#0E131D" stroke-width="1.13132" stroke-linecap="round"/>
<path d="M72.5895 145.076C68.1762 147.706 55.2644 150.2 38.824 139.227C38.7233 139.159 38.588 139.177 38.515 139.274C35.4795 143.293 26.4112 151.939 14.5205 152.997C11.0586 153.304 8.60192 151.412 12.622 149.828C14.8555 148.948 16.5306 148.366 17.3122 147.513" stroke="#0E131D" stroke-width="1.13132" stroke-linecap="round"/>
<path d="M10.8353 150.925C8.6019 152.063 5.69845 152.826 5.25176 150.681C4.69341 148 8.71357 148.488 10.2769 147.147" stroke="#0E131D" stroke-width="1.13132" stroke-linecap="round"/>
<path d="M4.91693 150.803C1.12014 152.022 -0.641921 148.353 2.68354 146.538C5.81034 144.832 8.49043 145.441 10.5005 142.882" stroke="#0E131D" stroke-width="1.13132" stroke-linecap="round"/>
<path d="M1.56665 147.391C0.710498 146.578 -0.309435 144.49 2.46002 142.638C5.92183 140.323 22.1142 132.524 20.1041 126.309C19.513 124.481 16.3073 124.603 13.6272 120.825C11.6365 118.019 13.6272 114.732 16.0839 116.56C16.7167 117.088 20.6178 119.85 22.6726 118.875C25.2347 117.66 33.6865 116.565 39.714 124.907C39.7423 124.946 39.7811 124.976 39.8272 124.99C44.7749 126.574 55.7956 128.902 60.8642 125.699" stroke="#0E131D" stroke-width="1.13132" stroke-linecap="round"/>
<path d="M22.8958 130.208C24.273 131.63 28.1443 132.158 30.6011 129.599" stroke="#0E131D" stroke-width="1.13132" stroke-linecap="round"/>
<path d="M229.47 137.533C228.539 138.914 225.561 141.603 221.094 141.311" stroke="#0E131D" stroke-width="1.13132" stroke-linecap="round"/>
<path d="M173.411 143.627C177.824 146.257 190.736 148.751 207.176 137.778C207.277 137.71 207.412 137.728 207.485 137.825C210.521 141.844 219.589 150.49 231.48 151.548C234.941 151.855 237.398 149.963 233.378 148.379C231.144 147.499 229.469 146.917 228.688 146.064" stroke="#0E131D" stroke-width="1.13132" stroke-linecap="round"/>
<path d="M235.165 149.476C237.398 150.613 240.302 151.377 240.748 149.232C241.307 146.551 237.286 147.038 235.723 145.698" stroke="#0E131D" stroke-width="1.13132" stroke-linecap="round"/>
<path d="M241.083 149.354C244.88 150.573 246.642 146.903 243.317 145.089C240.19 143.383 237.51 143.992 235.5 141.433" stroke="#0E131D" stroke-width="1.13132" stroke-linecap="round"/>
<path d="M244.433 145.941C245.29 145.129 246.309 143.041 243.54 141.189C240.078 138.873 223.886 131.074 225.896 124.859C226.487 123.031 229.693 123.153 232.373 119.375C234.364 116.569 232.373 113.282 229.916 115.11C229.283 115.638 225.382 118.401 223.327 117.426C220.765 116.21 212.313 115.116 206.286 123.457C206.258 123.497 206.219 123.526 206.173 123.541C201.225 125.125 190.204 127.452 185.136 124.25" stroke="#0E131D" stroke-width="1.13132" stroke-linecap="round"/>
<path d="M223.104 128.759C221.727 130.181 217.856 130.709 215.399 128.15" stroke="#0E131D" stroke-width="1.13132" stroke-linecap="round"/>
<path d="M111.052 41.6849C111.895 52.1754 116.21 70.6771 126.686 71.3942C137.722 72.1495 142.32 47.7274 142.32 41.4331" stroke="#0E131D" stroke-width="1.13132" stroke-linecap="round"/>
<path d="M113.062 41.1898L109.935 40.7024" stroke="#0E131D" stroke-width="1.13132" stroke-linecap="round"/>
<path d="M143.505 40.7024C146.892 41.6318 149.555 45.6705 141.427 53.3761" stroke="#0E131D" stroke-width="1.13132" stroke-linecap="round"/>
<path d="M109.586 40.7024C106.634 41.1248 103.526 46.0253 112.615 53.3761" stroke="#0E131D" stroke-width="1.13132" stroke-linecap="round"/>
<ellipse cx="118.869" cy="42.7741" rx="2.01009" ry="2.07166" fill="#0E131D"/>
<ellipse cx="134.168" cy="42.7741" rx="1.89842" ry="2.07166" fill="#0E131D"/>
<path d="M125.451 42.6519C125.451 46.5598 122.559 49.6417 119.093 49.6417C115.627 49.6417 112.735 46.5598 112.735 42.6519C112.735 38.744 115.627 35.6621 119.093 35.6621C122.559 35.6621 125.451 38.744 125.451 42.6519Z" stroke="#0E131D" stroke-width="1.13132"/>
<path d="M140.191 42.6519C140.191 46.5688 137.341 49.6417 133.945 49.6417C130.548 49.6417 127.698 46.5688 127.698 42.6519C127.698 38.735 130.548 35.6621 133.945 35.6621C137.341 35.6621 140.191 38.735 140.191 42.6519Z" stroke="#0E131D" stroke-width="1.13132"/>
<path d="M125.123 41.9211H127.803" stroke="#0E131D" stroke-width="1.13132" stroke-linecap="round"/>
<path d="M124.039 46.551C123.458 50.0647 123.393 55.8984 129.143 52.6859" stroke="#0E131D" stroke-width="1.13132" stroke-linecap="round"/>
<path d="M122.666 60.2C123.894 59.4643 127.088 58.4343 130.036 60.2" stroke="#0E131D" stroke-width="1.13132" stroke-linecap="round"/>
<path d="M139.64 40.7024H143.437" stroke="#0E131D" stroke-width="1.13132" stroke-linecap="round"/>
<path d="M109.182 20.3575C97.4635 26.3792 102.926 36.9172 107.122 41.4335C107.855 40.8313 110.174 40.6808 111.242 40.6808C109.228 24.6229 116.812 20.3574 120.169 19.3537C129.553 17.5974 140.311 20.3575 142.142 28.3865C144.329 37.9778 144.398 41.1826 146.098 41.4335C152.559 35.8132 151.606 25.0411 150.322 20.3575C151.998 15.126 148.256 10.4049 146.098 7.56134C143.94 4.71775 138.022 -0.467752 127.493 0.034194C106.665 2.29234 108.038 16.343 109.182 20.3575Z" fill="#0E131D"/>
<path d="M115.072 32.659C116.021 32.4751 118.869 32.2176 122.666 32.659" stroke="#0E131D" stroke-width="1.13132" stroke-linecap="round"/>
<path d="M130.707 33.1464C131.6 32.7785 134.28 32.2636 137.854 33.1464" stroke="#0E131D" stroke-width="1.13132" stroke-linecap="round"/>
<path d="M116.365 70.2525C94.2539 68.5463 88.8043 65.1099 72.813 106.933" stroke="#0E131D" stroke-width="1.13132" stroke-linecap="round"/>
<path d="M137.787 69.3723C156.771 73.028 165.928 60.3542 178.436 102.153" stroke="#0E131D" stroke-width="1.13132" stroke-linecap="round"/>
<path d="M86.1017 133.377C83.7502 145.637 76.2549 146.463 72.5344 145.292C72.3919 145.247 72.3437 145.071 72.428 144.948C80.9118 132.543 67.8234 123.368 61.093 125.736C60.9681 125.78 60.829 125.708 60.7961 125.58C59.5395 120.679 66.8611 119.863 67.5643 113.148C67.9217 109.736 68.3461 107.99 70.1327 107.908C78.0614 107.542 89.1168 117.657 86.1017 133.377Z" stroke="#0E131D" stroke-width="1.13132" stroke-linecap="round"/>
<path d="M179.999 103.736C181.877 113.261 187.909 117.895 185.659 124.247C185.618 124.361 185.486 124.421 185.37 124.384C171.159 119.872 168.111 137.851 173.974 143.332C174.125 143.472 174.04 143.733 173.833 143.736C164.178 143.852 156.815 126.269 159.005 119.579C165.147 100.812 179.35 100.446 179.999 103.736Z" stroke="#0E131D" stroke-width="1.13132" stroke-linecap="round"/>
<path d="M161.797 134.812C161.722 150.938 161.998 167.739 164.142 180.998" stroke="#0E131D" stroke-width="1.13132" stroke-linecap="round"/>
<path d="M86.5486 131.915C86.6975 147.838 86.2583 166.109 83.7568 182" stroke="#0E131D" stroke-width="1.13132" stroke-linecap="round"/>
<path d="M135.759 75.3184C136.753 72.2745 135.844 70.2261 134.962 69.8359C129.648 74.9873 121.588 73.0749 118.602 69.9528C117.539 70.9832 118.157 74.0309 118.602 74.9673C124.357 81.711 132.549 77.9334 135.759 75.3184Z" fill="#0E131D"/>
</svg>
