<svg width="183" height="150" viewBox="0 0 183 150" fill="none" xmlns="http://www.w3.org/2000/svg">
<path d="M2.90529 113.309C8.94129 109.725 14.3293 105.176 20.3653 101.591C21.6113 100.851 20.4803 98.9046 19.2293 99.6476C13.1933 103.232 7.8053 107.781 1.7693 111.366C0.5233 112.106 1.65429 114.052 2.90529 113.309Z" fill="#0E131D"/>
<path d="M19.5001 101.445C26.1061 105.717 32.8321 109.801 39.3111 114.267C40.5091 115.093 41.6331 113.142 40.4471 112.324C33.9681 107.858 27.2421 103.774 20.6361 99.5017C19.4141 98.7107 18.2871 100.66 19.5001 101.445Z" fill="#0E131D"/>
<path d="M39.3354 112.232C32.7634 116.302 26.0733 120.176 19.5013 124.246C18.2703 125.008 19.3993 126.955 20.6373 126.189C27.2093 122.119 33.8993 118.245 40.4713 114.175C41.7013 113.412 40.5724 111.466 39.3354 112.232Z" fill="#0E131D"/>
<path d="M1.31075 113.336C4.81475 115.276 7.84775 117.828 10.9827 120.295C13.7057 122.437 16.7107 124.144 19.4997 126.189C20.6717 127.048 21.7928 125.095 20.6358 124.246C17.3348 121.825 13.8608 119.744 10.6538 117.18C8.02177 115.076 5.40277 113.03 2.44677 111.393C1.17577 110.69 0.0417513 112.633 1.31075 113.336Z" fill="#0E131D"/>
<path d="M39.3354 135.106C32.7634 139.176 26.0733 143.051 19.5013 147.12C18.2703 147.882 19.3993 149.829 20.6373 149.063C27.2093 144.993 33.8993 141.119 40.4713 137.049C41.7013 136.287 40.5724 134.34 39.3354 135.106Z" fill="#0E131D"/>
<path d="M1.31075 136.211C4.81475 138.151 7.84775 140.703 10.9827 143.17C13.7057 145.312 16.7107 147.019 19.4997 149.064C20.6717 149.923 21.7928 147.97 20.6358 147.121C17.3348 144.7 13.8608 142.619 10.6538 140.055C8.02177 137.951 5.40277 135.905 2.44677 134.268C1.17577 133.565 0.0417513 135.508 1.31075 136.211Z" fill="#0E131D"/>
<path d="M0.523831 112.823C0.363831 120.299 0.433806 127.768 0.735806 135.239C0.793806 136.685 3.04481 136.69 2.98581 135.239C2.68381 127.768 2.61383 120.298 2.77383 112.823C2.80483 111.371 0.554831 111.374 0.523831 112.823Z" fill="#0E131D"/>
<path d="M18.8865 125.217C18.7425 132.69 19.0765 140.16 19.0985 147.633C19.1025 149.084 21.3525 149.084 21.3485 147.633C21.3265 140.16 20.9925 132.69 21.1365 125.217C21.1645 123.766 18.9145 123.768 18.8865 125.217Z" fill="#0E131D"/>
<path d="M38.6967 112.823C38.5367 120.299 38.6067 127.768 38.9087 135.239C38.9667 136.685 41.2177 136.69 41.1587 135.239C40.8567 127.768 40.7867 120.298 40.9467 112.823C40.9787 111.371 38.7277 111.374 38.6967 112.823Z" fill="#0E131D"/>
<path d="M1.56319 118.813C2.71619 117.515 4.04919 116.463 5.58019 115.645C6.43319 115.189 5.67617 113.894 4.82317 114.35C3.18917 115.223 1.73319 116.368 0.502186 117.753C-0.137814 118.473 0.91919 119.537 1.56319 118.813Z" fill="#0E131D"/>
<path d="M1.69534 122.344C3.81334 120.713 5.93134 119.082 8.04934 117.451C8.80434 116.87 8.05835 115.565 7.29235 116.156C5.17435 117.787 3.05635 119.418 0.93835 121.049C0.18335 121.63 0.929339 122.934 1.69534 122.344Z" fill="#0E131D"/>
<path d="M1.70283 126.304C4.98983 124.441 8.17183 122.419 11.2538 120.234C12.0358 119.679 11.2878 118.378 10.4968 118.939C7.41484 121.124 4.23284 123.147 0.945844 125.009C0.104844 125.486 0.860832 126.782 1.70283 126.304Z" fill="#0E131D"/>
<path d="M1.5615 131.031C6.1995 128.328 10.6985 125.413 15.0615 122.285C15.8405 121.727 15.0925 120.425 14.3045 120.99C9.94151 124.118 5.44251 127.032 0.80451 129.736C-0.0304902 130.222 0.724498 131.519 1.5615 131.031Z" fill="#0E131D"/>
<path d="M3.01898 134.635C8.25797 132.101 13.22 129.124 17.92 125.692C18.693 125.128 17.946 123.825 17.163 124.397C12.463 127.829 7.50096 130.807 2.26196 133.34C1.39096 133.761 2.15198 135.054 3.01898 134.635Z" fill="#0E131D"/>
<path d="M6.26957 138.154C10.3936 135.839 14.5916 133.674 18.8696 131.658C19.7436 131.246 18.9826 129.953 18.1126 130.363C13.8356 132.379 9.63655 134.544 5.51255 136.859C4.66955 137.332 5.42557 138.628 6.26957 138.154Z" fill="#0E131D"/>
<path d="M10.3075 140.768C13.7965 139.78 16.9715 137.696 20.1445 135.991C20.9965 135.533 20.2395 134.238 19.3875 134.696C16.3365 136.335 13.2585 138.373 9.90851 139.322C8.97951 139.585 9.3745 141.032 10.3075 140.768Z" fill="#0E131D"/>
<path d="M14.3669 143.59C16.6779 143.068 18.8869 142.272 21.0099 141.223C21.8769 140.794 21.1169 139.501 20.2529 139.928C18.2439 140.921 16.1529 141.65 13.9679 142.144C13.0249 142.357 13.4249 143.803 14.3669 143.59Z" fill="#0E131D"/>
<path d="M50.084 90.1897C56.12 86.6057 61.508 82.0567 67.544 78.4717C68.79 77.7317 67.659 75.7857 66.408 76.5287C60.372 80.1127 54.984 84.6617 48.948 88.2467C47.702 88.9867 48.833 90.9327 50.084 90.1897Z" fill="#0E131D"/>
<path d="M66.6788 78.3257C73.2848 82.5977 80.0108 86.6817 86.4898 91.1477C87.6878 91.9737 88.8118 90.0227 87.6258 89.2047C81.1468 84.7387 74.4208 80.6547 67.8148 76.3827C66.5928 75.5927 65.4658 77.5407 66.6788 78.3257Z" fill="#0E131D"/>
<path d="M86.5131 89.1128C79.9411 93.1828 73.2511 97.0568 66.6791 101.127C65.4481 101.889 66.5771 103.836 67.8151 103.07C74.3871 98.9998 81.0771 95.1258 87.6491 91.0558C88.8801 90.2938 87.7511 88.3468 86.5131 89.1128Z" fill="#0E131D"/>
<path d="M48.4904 90.2166C51.9934 92.1566 55.0274 94.7086 58.1624 97.1756C60.8854 99.3176 63.8904 101.025 66.6794 103.07C67.8514 103.93 68.9724 101.976 67.8154 101.127C64.5144 98.7056 61.0404 96.6246 57.8334 94.0606C55.2014 91.9566 52.5824 89.9106 49.6264 88.2736C48.3554 87.5706 47.2214 89.5146 48.4904 90.2166Z" fill="#0E131D"/>
<path d="M86.5131 135.106C79.9411 139.176 73.2511 143.051 66.6791 147.12C65.4481 147.882 66.5771 149.829 67.8151 149.063C74.3871 144.993 81.0771 141.119 87.6491 137.049C88.8801 136.287 87.7511 134.34 86.5131 135.106Z" fill="#0E131D"/>
<path d="M48.4904 136.211C51.9934 138.151 55.0274 140.703 58.1624 143.17C60.8854 145.312 63.8904 147.019 66.6794 149.064C67.8514 149.923 68.9724 147.97 67.8154 147.121C64.5144 144.7 61.0404 142.619 57.8334 140.055C55.2014 137.951 52.5824 135.905 49.6264 134.268C48.3554 133.565 47.2214 135.508 48.4904 136.211Z" fill="#0E131D"/>
<path d="M47.7032 89.7038C47.3722 104.845 47.3162 120.105 47.9152 135.239C47.9722 136.685 50.2222 136.69 50.1652 135.239C49.5662 120.105 49.6222 104.845 49.9532 89.7038C49.9852 88.2528 47.7352 88.2558 47.7032 89.7038Z" fill="#0E131D"/>
<path d="M66.0643 102.099C65.7463 117.27 66.2623 132.461 66.2763 147.634C66.2773 149.085 68.5273 149.085 68.5263 147.634C68.5123 132.461 67.9963 117.27 68.3143 102.099C68.3453 100.647 66.0953 100.65 66.0643 102.099Z" fill="#0E131D"/>
<path d="M85.8751 89.7038C85.5441 104.845 85.4881 120.105 86.0871 135.239C86.1441 136.685 88.3941 136.69 88.3371 135.239C87.7381 120.105 87.7941 104.845 88.1251 89.7038C88.1571 88.2528 85.9071 88.2558 85.8751 89.7038Z" fill="#0E131D"/>
<path d="M48.9741 98.6598C50.8881 97.2158 52.8021 95.7718 54.7171 94.3278C55.4791 93.7528 54.7331 92.4498 53.9601 93.0328C52.0461 94.4768 50.1321 95.9208 48.2171 97.3648C47.4551 97.9388 48.2011 99.2428 48.9741 98.6598Z" fill="#0E131D"/>
<path d="M47.937 103.157C50.729 100.647 53.756 98.4747 57.022 96.6237C57.863 96.1467 57.108 94.8507 56.265 95.3287C52.89 97.2417 49.761 99.5027 46.877 102.097C46.156 102.744 47.22 103.802 47.937 103.157Z" fill="#0E131D"/>
<path d="M48.7262 108.029C53.0362 105.058 57.3462 102.088 61.6562 99.1167C62.4472 98.5717 61.6982 97.2707 60.8992 97.8217C56.5892 100.793 52.2791 103.763 47.9691 106.734C47.1781 107.279 47.9272 108.579 48.7262 108.029Z" fill="#0E131D"/>
<path d="M48.8817 111.51C54.3947 108.159 59.9067 104.809 65.4197 101.458C66.2447 100.957 65.4917 99.6588 64.6627 100.163C59.1497 103.514 53.6367 106.864 48.1247 110.215C47.2997 110.716 48.0527 112.014 48.8817 111.51Z" fill="#0E131D"/>
<path d="M49.0448 116.701C54.7638 113.385 60.5778 110.248 66.4878 107.286C67.3528 106.853 66.5928 105.559 65.7308 105.991C59.8198 108.952 54.0068 112.09 48.2878 115.406C47.4518 115.89 48.2058 117.187 49.0448 116.701Z" fill="#0E131D"/>
<path d="M48.3927 122.975C54.3927 118.784 60.5568 114.854 66.8888 111.182C67.7248 110.697 66.9698 109.401 66.1318 109.887C59.7998 113.558 53.6368 117.488 47.6358 121.68C46.8488 122.229 47.5967 123.53 48.3927 122.975Z" fill="#0E131D"/>
<path d="M49.3983 127.406C55.4073 123.826 61.3373 120.119 67.1873 116.285C67.9923 115.757 67.2423 114.458 66.4303 114.99C60.5803 118.824 54.6504 122.531 48.6414 126.111C47.8114 126.606 48.5653 127.903 49.3983 127.406Z" fill="#0E131D"/>
<path d="M49.6402 133.043C55.5042 129.33 61.2952 125.508 67.0142 121.576C67.8062 121.032 67.0562 119.731 66.2572 120.281C60.5382 124.213 54.7472 128.035 48.8832 131.748C48.0682 132.263 48.8202 133.562 49.6402 133.043Z" fill="#0E131D"/>
<path d="M50.5928 136.713C55.9298 133.658 61.2668 130.603 66.6038 127.548C67.4428 127.068 66.6878 125.771 65.8468 126.253C60.5098 129.308 55.1728 132.363 49.8358 135.418C48.9958 135.898 49.7518 137.195 50.5928 136.713Z" fill="#0E131D"/>
<path d="M55.7908 140.776C59.5258 138.475 64.2378 136.434 67.1928 133.118C67.8338 132.398 66.7768 131.334 66.1318 132.057C64.7248 133.636 62.8888 134.641 61.1068 135.738C59.0818 136.985 57.0568 138.233 55.0328 139.48C54.2128 139.987 54.9648 141.285 55.7908 140.776Z" fill="#0E131D"/>
<path d="M61.1096 143.982C63.4456 143.039 65.6105 141.827 67.6075 140.289C68.3625 139.708 67.6165 138.403 66.8505 138.994C64.9645 140.447 62.9195 141.645 60.7105 142.536C59.8255 142.893 60.2116 144.344 61.1096 143.982Z" fill="#0E131D"/>
<path d="M97.2627 67.0428C103.299 63.4588 108.687 58.9098 114.723 55.3248C115.969 54.5848 114.838 52.6388 113.587 53.3818C107.551 56.9658 102.163 61.5148 96.1267 65.0998C94.8807 65.8398 96.0117 67.7858 97.2627 67.0428Z" fill="#0E131D"/>
<path d="M113.858 55.1787C120.464 59.4507 127.19 63.5347 133.669 68.0007C134.867 68.8267 135.991 66.8757 134.805 66.0577C128.326 61.5917 121.6 57.5077 114.994 53.2357C113.771 52.4457 112.645 54.3937 113.858 55.1787Z" fill="#0E131D"/>
<path d="M133.692 65.9658C127.12 70.0358 120.43 73.9098 113.858 77.9798C112.627 78.7418 113.756 80.6888 114.994 79.9228C121.566 75.8528 128.256 71.9788 134.828 67.9088C136.059 67.1468 134.93 65.1998 133.692 65.9658Z" fill="#0E131D"/>
<path d="M95.6692 67.0696C99.1722 69.0096 102.206 71.5616 105.341 74.0286C108.064 76.1706 111.069 77.8776 113.858 79.9226C115.03 80.7826 116.151 78.8286 114.994 77.9796C111.693 75.5586 108.219 73.4776 105.012 70.9136C102.38 68.8096 99.7611 66.7636 96.8051 65.1266C95.5341 64.4236 94.4002 66.3676 95.6692 67.0696Z" fill="#0E131D"/>
<path d="M133.692 135.106C127.12 139.176 120.43 143.051 113.858 147.12C112.627 147.882 113.756 149.829 114.994 149.063C121.566 144.993 128.256 141.119 134.828 137.049C136.059 136.287 134.93 134.34 133.692 135.106Z" fill="#0E131D"/>
<path d="M95.6692 136.211C99.1722 138.151 102.206 140.703 105.341 143.17C108.064 145.312 111.069 147.019 113.858 149.064C115.03 149.923 116.151 147.97 114.994 147.121C111.693 144.7 108.219 142.619 105.012 140.055C102.38 137.951 99.7611 135.905 96.8051 134.268C95.5341 133.565 94.4002 135.508 95.6692 136.211Z" fill="#0E131D"/>
<path d="M94.8821 66.5569C94.3811 89.3719 94.1921 112.434 95.0941 135.239C95.1511 136.685 97.4011 136.69 97.3441 135.239C96.4431 112.434 96.6321 89.3719 97.1321 66.5569C97.1641 65.1059 94.9141 65.1089 94.8821 66.5569Z" fill="#0E131D"/>
<path d="M113.243 78.9516C112.753 101.831 113.442 124.751 113.455 147.634C113.456 149.085 115.706 149.085 115.705 147.634C115.693 124.751 115.003 101.831 115.493 78.9516C115.524 77.4996 113.274 77.5026 113.243 78.9516Z" fill="#0E131D"/>
<path d="M133.054 66.5569C132.553 89.3719 132.364 112.434 133.266 135.239C133.323 136.685 135.573 136.69 135.516 135.239C134.615 112.434 134.804 89.3719 135.304 66.5569C135.336 65.1059 133.086 65.1089 133.054 66.5569Z" fill="#0E131D"/>
<path d="M96.9873 76.2816C98.9013 74.8376 100.815 73.3936 102.73 71.9496C103.492 71.3746 102.746 70.0716 101.973 70.6546C100.059 72.0986 98.1453 73.5426 96.2303 74.9866C95.4673 75.5606 96.2143 76.8646 96.9873 76.2816Z" fill="#0E131D"/>
<path d="M95.9497 80.7788C98.7417 78.2688 101.769 76.0968 105.035 74.2458C105.876 73.7688 105.121 72.4728 104.278 72.9508C100.903 74.8638 97.7737 77.1248 94.8897 79.7188C94.1687 80.3658 95.2327 81.4238 95.9497 80.7788Z" fill="#0E131D"/>
<path d="M96.7389 85.6498C101.049 82.6798 105.359 79.7088 109.669 76.7378C110.46 76.1928 109.711 74.8918 108.912 75.4428C104.602 78.4138 100.292 81.3838 95.9818 84.3548C95.1908 84.8998 95.9399 86.2008 96.7389 85.6498Z" fill="#0E131D"/>
<path d="M96.8954 89.1318C102.408 85.7808 107.921 82.4308 113.433 79.0798C114.258 78.5788 113.505 77.2808 112.676 77.7848C107.163 81.1358 101.65 84.4858 96.1384 87.8368C95.3134 88.3378 96.0664 89.6358 96.8954 89.1318Z" fill="#0E131D"/>
<path d="M97.0585 94.3227C102.777 91.0067 108.591 87.8697 114.501 84.9077C115.366 84.4747 114.606 83.1807 113.744 83.6127C107.833 86.5737 102.02 89.7117 96.3014 93.0277C95.4654 93.5117 96.2195 94.8087 97.0585 94.3227Z" fill="#0E131D"/>
<path d="M96.4064 100.596C102.406 96.4049 108.57 92.4749 114.902 88.8029C115.738 88.3179 114.983 87.0219 114.145 87.5079C107.813 91.1789 101.65 95.1089 95.6494 99.3009C94.8624 99.8509 95.6104 101.152 96.4064 100.596Z" fill="#0E131D"/>
<path d="M97.411 105.028C103.42 101.448 109.35 97.7408 115.2 93.9068C116.005 93.3788 115.255 92.0798 114.443 92.6118C108.593 96.4458 102.663 100.153 96.6541 103.733C95.8241 104.227 96.578 105.525 97.411 105.028Z" fill="#0E131D"/>
<path d="M96.1596 111.993C102.572 107.913 108.774 103.515 115.026 99.1966C115.816 98.6506 115.067 97.3506 114.269 97.9016C108.016 102.22 101.815 106.617 95.4026 110.698C94.5896 111.216 95.3406 112.514 96.1596 111.993Z" fill="#0E131D"/>
<path d="M96.1597 117.91C102.607 114.101 108.169 108.979 114.616 105.17C115.448 104.678 114.694 103.382 113.859 103.875C107.412 107.684 101.85 112.806 95.4017 116.615C94.5707 117.107 95.3247 118.404 96.1597 117.91Z" fill="#0E131D"/>
<path d="M96.7389 122.975C99.7009 121.14 102.634 119.258 105.576 117.391C108.792 115.351 112.572 113.517 115.207 110.74C115.872 110.039 114.814 108.977 114.146 109.679C111.636 112.323 107.895 114.145 104.818 116.095C101.875 117.961 98.9429 119.844 95.9809 121.679C95.1609 122.188 95.9139 123.486 96.7389 122.975Z" fill="#0E131D"/>
<path d="M96.8072 128.604C103.192 125.912 110.063 122.05 115.621 117.911C116.387 117.34 115.641 116.037 114.864 116.616C109.422 120.669 102.66 124.522 96.4082 127.158C95.5312 127.527 95.9162 128.979 96.8072 128.604Z" fill="#0E131D"/>
<path d="M96.1597 71.6937C97.2037 71.0247 98.2478 70.3557 99.2918 69.6867C100.103 69.1667 99.3517 67.8677 98.5347 68.3917C97.4907 69.0607 96.4468 69.7297 95.4028 70.3987C94.5908 70.9187 95.3427 72.2177 96.1597 71.6937Z" fill="#0E131D"/>
<path d="M97.1385 133.368C102.786 130.351 108.436 127.334 114.084 124.317C114.937 123.861 114.18 122.566 113.327 123.022C107.679 126.039 102.03 129.056 96.3815 132.073C95.5275 132.529 96.2855 133.824 97.1385 133.368Z" fill="#0E131D"/>
<path d="M99.2121 137.504C104.339 134.324 109.538 131.268 114.81 128.334C115.655 127.864 114.899 126.568 114.053 127.039C108.781 129.973 103.582 133.029 98.4552 136.209C97.6342 136.717 98.3871 138.015 99.2121 137.504Z" fill="#0E131D"/>
<path d="M104.177 141.115C107.691 139.685 110.976 137.88 114.042 135.643C114.815 135.079 114.068 133.777 113.285 134.348C110.331 136.503 107.167 138.29 103.778 139.669C102.895 140.028 103.281 141.479 104.177 141.115Z" fill="#0E131D"/>
<path d="M109.395 143.91C111.176 142.701 112.937 141.457 114.813 140.397C115.655 139.921 114.898 138.625 114.055 139.102C112.179 140.162 110.418 141.406 108.637 142.615C107.842 143.155 108.593 144.455 109.395 143.91Z" fill="#0E131D"/>
<path d="M144.442 37.7178C150.478 34.1338 155.866 29.5848 161.902 25.9998C163.148 25.2598 162.017 23.3138 160.766 24.0568C154.73 27.6408 149.342 32.1898 143.306 35.7748C142.06 36.5148 143.191 38.4608 144.442 37.7178Z" fill="#0E131D"/>
<path d="M161.037 25.8538C167.643 30.1258 174.369 34.2098 180.848 38.6758C182.046 39.5018 183.17 37.5508 181.984 36.7328C175.505 32.2668 168.779 28.1828 162.173 23.9108C160.95 23.1208 159.824 25.0688 161.037 25.8538Z" fill="#0E131D"/>
<path d="M180.871 36.6409C174.299 40.7109 167.609 44.5849 161.037 48.6549C159.806 49.4169 160.935 51.3639 162.173 50.5979C168.745 46.5279 175.435 42.6539 182.007 38.5839C183.238 37.8219 182.109 35.8749 180.871 36.6409Z" fill="#0E131D"/>
<path d="M142.848 37.7458C146.351 39.6858 149.385 42.2378 152.52 44.7048C155.243 46.8468 158.248 48.5538 161.037 50.5988C162.209 51.4578 163.33 49.5048 162.173 48.6558C158.872 46.2348 155.398 44.1538 152.191 41.5898C149.559 39.4858 146.94 37.4398 143.984 35.8028C142.713 35.0988 141.578 37.0428 142.848 37.7458Z" fill="#0E131D"/>
<path d="M180.871 135.106C174.299 139.176 167.609 143.051 161.037 147.12C159.806 147.882 160.935 149.829 162.173 149.063C168.745 144.993 175.435 141.119 182.007 137.049C183.238 136.287 182.109 134.34 180.871 135.106Z" fill="#0E131D"/>
<path d="M142.848 136.211C146.351 138.151 149.385 140.703 152.52 143.17C155.243 145.312 158.248 147.019 161.037 149.064C162.209 149.923 163.33 147.97 162.173 147.121C158.872 144.7 155.398 142.619 152.191 140.055C149.559 137.951 146.94 135.905 143.984 134.268C142.713 133.565 141.578 135.508 142.848 136.211Z" fill="#0E131D"/>
<path d="M142.061 37.2328C141.706 53.3758 141.955 69.5498 141.979 85.6948C142.003 102.185 141.622 118.759 142.273 135.24C142.33 136.686 144.58 136.691 144.523 135.24C143.886 119.12 144.257 102.91 144.231 86.7818C144.204 70.2748 143.949 53.7378 144.312 37.2338C144.343 35.7808 142.093 35.7838 142.061 37.2328Z" fill="#0E131D"/>
<path d="M160.422 49.6267C159.715 82.2707 160.624 114.982 160.635 147.634C160.635 149.085 162.885 149.085 162.885 147.634C162.874 114.983 161.965 82.2717 162.672 49.6267C162.704 48.1747 160.454 48.1777 160.422 49.6267Z" fill="#0E131D"/>
<path d="M180.233 37.2328C179.878 53.3758 180.127 69.5498 180.151 85.6948C180.175 102.185 179.794 118.759 180.445 135.24C180.502 136.686 182.752 136.691 182.695 135.24C182.058 119.12 182.429 102.91 182.402 86.7818C182.375 70.2748 182.12 53.7378 182.483 37.2338C182.515 35.7808 180.265 35.7838 180.233 37.2328Z" fill="#0E131D"/>
<path d="M144.259 46.9318C146.173 45.4878 148.087 44.0438 150.002 42.5998C150.764 42.0248 150.018 40.7218 149.245 41.3048C147.331 42.7488 145.417 44.1928 143.502 45.6368C142.74 46.2118 143.486 47.5148 144.259 46.9318Z" fill="#0E131D"/>
<path d="M143.222 51.4287C146.014 48.9187 149.042 46.7467 152.307 44.8957C153.148 44.4187 152.393 43.1227 151.55 43.6007C148.175 45.5137 145.046 47.7747 142.162 50.3687C141.441 51.0167 142.505 52.0737 143.222 51.4287Z" fill="#0E131D"/>
<path d="M144.011 56.3007C148.321 53.3307 152.631 50.3597 156.941 47.3887C157.732 46.8437 156.983 45.5427 156.184 46.0937C151.874 49.0647 147.564 52.0347 143.254 55.0057C142.463 55.5507 143.212 56.8507 144.011 56.3007Z" fill="#0E131D"/>
<path d="M144.167 59.7817C149.68 56.4307 155.192 53.0807 160.705 49.7297C161.53 49.2287 160.777 47.9307 159.948 48.4347C154.435 51.7857 148.923 55.1358 143.41 58.4868C142.585 58.9878 143.338 60.2857 144.167 59.7817Z" fill="#0E131D"/>
<path d="M144.331 64.9728C150.05 61.6568 155.864 58.5198 161.774 55.5578C162.639 55.1248 161.879 53.8308 161.017 54.2628C155.106 57.2238 149.293 60.3618 143.574 63.6778C142.738 64.1628 143.493 65.4588 144.331 64.9728Z" fill="#0E131D"/>
<path d="M143.679 71.2467C149.679 67.0557 155.843 63.1257 162.175 59.4537C163.011 58.9687 162.256 57.6727 161.418 58.1587C155.086 61.8297 148.923 65.7597 142.922 69.9517C142.135 70.5007 142.884 71.8017 143.679 71.2467Z" fill="#0E131D"/>
<path d="M144.685 75.6787C150.694 72.0987 156.624 68.3917 162.474 64.5577C163.279 64.0297 162.528 62.7307 161.716 63.2627C155.866 67.0967 149.936 70.8037 143.927 74.3837C143.097 74.8777 143.852 76.1747 144.685 75.6787Z" fill="#0E131D"/>
<path d="M143.433 82.6439C149.845 78.5629 156.047 74.1659 162.3 69.8479C163.09 69.3019 162.341 68.0009 161.543 68.5529C155.29 72.8709 149.089 77.2679 142.677 81.3489C141.863 81.8659 142.614 83.1649 143.433 82.6439Z" fill="#0E131D"/>
<path d="M143.433 88.5609C149.88 84.7519 155.442 79.6299 161.89 75.8209C162.722 75.3299 161.968 74.0329 161.133 74.5259C154.686 78.3349 149.123 83.4569 142.676 87.2659C141.843 87.7569 142.598 89.0539 143.433 88.5609Z" fill="#0E131D"/>
<path d="M144.011 93.6247C146.973 91.7897 149.906 89.9077 152.848 88.0407C156.064 86.0007 159.844 84.1667 162.479 81.3897C163.144 80.6887 162.085 79.6267 161.418 80.3287C158.908 82.9727 155.167 84.7947 152.091 86.7447C149.148 88.6107 146.216 90.4937 143.254 92.3287C142.433 92.8377 143.186 94.1357 144.011 93.6247Z" fill="#0E131D"/>
<path d="M144.081 99.2537C150.466 96.5617 157.337 92.6997 162.895 88.5607C163.661 87.9897 162.915 86.6867 162.138 87.2657C156.695 91.3187 149.934 95.1717 143.682 97.8077C142.805 98.1767 143.19 99.6297 144.081 99.2537Z" fill="#0E131D"/>
<path d="M143.432 42.3439C144.476 41.6749 145.52 41.0059 146.564 40.3369C147.375 39.8169 146.624 38.5179 145.807 39.0419C144.763 39.7109 143.719 40.3799 142.675 41.0489C141.864 41.5689 142.615 42.8679 143.432 42.3439Z" fill="#0E131D"/>
<path d="M144.411 104.018C150.059 101.001 155.708 97.9837 161.356 94.9667C162.209 94.5107 161.452 93.2157 160.599 93.6717C154.951 96.6887 149.302 99.7057 143.654 102.723C142.801 103.179 143.558 104.474 144.411 104.018Z" fill="#0E131D"/>
<path d="M143.794 109.564C149.807 105.894 155.902 102.368 162.082 98.9838C162.931 98.5188 162.174 97.2238 161.325 97.6888C155.146 101.073 149.051 104.599 143.037 108.269C142.213 108.772 142.966 110.069 143.794 109.564Z" fill="#0E131D"/>
<path d="M143.465 114.675C149.52 111.485 155.442 108.07 161.236 104.427C162.052 103.914 161.3 102.615 160.479 103.132C154.685 106.775 148.764 110.19 142.708 113.38C141.852 113.831 142.61 115.125 143.465 114.675Z" fill="#0E131D"/>
<path d="M143.543 120.818C149.335 117.24 155.183 113.755 161.086 110.363C161.924 109.881 161.169 108.585 160.329 109.068C154.426 112.46 148.578 115.945 142.786 119.523C141.965 120.03 142.717 121.328 143.543 120.818Z" fill="#0E131D"/>
<path d="M143.93 125.357C150.28 122.21 156.353 118.613 162.164 114.556C162.951 114.007 162.202 112.706 161.407 113.261C155.596 117.318 149.523 120.915 143.174 124.062C142.306 124.491 143.066 125.785 143.93 125.357Z" fill="#0E131D"/>
<path d="M142.975 131.281C148.954 126.953 155.167 123.006 161.625 119.432C162.471 118.964 161.715 117.668 160.868 118.137C154.41 121.711 148.197 125.659 142.218 129.986C141.442 130.547 142.189 131.85 142.975 131.281Z" fill="#0E131D"/>
<path d="M145.088 136.788C151.06 134.372 156.638 131.293 161.84 127.492C162.612 126.927 161.865 125.625 161.083 126.197C155.991 129.918 150.537 132.977 144.689 135.342C143.805 135.699 144.191 137.151 145.088 136.788Z" fill="#0E131D"/>
<path d="M149.282 139.453C153.284 137.209 157.307 135.004 161.35 132.836C162.203 132.379 161.445 131.084 160.593 131.541C156.549 133.708 152.527 135.914 148.525 138.158C147.682 138.63 148.438 139.926 149.282 139.453Z" fill="#0E131D"/>
<path d="M152.935 142.336C156.002 141.406 158.639 139.36 161.304 137.643C162.114 137.121 161.363 135.822 160.547 136.348C158.007 137.984 155.457 140.004 152.537 140.889C151.614 141.169 152.007 142.617 152.935 142.336Z" fill="#0E131D"/>
<path d="M157.561 145.573C159.026 144.834 160.382 143.941 161.659 142.913C162.413 142.306 161.344 141.252 160.598 141.852C159.423 142.797 158.149 143.598 156.803 144.277C155.94 144.714 156.699 146.007 157.561 145.573Z" fill="#0E131D"/>
<path d="M17.7706 77.8409C19.0676 77.7859 20.3296 77.6379 21.6126 77.4429C22.2196 77.3509 22.5466 76.5969 22.3986 76.0589C22.2216 75.4159 21.6206 75.1809 21.0146 75.2729C19.9306 75.4369 18.8666 75.5439 17.7706 75.5899C16.3256 75.6529 16.3196 77.9029 17.7706 77.8409Z" fill="#0E131D"/>
<path d="M20.4004 76.4267C20.4244 81.0697 20.2934 85.7057 20.0084 90.3407C19.9194 91.7907 22.1694 91.7817 22.2584 90.3407C22.5444 85.7057 22.6744 81.0697 22.6504 76.4267C22.6424 74.9767 20.3924 74.9757 20.4004 76.4267Z" fill="#0E131D"/>
<path d="M21.3086 91.6738C21.8576 91.6718 22.4076 91.6698 22.9566 91.6678C22.5946 91.3928 22.2336 91.1168 21.8716 90.8418C22.0526 91.5868 22.0756 92.3247 21.9856 93.0847C21.9136 93.6947 22.5516 94.2097 23.1106 94.2097C23.7786 94.2097 24.1636 93.6937 24.2356 93.0847C24.3476 92.1307 24.2686 91.1758 24.0416 90.2428C23.9246 89.7598 23.4456 89.4148 22.9566 89.4168C22.4076 89.4188 21.8576 89.4208 21.3086 89.4228C19.8586 89.4288 19.8576 91.6788 21.3086 91.6738Z" fill="#0E131D"/>
<path d="M22.934 92.5218C20.242 92.4568 17.55 92.3918 14.858 92.3278C13.406 92.2928 13.41 94.5428 14.858 94.5778C17.55 94.6428 20.242 94.7068 22.934 94.7718C24.385 94.8068 24.382 92.5568 22.934 92.5218Z" fill="#0E131D"/>
<path d="M15.8973 93.444C15.8773 92.564 15.8573 91.683 15.8363 90.803C15.8033 89.354 13.5533 89.351 13.5863 90.803C13.6063 91.683 13.6273 92.564 13.6473 93.444C13.6803 94.893 15.9303 94.896 15.8973 93.444Z" fill="#0E131D"/>
<path d="M14.7054 91.8259C15.3154 91.8259 15.9244 91.8259 16.5344 91.8259C17.9854 91.8259 17.9854 89.5759 16.5344 89.5759C15.9244 89.5759 15.3154 89.5759 14.7054 89.5759C13.2544 89.5769 13.2544 91.8259 14.7054 91.8259Z" fill="#0E131D"/>
<path d="M17.7376 90.6999C17.5796 87.5199 17.6966 84.3539 18.1426 81.1989C18.3436 79.7809 16.1756 79.1689 15.9726 80.6009C15.4976 83.9599 15.3185 87.3099 15.4865 90.6999C15.5595 92.1439 17.8096 92.1509 17.7376 90.6999Z" fill="#0E131D"/>
<path d="M17.0412 79.6839C16.3472 79.6619 15.6532 79.6399 14.9592 79.6189C13.5072 79.5729 13.5122 81.8229 14.9592 81.8689C15.6532 81.8909 16.3472 81.9129 17.0412 81.9339C18.4932 81.9799 18.4882 79.7299 17.0412 79.6839Z" fill="#0E131D"/>
<path d="M15.7921 81.3018C16.2171 80.6168 16.8751 80.0408 17.3621 79.3908C17.8681 78.7168 18.326 78.0178 18.741 77.2838C19.457 76.0198 17.5131 74.8858 16.7981 76.1478C16.3851 76.8768 15.9371 77.5858 15.4231 78.2478C14.9161 78.9008 14.2851 79.4618 13.8481 80.1658C13.0821 81.4028 15.0301 82.5318 15.7921 81.3018Z" fill="#0E131D"/>
<path d="M63.1359 60.1066C63.0659 58.7806 63.1029 57.4626 63.2459 56.1426C63.3119 55.5316 62.6839 55.0176 62.1209 55.0176C61.4579 55.0176 61.0619 55.5326 60.9959 56.1426C60.8529 57.4626 60.8159 58.7806 60.8859 60.1066C60.9619 61.5496 63.2119 61.5576 63.1359 60.1066Z" fill="#0E131D"/>
<path d="M62.503 57.1447C65.596 56.4027 69.741 55.7877 70.976 59.5757C72.368 63.8447 69.206 66.4387 65.468 67.3957C64.063 67.7557 64.659 69.9257 66.066 69.5657C70.912 68.3247 74.369 65.0857 73.299 59.7487C72.151 54.0197 66.683 53.8287 61.904 54.9757C60.494 55.3137 61.093 57.4827 62.503 57.1447Z" fill="#0E131D"/>
<path d="M65.45 70.0727C67.885 70.0327 70.306 70.1257 72.732 70.3507C72.357 69.9757 71.982 69.6007 71.607 69.2257C71.672 69.9477 71.863 70.9147 71.655 71.6297C71.917 71.3677 72.179 71.1057 72.441 70.8437C71.017 71.3667 68.602 70.7477 67.082 70.7687C65.349 70.7917 63.627 71.0027 61.916 71.2587C60.485 71.4727 61.095 73.6407 62.514 73.4287C65.896 72.9227 69.159 73.2797 72.535 73.1297C74.45 73.0447 73.969 70.4737 73.857 69.2267C73.798 68.5707 73.387 68.1627 72.732 68.1017C70.307 67.8767 67.886 67.7837 65.45 67.8237C64.001 67.8467 63.998 70.0967 65.45 70.0727Z" fill="#0E131D"/>
<path d="M63.2305 72.1966C63.1725 70.3566 63.2605 68.5436 63.4495 66.7136C63.5985 65.2706 61.3465 65.2856 61.1995 66.7136C61.0105 68.5436 60.9225 70.3576 60.9805 72.1966C61.0255 73.6446 63.2755 73.6486 63.2305 72.1966Z" fill="#0E131D"/>
<path d="M62.619 61.1777C63.473 60.9137 64.286 60.6777 65.189 60.6947C66.596 60.7217 66.93 62.1557 66.415 63.2117C65.632 64.8177 63.4 65.2167 61.848 65.5727C60.434 65.8967 61.034 68.0657 62.446 67.7427C65.46 67.0517 68.709 65.7377 68.928 62.2027C69.015 60.8017 68.126 59.5757 66.971 58.9067C65.465 58.0337 63.555 58.5337 62.02 59.0087C60.639 59.4367 61.229 61.6087 62.619 61.1777Z" fill="#0E131D"/>
<path d="M109.566 32.4168C111.469 31.4508 114.356 30.9718 116.078 32.4948C117.857 34.0688 117.094 36.6228 115.547 37.9928C114.458 38.9558 116.056 40.5418 117.138 39.5838C119.479 37.5118 120.254 33.7508 118.007 31.2758C115.565 28.5868 111.441 28.9458 108.431 30.4738C107.136 31.1308 108.275 33.0708 109.566 32.4168Z" fill="#0E131D"/>
<path d="M116.023 40.0069C120.218 40.8419 119.016 44.6369 116.942 46.9109C114.896 49.1539 110.77 47.3839 109.506 45.2249C108.773 43.9739 106.828 45.1059 107.563 46.3609C109.887 50.3299 115.809 51.4879 119.007 47.9829C122.167 44.5199 121.886 38.8859 116.622 37.8379C115.204 37.5549 114.6 39.7229 116.023 40.0069Z" fill="#0E131D"/>
<path d="M109.527 46.3308C110.151 45.1548 110.776 43.9788 111.401 42.8028C110.716 42.7128 110.03 42.6238 109.345 42.5338C109.963 44.0488 110.947 45.5158 112.528 46.1508C113.975 46.7318 115.735 46.5678 116.718 45.2248C119.162 41.8878 114.277 39.5038 111.546 39.5878C110.099 39.6328 110.094 41.8828 111.546 41.8378C112.257 41.8158 115.664 42.2418 115.021 43.7538C114.642 44.6458 113.492 44.1498 112.964 43.8468C112.288 43.4588 111.8 42.6348 111.515 41.9348C111.177 41.1068 109.963 40.7158 109.459 41.6658C108.834 42.8418 108.21 44.0178 107.585 45.1938C106.904 46.4758 108.847 47.6128 109.527 46.3308Z" fill="#0E131D"/>
<path d="M112.588 40.7018C112.49 39.5988 112.297 38.5158 111.976 37.4558C111.556 36.0718 109.384 36.6618 109.806 38.0538C110.069 38.9198 110.258 39.7998 110.338 40.7018C110.392 41.3128 110.808 41.8268 111.463 41.8268C112.035 41.8268 112.642 41.3128 112.588 40.7018Z" fill="#0E131D"/>
<path d="M110.89 38.8248C112.159 38.6838 113.275 38.4058 114.266 37.5628C115.164 36.7988 115.482 35.4518 115.083 34.3628C114.631 33.1308 113.451 32.7298 112.256 32.5938C110.968 32.4478 110.019 32.9138 109.128 33.8138C108.107 34.8458 109.697 36.4378 110.719 35.4048C111.06 35.0598 111.286 34.8148 111.788 34.8138C112.108 34.8138 112.855 34.8028 112.992 35.1758C113.357 36.1718 111.46 36.5108 110.89 36.5738C110.281 36.6418 109.765 37.0348 109.765 37.6988C109.765 38.2618 110.279 38.8928 110.89 38.8248Z" fill="#0E131D"/>
<path d="M110.984 34.3469C110.783 33.8049 110.555 33.2749 110.293 32.7599C110.065 32.3119 109.76 31.9119 109.648 31.4179C109.326 30.0039 107.156 30.6029 107.478 32.0159C107.716 33.0609 108.442 33.9429 108.814 34.9449C109.027 35.5189 109.568 35.9039 110.198 35.7309C110.75 35.5789 111.197 34.9219 110.984 34.3469Z" fill="#0E131D"/>
<path d="M153.507 9.72668C153.507 10.5847 153.507 11.4427 153.507 12.3007C153.507 13.7517 155.757 13.7517 155.757 12.3007C155.757 11.4427 155.757 10.5847 155.757 9.72668C155.757 8.27568 153.507 8.27568 153.507 9.72668Z" fill="#0E131D"/>
<path d="M158.095 2.06572C157.49 3.27772 156.828 4.45172 156.104 5.59672C155.36 6.77372 154.315 7.83472 153.719 9.08872C153.1 10.3917 155.04 11.5347 155.662 10.2247C156.186 9.12072 157.087 8.17072 157.77 7.15672C158.62 5.89472 159.359 4.56172 160.038 3.20072C160.683 1.90672 158.743 0.767718 158.095 2.06572Z" fill="#0E131D"/>
<path d="M154.632 13.5608C157.093 13.5608 159.554 13.5608 162.014 13.5608C163.465 13.5608 163.465 11.3108 162.014 11.3108C159.553 11.3108 157.092 11.3108 154.632 11.3108C153.181 11.3108 153.181 13.5608 154.632 13.5608Z" fill="#0E131D"/>
<path d="M160.96 12.4359C160.924 14.8449 160.995 17.2419 161.126 19.6469C161.204 21.0899 163.455 21.0979 163.376 19.6469C163.245 17.2419 163.174 14.8449 163.21 12.4359C163.232 10.9839 160.982 10.9859 160.96 12.4359Z" fill="#0E131D"/>
<path d="M162.218 20.9087C163.144 20.9087 164.069 20.9087 164.995 20.9087C166.446 20.9087 166.446 18.6587 164.995 18.6587C164.069 18.6587 163.144 18.6587 162.218 18.6587C160.767 18.6587 160.767 20.9087 162.218 20.9087Z" fill="#0E131D"/>
<path d="M165.13 20.9087C165.356 20.9087 165.582 20.9087 165.807 20.9087C167.258 20.9087 167.258 18.6587 165.807 18.6587C165.581 18.6587 165.355 18.6587 165.13 18.6587C163.679 18.6587 163.679 20.9087 165.13 20.9087Z" fill="#0E131D"/>
<path d="M166.961 19.7839C167.019 13.9029 167.088 8.02185 167.146 2.14085C167.16 0.689854 164.91 0.690853 164.896 2.14085C164.838 8.02185 164.769 13.9029 164.711 19.7839C164.697 21.2349 166.947 21.2339 166.961 19.7839Z" fill="#0E131D"/>
<path d="M166.01 0.873794C164.753 0.924794 163.472 0.922793 162.217 0.812793C160.771 0.685793 160.783 2.93679 162.217 3.06279C163.471 3.17279 164.752 3.17479 166.01 3.12379C167.456 3.06579 167.462 0.815794 166.01 0.873794Z" fill="#0E131D"/>
<path d="M161.093 1.93786C161.093 4.17286 161.093 6.40786 161.093 8.64286C161.093 10.0939 163.343 10.0939 163.343 8.64286C163.343 6.40786 163.343 4.17286 163.343 1.93786C163.343 0.486859 161.093 0.486859 161.093 1.93786Z" fill="#0E131D"/>
<path d="M162.218 7.65283C161.193 7.65283 160.167 7.65283 159.142 7.65283C157.691 7.65283 157.691 9.90283 159.142 9.90283C159.149 9.90283 159.156 9.90283 159.163 9.90283C160.614 9.90283 160.614 7.65283 159.163 7.65283C159.156 7.65283 159.149 7.65283 159.142 7.65283C157.691 7.65283 157.691 9.90283 159.142 9.90283C160.167 9.90283 161.193 9.90283 162.218 9.90283C163.669 9.90283 163.669 7.65283 162.218 7.65283Z" fill="#0E131D"/>
<path d="M159.068 3.21484C159.932 3.21484 160.795 3.21484 161.659 3.21484C163.11 3.21484 163.11 0.964844 161.659 0.964844C160.795 0.964844 159.932 0.964844 159.068 0.964844C157.618 0.964844 157.618 3.21484 159.068 3.21484Z" fill="#0E131D"/>
<path d="M159.935 9.69877C161.032 8.34377 162.052 6.93477 162.981 5.45877C163.756 4.22677 161.809 3.09877 161.038 4.32277C160.212 5.63577 159.319 6.90077 158.344 8.10677C157.44 9.22477 159.022 10.8278 159.935 9.69877Z" fill="#0E131D"/>
</svg>
