<svg width="233" height="114" viewBox="0 0 233 114" fill="none" xmlns="http://www.w3.org/2000/svg">
<mask id="mask0_894_7652" style="mask-type:luminance" maskUnits="userSpaceOnUse" x="2" y="0" width="230" height="79">
<path d="M79.6632 12.7883C79.6632 12.7883 68.7512 13.7889 66.2122 11.8919C63.6733 9.99479 60.0296 0.536673 51.5426 0.640411C43.0546 0.74415 11.2144 6.94216 6.8532 12.231C2.49304 17.5199 0.647949 20.3358 7.16775 26.743C13.6876 33.1512 27.4346 32.4207 29.9966 32.9638C32.5585 33.5068 55.0933 42.8705 57.2722 44.9656C59.4511 47.0607 74.501 51.4161 113.712 61.8783C152.922 72.3405 170.509 76.5291 183.872 78.0635C197.235 79.5979 212.505 75.0064 218.44 72.0836C224.375 69.1607 230.954 63.1809 231.375 55.412C231.796 47.644 228.681 42.6139 219.521 37.4196C210.362 32.2263 201.231 35.306 191.056 32.2937C180.881 29.2814 167.087 21.777 149.981 18.7224C132.875 15.6689 107.912 13.3892 79.6632 12.7883Z" fill="white"/>
</mask>
<g mask="url(#mask0_894_7652)">
<path d="M209.803 2.32237C207.75 0.324305 205.816 -1.73875 203.983 -3.86281C207.007 -6.58272 209.945 -9.42662 212.787 -12.3985C214.766 -10.3475 216.843 -8.36241 219.036 -6.44834C216.051 -3.39443 212.97 -0.473533 209.803 2.32237Z" fill="white"/>
<path d="M223.842 13.4987C221.201 11.7766 218.72 9.98257 216.381 8.1185C219.686 5.2366 222.905 2.22469 226.029 -0.921211C228.504 0.847865 231.117 2.54094 233.886 4.15603C230.632 7.40593 227.28 10.5188 223.842 13.4987Z" fill="white"/>
<path d="M194.531 3.93585C192.855 1.74479 191.28 -0.500257 189.785 -2.7953C192.866 -5.21721 195.872 -7.75311 198.794 -10.409C200.437 -8.16997 202.161 -5.98692 203.984 -3.86286C200.912 -1.14195 197.758 1.45495 194.531 3.93585Z" fill="white"/>
<path d="M206.071 16.3873C203.883 14.4343 201.837 12.4162 199.915 10.3401C203.287 7.78825 206.585 5.11835 209.803 2.32245C211.868 4.32051 214.055 6.25458 216.381 8.11866C213.023 11.0006 209.582 13.7544 206.071 16.3873Z" fill="white"/>
<path d="M221.209 27.3097C218.339 25.6276 215.651 23.8735 213.127 22.0514C216.773 19.3275 220.348 16.4786 223.843 13.4987C226.499 15.2198 229.316 16.8689 232.311 18.44C228.688 21.5299 224.983 24.4838 221.209 27.3097Z" fill="white"/>
<path d="M240.912 36.5223C237.208 35.1372 233.72 33.6751 230.433 32.139C234.328 29.2011 238.154 26.1312 241.898 22.9224C245.301 24.3375 248.899 25.6736 252.707 26.9277C248.854 30.2676 244.918 33.4625 240.912 36.5223Z" fill="white"/>
<path d="M180.212 4.14051C178.873 1.79447 177.615 -0.596574 176.419 -3.02661C179.531 -5.18652 182.576 -7.44942 185.548 -9.82333C186.893 -7.43429 188.299 -5.09024 189.785 -2.7952C186.663 -0.372293 183.47 1.93661 180.212 4.14051Z" fill="white"/>
<path d="M189.469 17.6488C187.701 15.4987 186.057 13.2957 184.517 11.0426C187.919 8.78374 191.26 6.41885 194.531 3.93695C196.216 6.12801 198.004 8.26405 199.915 10.3411C196.497 12.892 193.013 15.3249 189.469 17.6488Z" fill="white"/>
<path d="M201.848 29.8602C199.473 27.9451 197.264 25.967 195.202 23.93C198.885 21.5311 202.511 19.0202 206.07 16.3873C208.272 18.3404 210.617 20.2304 213.126 22.0525C209.429 24.7764 205.666 27.3763 201.848 29.8602Z" fill="white"/>
<path d="M218.39 40.5695C215.241 38.9194 212.294 37.2003 209.536 35.4142C213.484 32.8343 217.377 30.1364 221.207 27.3096C224.093 28.9917 227.163 30.6027 230.433 32.1388C226.479 35.0777 222.46 37.8846 218.39 40.5695Z" fill="white"/>
<path d="M240.039 49.6112C235.97 48.2501 232.135 46.815 228.523 45.3068C232.708 42.508 236.841 39.5831 240.911 36.5222C244.633 37.9073 248.573 39.2155 252.741 40.4446C248.567 43.6364 244.329 46.6893 240.039 49.6112Z" fill="white"/>
<path d="M166.792 3.15393C165.745 0.687899 164.76 -1.81212 163.817 -4.34015C166.944 -6.27405 170.011 -8.29996 173.01 -10.4259C174.099 -7.92383 175.228 -5.4558 176.419 -3.02577C173.272 -0.866862 170.061 1.19103 166.792 3.15393Z" fill="white"/>
<path d="M174.029 17.5051C172.639 15.1951 171.354 12.8401 170.152 10.447C173.561 8.44413 176.916 6.34522 180.211 4.14032C181.557 6.48637 182.986 8.7894 184.517 11.0425C181.077 13.3003 177.578 15.4512 174.029 17.5051Z" fill="white"/>
<path d="M183.873 30.7976C181.961 28.6835 180.195 26.5155 178.557 24.2984C182.244 22.1856 185.885 19.9717 189.47 17.6488C191.249 19.7978 193.152 21.8939 195.202 23.93C191.476 26.3288 187.697 28.6147 183.873 30.7976Z" fill="white"/>
<path d="M197.411 42.8071C194.796 40.924 192.37 38.9789 190.114 36.9759C194.07 34.713 197.984 32.3451 201.848 29.8602C204.238 31.7753 206.794 33.6284 209.536 35.4145C205.539 37.9943 201.495 40.4542 197.411 42.8071Z" fill="white"/>
<path d="M215.674 53.3376C212.193 51.7145 208.937 50.0234 205.891 48.2673C210.097 45.8175 214.267 43.2546 218.391 40.5697C221.559 42.2198 224.93 43.7999 228.524 45.308C224.281 48.1069 219.994 50.7798 215.674 53.3376Z" fill="white"/>
<path d="M239.568 62.2435C235.086 60.9003 230.856 59.4862 226.868 58.0011C231.294 55.3272 235.689 52.5344 240.039 49.6115C244.129 50.9726 248.454 52.2588 253.027 53.4699C248.579 56.5258 244.089 59.4466 239.568 62.2435Z" fill="white"/>
<path d="M154.173 1.19656C153.371 -1.35447 152.61 -3.9285 151.872 -6.52052C155.007 -8.26543 158.085 -10.0893 161.101 -12.0042C161.977 -9.42521 162.877 -6.86918 163.817 -4.34115C160.658 -2.40625 157.443 -0.564341 154.173 1.19656Z" fill="white"/>
<path d="M159.678 16.1797C158.62 13.7437 157.645 11.2727 156.733 8.77466C160.137 6.98776 163.491 5.11887 166.792 3.15497C167.843 5.62101 168.957 8.05405 170.153 10.4471C166.709 12.45 163.217 14.3569 159.678 16.1797Z" fill="white"/>
<path d="M167.26 30.3471C165.767 28.0671 164.401 25.744 163.141 23.381C166.813 21.5131 170.445 19.5582 174.029 17.5053C175.426 19.8154 176.928 22.0814 178.557 24.2985C174.833 26.4114 171.065 28.4242 167.26 30.3471Z" fill="white"/>
<path d="M178.019 43.4565C175.907 41.3714 173.965 39.2344 172.174 37.0483C176.109 35.0615 180.011 32.9816 183.873 30.7987C185.797 32.9128 187.871 34.9738 190.114 36.9769C186.116 39.2388 182.082 41.3956 178.019 43.4565Z" fill="white"/>
<path d="M193.049 55.2918C190.139 53.4357 187.44 51.5186 184.934 49.5456C189.121 47.4007 193.282 45.1578 197.411 42.8059C200.042 44.689 202.862 46.5101 205.891 48.2662C201.637 50.717 197.353 53.0559 193.049 55.2918Z" fill="white"/>
<path d="M213.36 65.6754C209.496 64.0743 205.875 62.4072 202.486 60.675C206.903 58.3382 211.302 55.8953 215.674 53.3374C219.175 54.9606 222.901 56.5157 226.868 58.0008C222.387 60.6746 217.881 63.2295 213.36 65.6754Z" fill="white"/>
<path d="M239.801 74.4733C234.857 73.1442 230.183 71.745 225.77 70.2789C230.384 67.716 234.988 65.0422 239.569 62.2443C244.073 63.5865 248.831 64.8576 253.853 66.0558C249.186 68.9846 244.498 71.7865 239.801 74.4733Z" fill="white"/>
<path d="M146.301 13.8935C145.523 11.3655 144.808 8.81445 144.135 6.24443C147.529 4.63554 150.876 2.95664 154.172 1.19574C154.976 3.74677 155.823 6.27379 156.732 8.77282C153.3 10.5607 149.821 12.2636 146.301 13.8935Z" fill="white"/>
<path d="M151.925 28.7306C150.803 26.3195 149.785 23.8745 148.854 21.3995C152.501 19.7376 156.11 18.0017 159.678 16.1788C160.741 18.6148 161.889 21.0169 163.142 23.3799C159.438 25.2478 155.698 27.0277 151.925 28.7306Z" fill="white"/>
<path d="M160.184 42.7428C158.53 40.4898 157.027 38.1917 155.655 35.8547C159.553 34.1018 163.423 32.2689 167.261 30.347C168.762 32.6271 170.394 34.8621 172.174 37.0482C168.204 39.0351 164.205 40.93 160.184 42.7428Z" fill="white"/>
<path d="M172.202 55.6962C169.831 53.6372 167.655 51.5261 165.653 49.366C169.796 47.4842 173.919 45.5183 178.019 43.4574C180.145 45.5415 182.444 47.5725 184.934 49.5466C180.708 51.6905 176.461 53.7364 172.202 55.6962Z" fill="white"/>
<path d="M189.069 67.3847C185.808 65.5516 182.779 63.6585 179.965 61.7094C184.337 59.6635 188.701 57.5287 193.048 55.2918C195.976 57.1479 199.116 58.943 202.486 60.6741C198.024 63.012 193.549 65.2448 189.069 67.3847Z" fill="white"/>
<path d="M211.762 77.6443C207.459 76.0612 203.42 74.413 199.635 72.7019C204.212 70.46 208.791 68.1212 213.36 65.6753C217.246 67.2765 221.379 68.8116 225.77 70.2787C221.103 72.8416 216.429 75.2924 211.762 77.6443Z" fill="white"/>
<path d="M241.058 86.3582C235.606 85.0391 230.438 83.6519 225.546 82.1998C230.292 79.7319 235.047 77.1601 239.801 74.4732C244.768 75.8024 250.006 77.0625 255.521 78.2527C250.695 81.0695 245.87 83.7674 241.058 86.3582Z" fill="white"/>
<path d="M133.753 10.87C133.203 8.285 132.694 5.68598 132.208 3.07896C135.593 1.60907 138.933 0.0821691 142.225 -1.51373C142.832 1.08729 143.463 3.67531 144.135 6.24533C140.717 7.85323 137.255 9.39112 133.753 10.87Z" fill="white"/>
<path d="M137.736 26.1732C136.931 23.6642 136.21 21.1312 135.553 18.5792C139.172 17.0823 142.757 15.5244 146.302 13.8945C147.083 16.4215 147.926 18.9255 148.854 21.4006C145.18 23.0615 141.473 24.6483 137.736 26.1732Z" fill="white"/>
<path d="M143.806 40.8882C142.562 38.4982 141.447 36.0742 140.441 33.6191C144.295 32.0582 148.125 30.4324 151.925 28.7295C153.054 31.1405 154.29 33.5166 155.655 35.8536C151.727 37.6085 147.776 39.2824 143.806 40.8882Z" fill="white"/>
<path d="M153.09 54.7697C151.217 52.5386 149.519 50.2636 147.974 47.9485C152.06 46.2867 156.131 44.5558 160.185 42.7429C161.849 44.996 163.664 47.205 165.653 49.3651C161.478 51.2469 157.287 53.0448 153.09 54.7697Z" fill="white"/>
<path d="M166.729 67.5899C164.041 65.5528 161.569 63.4637 159.295 61.3257C163.602 59.5278 167.906 57.6549 172.202 55.6961C174.588 57.7551 177.17 59.7612 179.965 61.7103C175.556 63.7552 171.14 65.711 166.729 67.5899Z" fill="white"/>
<path d="M185.794 79.1538C182.122 77.3397 178.702 75.4676 175.521 73.5395C180.032 71.5727 184.55 69.5258 189.069 67.3849C192.351 69.218 195.868 70.9911 199.633 72.7023C195.012 74.9451 190.396 77.091 185.794 79.1538Z" fill="white"/>
<path d="M211.212 89.3083C206.418 87.7392 201.904 86.107 197.659 84.4149C202.343 82.2491 207.048 79.9962 211.762 77.6444C216.088 79.2275 220.679 80.7466 225.545 82.1998C220.75 84.6676 215.968 87.0335 211.212 89.3083Z" fill="white"/>
<path d="M121.86 7.32767C121.485 4.71866 121.132 2.10566 120.782 -0.505356C124.167 -1.87625 127.507 -3.29115 130.799 -4.76104C131.259 -2.14303 131.724 0.471981 132.21 3.079C128.801 4.54889 125.35 5.96078 121.86 7.32767Z" fill="white"/>
<path d="M124.529 22.8968C123.986 20.3238 123.505 17.7358 123.067 15.1398C126.665 13.7679 130.227 12.348 133.752 10.8701C134.303 13.4551 134.896 16.0261 135.552 18.5791C131.909 20.075 128.234 21.5109 124.529 22.8968Z" fill="white"/>
<path d="M128.741 38.1188C127.853 35.6248 127.071 33.1068 126.375 30.5677C130.187 29.1579 133.976 27.697 137.737 26.1731C138.546 28.6811 139.44 31.1661 140.441 33.6202C136.561 35.181 132.66 36.6759 128.741 38.1188Z" fill="white"/>
<path d="M135.605 52.7373C134.18 50.3653 132.908 47.9572 131.768 45.5192C135.794 44.0353 139.809 42.4954 143.805 40.8886C145.055 43.2786 146.438 45.6336 147.973 47.9487C143.86 49.6106 139.735 51.2024 135.605 52.7373Z" fill="white"/>
<path d="M146.286 66.5074C144.132 64.2953 142.175 62.0382 140.396 59.7422C144.63 58.1483 148.863 56.4954 153.09 54.7696C154.976 57.0006 157.038 59.1877 159.296 61.3257C154.956 63.1236 150.619 64.8465 146.286 66.5074Z" fill="white"/>
<path d="M161.923 79.2131C158.854 77.195 156.024 75.1249 153.416 73.0059C157.844 71.27 162.282 69.4691 166.729 67.5903C169.435 69.6273 172.36 71.6114 175.522 73.5395C170.975 75.5064 166.44 77.3933 161.923 79.2131Z" fill="white"/>
<path d="M110.431 3.48927C110.18 0.888258 109.932 -1.70674 109.668 -4.28975C113.068 -5.60164 116.42 -6.94355 119.722 -8.32745C120.084 -5.72544 120.432 -3.11642 120.782 -0.50541C117.375 0.865485 113.925 2.19237 110.431 3.48927Z" fill="white"/>
<path d="M112.113 19.1273C111.777 16.5223 111.481 13.9133 111.208 11.3053C114.795 10.0164 118.347 8.69549 121.859 7.3276C122.233 9.93661 122.63 12.5426 123.068 15.1396C119.449 16.5115 115.797 17.8364 112.113 19.1273Z" fill="white"/>
<path d="M114.807 34.6574C114.216 32.0924 113.711 29.5123 113.268 26.9223C117.048 25.6214 120.803 24.2836 124.53 22.8977C125.073 25.4707 125.682 28.0297 126.374 30.5687C122.54 31.9776 118.684 33.3365 114.807 34.6574Z" fill="white"/>
<path d="M119.591 49.8187C118.56 47.3367 117.658 44.8287 116.867 42.3007C120.839 40.9518 124.798 39.5619 128.741 38.119C129.635 40.613 130.637 43.0811 131.77 45.5191C127.719 47.003 123.659 48.4329 119.591 49.8187Z" fill="white"/>
<path d="M127.623 64.357C125.954 61.9989 124.461 59.6059 123.126 57.1808C127.288 55.748 131.448 54.2711 135.605 52.7362C137.04 55.1083 138.63 57.4453 140.396 59.7424C136.135 61.3363 131.876 62.8701 127.623 64.357Z" fill="white"/>
<path d="M140.09 78.0352C137.588 75.8391 135.307 73.599 133.23 71.3179C137.571 69.7681 141.924 68.1692 146.286 66.5083C148.456 68.7204 150.826 70.8885 153.417 73.0065C148.958 74.7424 144.514 76.4143 140.09 78.0352Z" fill="white"/>
<path d="M100.278 15.0849C100.093 12.4809 99.9294 9.88292 99.7675 7.29591C103.362 6.05002 106.919 4.78414 110.431 3.48824C110.68 6.08925 110.933 8.69625 111.207 11.3043C107.599 12.5942 103.955 13.85 100.278 15.0849Z" fill="white"/>
<path d="M101.798 30.7282C101.447 28.1252 101.16 25.5162 100.914 22.9072C104.676 21.6733 108.409 20.4184 112.113 19.1275C112.45 21.7326 112.828 24.3326 113.269 26.9226C109.469 28.2235 105.644 29.4873 101.798 30.7282Z" fill="white"/>
<path d="M104.851 46.2393C104.154 43.6793 103.566 41.1033 103.064 38.5162C106.996 37.2594 110.91 35.9775 114.808 34.6576C115.401 37.2226 116.081 39.7716 116.867 42.3007C112.873 43.6495 108.867 44.9584 104.851 46.2393Z" fill="white"/>
<path d="M110.576 61.3583C109.337 58.8853 108.254 56.3853 107.306 53.8642C111.406 52.5494 115.501 51.2055 119.591 49.8186C120.629 52.3006 121.801 54.7567 123.126 57.1807C118.942 58.6136 114.757 60.0024 110.576 61.3583Z" fill="white"/>
<path d="M120.173 75.8336C118.191 73.4885 116.412 71.1055 114.815 68.6914C119.076 67.2846 123.346 65.8437 127.624 64.3568C129.306 66.7149 131.168 69.0359 133.23 71.317C128.863 72.8679 124.509 74.3687 120.173 75.8336Z" fill="white"/>
<path d="M134.835 89.4322C131.917 87.2511 129.244 85.024 126.799 82.7559C131.206 81.2251 135.638 79.6552 140.09 78.0343C142.61 80.2304 145.356 82.3805 148.343 84.4826C143.813 86.1825 139.309 87.8273 134.835 89.4322Z" fill="white"/>
<path d="M88.8039 10.9947C88.716 8.42465 88.6311 5.86966 88.5292 3.33466C92.1552 2.08877 95.7333 0.838877 99.2673 -0.428014C99.4432 2.13299 99.6051 4.709 99.7681 7.296C96.153 8.54289 92.499 9.77177 88.8039 10.9947Z" fill="white"/>
<path d="M89.4856 26.5547C89.3177 23.9447 89.1888 21.3407 89.0839 18.7447C92.8489 17.5358 96.5799 16.3209 100.278 15.0851C100.462 17.6891 100.667 20.2971 100.913 22.9061C97.1327 24.14 93.3227 25.3518 89.4856 26.5547Z" fill="white"/>
<path d="M91.1624 42.2218C90.7415 39.6168 90.4056 37.0048 90.1337 34.3918C94.0437 33.1859 97.9307 31.969 101.798 30.7281C102.149 33.3322 102.565 35.9292 103.064 38.5162C99.1115 39.7731 95.1445 41.0039 91.1624 42.2218Z" fill="white"/>
<path d="M94.9365 57.7327C94.0716 55.1747 93.3376 52.6007 92.7157 50.0136C96.7697 48.7748 100.815 47.5209 104.852 46.239C105.553 48.799 106.364 51.3421 107.307 53.8641C103.185 55.179 99.0615 56.4638 94.9365 57.7327Z" fill="white"/>
<path d="M101.998 72.8261C100.484 70.359 99.1523 67.865 97.9794 65.3479C102.172 64.0411 106.372 62.7152 110.575 61.3583C111.823 63.8313 113.229 66.2774 114.814 68.6914C110.531 70.0993 106.258 71.4722 101.998 72.8261Z" fill="white"/>
<path d="M113.578 87.2514C111.214 84.9154 109.076 82.5433 107.146 80.1373C111.469 78.7294 115.811 77.2995 120.172 75.8337C122.169 78.1787 124.371 80.4878 126.798 82.7559C122.365 84.2877 117.958 85.7816 113.578 87.2514Z" fill="white"/>
<path d="M77.4553 7.07627C77.4134 4.57127 77.3545 2.09027 77.2626 -0.360733C80.9456 -1.64862 84.5767 -2.92551 88.1537 -4.2034C88.3066 -1.71439 88.4255 0.80061 88.5285 3.33561C84.8834 4.5805 81.1934 5.82338 77.4553 7.07627Z" fill="white"/>
<path d="M77.6306 22.3623C77.5877 19.7793 77.5648 17.2103 77.5429 14.6603C81.3369 13.4344 85.0899 12.2165 88.804 10.9936C88.8889 13.5636 88.9768 16.1496 89.0847 18.7446C85.3007 19.9535 81.4827 21.1554 77.6306 22.3623Z" fill="white"/>
<path d="M78.2856 37.9913C78.0797 35.3723 77.9368 32.7573 77.8349 30.1503C81.7459 28.9524 85.6289 27.7585 89.485 26.5557C89.6529 29.1647 89.8618 31.7787 90.1337 34.3927C86.2057 35.5976 82.2566 36.7934 78.2856 37.9913Z" fill="white"/>
<path d="M80.4699 53.7015C79.9179 51.0905 79.472 48.4735 79.1161 45.8524C83.1461 44.6456 87.1622 43.4407 91.1632 42.2218C91.5861 44.8268 92.0961 47.4258 92.715 50.0128C88.6419 51.2527 84.5599 52.4786 80.4699 53.7015Z" fill="white"/>
<path d="M85.3507 69.2285C84.2478 66.6705 83.3049 64.0945 82.496 61.5044C86.644 60.2546 90.7901 59.0017 94.9361 57.7328C95.808 60.2908 96.8149 62.8309 97.9789 65.3479C93.7638 66.6548 89.5548 67.9446 85.3507 69.2285Z" fill="white"/>
<path d="M94.1711 84.3088C92.3112 81.8468 90.6573 79.3557 89.1893 76.8407C93.4454 75.5138 97.7144 74.1799 101.997 72.8261C103.523 75.2921 105.232 77.7312 107.146 80.1372C102.801 81.5451 98.4751 82.932 94.1711 84.3088Z" fill="white"/>
<path d="M65.9901 3.55183C65.9422 1.14283 65.8623 -1.23316 65.7294 -3.57117C69.5024 -4.94405 73.2155 -6.28994 76.8675 -7.62283C77.0434 -5.23482 77.1693 -2.81282 77.2633 -0.361812C73.5592 0.927073 69.8032 2.22694 65.9901 3.55183Z" fill="white"/>
<path d="M65.9782 18.3748C66.0052 15.8498 66.0323 13.3488 66.0404 10.8768C69.8934 9.59194 73.6985 8.32904 77.4555 7.07616C77.4954 9.58216 77.5184 12.1112 77.5423 14.6612C73.7282 15.8861 69.8752 17.1199 65.9782 18.3748Z" fill="white"/>
<path d="M65.96 33.7699C65.9101 31.1699 65.9012 28.5839 65.9123 26.0159C69.8543 24.7831 73.7593 23.5692 77.6304 22.3623C77.6713 24.9463 77.7332 27.5433 77.8361 30.1503C73.9061 31.3482 69.9471 32.5511 65.96 33.7699Z" fill="white"/>
<path d="M66.9206 49.487C66.6187 46.855 66.4028 44.226 66.2499 41.605C70.2839 40.3891 74.296 39.1882 78.285 37.9904C78.4909 40.6094 78.7598 43.2314 79.1148 45.8524C75.0667 47.0593 71.0017 48.2661 66.9206 49.487Z" fill="white"/>
<path d="M69.9889 65.2591C69.2379 62.6411 68.621 60.014 68.1161 57.383C72.2431 56.1482 76.3612 54.9253 80.4702 53.7014C81.0271 56.3114 81.6961 58.9144 82.497 61.5045C78.3289 62.7543 74.1599 64.0022 69.9889 65.2591Z" fill="white"/>
<path d="M76.396 80.8163C74.985 78.2562 73.7581 75.6762 72.6952 73.0811C76.9082 71.7923 81.1273 70.5124 85.3513 69.2285C86.4622 71.7866 87.7342 74.3256 89.1901 76.8407C84.913 78.1675 80.648 79.4884 76.396 80.8163Z" fill="white"/>
<path d="M54.1476 0.641616C54.0447 -1.64139 53.8897 -3.8824 53.6698 -6.07741C57.5748 -7.57829 61.4069 -9.03717 65.1689 -10.4671C65.4149 -8.21005 65.5958 -5.91004 65.7277 -3.57203C61.9317 -2.19815 58.0726 -0.798263 54.1476 0.641616Z" fill="white"/>
<path d="M54.2663 14.8146C54.3083 12.3796 54.3304 9.97864 54.3165 7.61464C58.2655 6.22676 62.1556 4.87688 65.9896 3.552C66.0365 5.961 66.0475 8.40401 66.0404 10.877C62.1653 12.1619 58.2423 13.4698 54.2663 14.8146Z" fill="white"/>
<path d="M53.9157 29.7846C53.9637 27.2356 54.0298 24.7106 54.0959 22.2146C58.1009 20.9048 62.061 19.6299 65.978 18.375C65.9489 20.9 65.9219 23.449 65.9118 26.017C61.9507 27.2489 57.9527 28.5007 53.9157 29.7846Z" fill="white"/>
<path d="M54.0163 45.3126C53.9054 42.6926 53.8545 40.0846 53.8456 37.4956C57.9156 36.2277 61.9527 34.9909 65.9597 33.771C66.0076 36.371 66.0975 38.985 66.2495 41.606C62.1974 42.8209 58.1204 44.0528 54.0163 45.3126Z" fill="white"/>
<path d="M55.644 61.1366C55.1821 58.4896 54.8312 55.8436 54.5673 53.2046C58.7043 51.9427 62.8213 50.7088 66.9214 49.487C67.2243 52.119 67.6162 54.752 68.1161 57.383C63.9691 58.6179 59.8121 59.8647 55.644 61.1366Z" fill="white"/>
<path d="M60.004 76.9869C58.984 74.3578 58.1241 71.7198 57.4032 69.0758C61.6032 67.7839 65.7973 66.517 69.9893 65.2592C70.7472 67.8772 71.6422 70.4862 72.6951 73.0813C68.462 74.3701 64.232 75.667 60.004 76.9869Z" fill="white"/>
<path d="M42.2164 11.9052C42.2195 9.59223 42.1845 7.32124 42.0946 5.09624C46.1816 3.56236 50.1977 2.08149 54.1477 0.641607C54.2517 2.92461 54.3026 5.25061 54.3165 7.61361C50.3455 9.00249 46.3124 10.4284 42.2164 11.9052Z" fill="white"/>
<path d="M41.8727 26.2582C41.9608 23.7932 42.0458 21.3622 42.1089 18.9682C46.217 17.5394 50.269 16.1585 54.267 14.8136C54.224 17.2486 54.1609 19.7166 54.0968 22.2136C50.0698 23.5235 45.9967 24.8674 41.8727 26.2582Z" fill="white"/>
<path d="M41.4713 41.4012C41.4884 38.8252 41.5445 36.2722 41.6186 33.7462C45.7606 32.3853 49.8596 31.0684 53.9167 29.7846C53.8676 32.3336 53.8375 34.9046 53.8464 37.4946C49.7564 38.7624 45.6324 40.0603 41.4713 41.4012Z" fill="white"/>
<path d="M42.0321 57.0823C41.7972 54.4383 41.6483 51.8063 41.5624 49.1903C45.7434 47.8604 49.8945 46.5715 54.0165 45.3117C54.1284 47.9317 54.3053 50.5647 54.5663 53.2037C50.4092 54.4666 46.2332 55.7544 42.0321 57.0823Z" fill="white"/>
<path d="M44.7189 73.0341C44.0279 70.3681 43.473 67.7021 43.0321 65.0421C47.2511 63.7072 51.4542 62.4093 55.6442 61.1375C56.1101 63.7845 56.6881 66.4325 57.403 69.0765C53.1829 70.3674 48.9559 71.6823 44.7189 73.0341Z" fill="white"/>
<path d="M50.8115 88.9773C49.4445 86.3363 48.2666 83.6832 47.2567 81.0242C51.5078 79.6473 55.7548 78.3055 60.0038 76.9866C61.0337 79.6146 62.2277 82.2337 63.6096 84.8357C59.3365 86.1906 55.0705 87.5674 50.8115 88.9773Z" fill="white"/>
<path d="M29.5318 9.87178C29.4409 7.71078 29.2959 5.60078 29.077 3.54578C33.353 1.82191 37.5441 0.167033 41.6541 -1.43284C41.8651 0.695167 42.008 2.87218 42.0959 5.09618C37.9819 6.63105 33.7958 8.21791 29.5318 9.87178Z" fill="white"/>
<path d="M29.5299 23.4157C29.599 21.0677 29.6471 18.7617 29.6511 16.5027C33.9092 14.9108 38.0952 13.3829 42.2163 11.9051C42.2132 14.2181 42.1721 16.5741 42.1081 18.9681C37.976 20.3979 33.785 21.8758 29.5299 23.4157Z" fill="white"/>
<path d="M28.9869 37.9768C29.071 35.4778 29.1731 33.0118 29.2712 30.5838C33.5262 29.0869 37.7263 27.6491 41.8723 26.2592C41.7832 28.7242 41.6932 31.2212 41.6191 33.7472C37.455 35.107 33.245 36.5129 28.9869 37.9768Z" fill="white"/>
<path d="M28.8556 53.3169C28.7837 50.7099 28.7737 48.1239 28.8038 45.5649C33.0669 44.126 37.2899 42.7421 41.4719 41.4013C41.4549 43.9773 41.4788 46.5753 41.5627 49.1913C37.3607 50.5212 33.1256 51.892 28.8556 53.3169Z" fill="white"/>
<path d="M30.2507 69.1747C29.8258 66.5037 29.5119 63.8427 29.287 61.1977C33.564 59.7778 37.8111 58.4099 42.0321 57.0821C42.269 59.7261 42.5949 62.3811 43.0319 65.0411C38.7908 66.377 34.5318 67.7508 30.2507 69.1747Z" fill="white"/>
<path d="M34.4248 85.2721C33.4279 82.585 32.598 79.896 31.9081 77.211C36.1931 75.7741 40.4622 74.3852 44.7192 73.0334C45.4171 75.6994 46.255 78.3644 47.256 81.0235C42.9859 82.4003 38.7089 83.8122 34.4248 85.2721Z" fill="white"/>
<path d="M15.8883 8.93429C15.6483 6.95629 15.3344 5.03829 14.9324 3.18127C19.4565 1.22341 23.8786 -0.65046 28.2046 -2.45333C28.5756 -0.511315 28.8615 1.48969 29.0774 3.5447C24.7704 5.26957 20.3763 7.06143 15.8883 8.93429Z" fill="white"/>
<path d="M16.5749 21.4815C16.5679 19.2815 16.518 17.1335 16.4071 15.0415C20.8651 13.2436 25.2392 11.5248 29.5322 9.87089C29.6242 12.0319 29.6581 14.2439 29.652 16.5029C25.368 18.0948 21.0089 19.7506 16.5749 21.4815Z" fill="white"/>
<path d="M16.2477 35.2634C16.3398 32.8754 16.4258 30.5294 16.4859 28.2314C20.9019 26.5575 25.249 24.9557 29.53 23.4158C29.46 25.7638 29.3669 28.1548 29.2708 30.5828C24.9898 32.0797 20.6497 33.6365 16.2477 35.2634Z" fill="white"/>
<path d="M15.8004 50.0606C15.8285 47.5236 15.8946 45.0176 15.9766 42.5496C20.3687 40.9597 24.7037 39.4389 28.9868 37.976C28.9017 40.475 28.8336 43.006 28.8035 45.565C24.5155 47.0049 20.1835 48.4987 15.8004 50.0606Z" fill="white"/>
<path d="M16.2891 65.6254C16.0662 62.9824 15.9303 60.3594 15.8544 57.7644C20.2294 56.2205 24.5615 54.7417 28.8545 53.3168C28.9274 55.9238 29.0643 58.5528 29.2853 61.1978C24.9882 62.6177 20.6572 64.0895 16.2891 65.6254Z" fill="white"/>
<path d="M18.9284 81.6825C18.2415 78.9805 17.6926 76.2885 17.2587 73.6104C21.6167 72.0736 25.9467 70.5987 30.2498 69.1748C30.6807 71.8459 31.2246 74.5269 31.9065 77.2119C27.6005 78.6488 23.2764 80.1346 18.9284 81.6825Z" fill="white"/>
<path d="M0.927662 9.31795C0.478716 7.55294 -0.0622325 5.85493 -0.709182 4.22591C4.13389 1.98906 8.85395 -0.147802 13.462 -2.19866C14.049 -0.468642 14.5329 1.32537 14.9318 3.18238C10.3708 5.13924 5.70473 7.1811 0.927662 9.31795Z" fill="white"/>
<path d="M2.66105 20.681C2.51811 18.662 2.31017 16.703 2.02423 14.809C6.7463 12.7621 11.3654 10.8082 15.8874 8.93439C16.1314 10.9124 16.2973 12.9494 16.4062 15.0414C11.9152 16.8393 7.33511 18.7151 2.66105 20.681Z" fill="white"/>
<path d="M2.91955 33.4862C2.95662 31.2422 2.96569 29.0502 2.92675 26.9142C7.55981 25.0204 12.1079 23.2125 16.5739 21.4816C16.5819 23.6816 16.5458 25.9326 16.4857 28.2306C12.0387 29.9055 7.51861 31.6533 2.91955 33.4862Z" fill="white"/>
<path d="M2.53673 47.5391C2.60181 45.1051 2.67988 42.7141 2.75095 40.3711C7.32001 38.5902 11.8181 36.8913 16.2481 35.2635C16.156 37.6515 16.06 40.0825 15.9769 42.5505C11.5588 44.1403 7.07878 45.7992 2.53673 47.5391Z" fill="white"/>
<path d="M2.51054 62.6039C2.42462 60.0229 2.3977 57.4729 2.40978 54.9599C6.92983 53.2521 11.3919 51.6222 15.7999 50.0603C15.7728 52.5983 15.7828 55.1674 15.8547 57.7634C11.4546 59.3082 7.00959 60.9171 2.51054 62.6039Z" fill="white"/>
<path d="M4.00784 78.42C3.56392 75.737 3.233 73.074 2.99009 70.436C7.46614 68.7611 11.8982 67.1613 16.2892 65.6254C16.5162 68.2684 16.8311 70.9324 17.259 73.6104C12.8759 75.1473 8.46189 76.7462 4.00784 78.42Z" fill="white"/>
<path d="M-11.3558 32.8707C-11.4397 30.8047 -11.5717 28.7987 -11.7736 26.8597C-6.85856 24.7028 -2.0495 22.647 2.66156 20.6811C2.8085 22.7001 2.89044 24.7791 2.92737 26.9141C-1.74169 28.809 -6.49975 30.7908 -11.3558 32.8707Z" fill="white"/>
<path d="M-11.2855 45.9724C-11.2495 43.6774 -11.2234 41.4355 -11.2313 39.2505C-6.42627 37.2366 -1.71221 35.3187 2.91985 33.4869C2.88478 35.7309 2.8217 38.0269 2.74963 40.3709C-1.85142 42.1517 -6.52648 44.0156 -11.2855 45.9724Z" fill="white"/>
<path d="M-10.6717 75.6987C-10.9386 73.0686 -11.1195 70.4686 -11.2384 67.9056C-6.59639 66.0548 -2.01533 64.2909 2.50972 62.6041C2.59964 65.1851 2.75156 67.7971 2.98948 70.4351C-1.51457 72.1109 -6.06463 73.8618 -10.6717 75.6987Z" fill="white"/>
</g>
<path d="M174.41 93.5773C174.41 93.5773 166.161 108.977 164.38 109.983C162.6 110.989 152.471 115.541 145.824 108.825C139.179 102.11 135.615 99.0851 138.263 94.2082C140.911 89.3313 146.94 79.1245 148.657 79.0385C150.375 78.9526 158.054 77.3508 165.179 81.264C172.305 85.1772 175.148 88.8263 174.41 93.5773Z" fill="white"/>
<path d="M42.7522 54.2233C42.7522 54.2233 43.8155 44.4344 36.8026 41.4351C29.7887 38.4359 23.5916 43.2967 23.1006 43.9087C22.6085 44.5207 18.5814 47.5486 18.0144 48.0866C17.4474 48.6256 17.4212 54.3515 21.5191 58.6487C25.617 62.9458 28.81 63.0529 31.55 61.285C34.2901 59.5171 42.9882 55.1823 42.9882 55.1823L42.7522 54.2233Z" fill="white"/>
<path d="M10.6266 9.94825C18.6847 6.7105 27.2287 4.39875 35.7908 2.98002C40.1468 2.25815 44.5338 1.7813 48.9468 1.59643C53.0058 1.42656 56.8448 1.60467 59.8327 4.67976C62.3057 7.22384 64.0616 10.5349 67.3985 12.088C68.4105 12.559 69.3015 11.0651 68.2815 10.577C65.1826 9.09493 63.4167 6.03888 61.0828 3.66781C58.3958 0.937725 55.0849 0.00262249 51.3169 0.00150638C42.3519 -0.000769875 33.1488 1.50694 24.5798 4.09867C19.7117 5.57152 15.0836 7.45539 10.4986 9.64425C10.3316 9.72524 10.4516 10.0182 10.6266 9.94825Z" fill="white"/>
<path d="M16.0083 7.31347C11.9643 8.71434 7.3912 10.3812 4.5861 13.7851C2.087 16.818 1.08887 21.115 3.72177 24.3861C5.08472 26.0791 7.01969 27.2152 8.92866 28.1923C11.0796 29.2923 13.3366 30.2054 15.6456 30.9155C18.0475 31.6535 20.5035 32.1446 22.9955 32.4557C25.6905 32.7918 28.4175 32.9319 31.0525 33.6339C35.9914 34.9501 40.4644 37.6822 45.0533 39.8604C49.6702 42.0515 54.3782 44.0417 59.1131 45.9628C68.75 49.8711 78.5279 53.3864 88.5218 56.2737C94.0287 57.8649 99.5827 59.274 105.189 60.4752C108.028 61.0843 110.878 61.6474 113.735 62.1635C116.543 62.6716 119.459 63.4067 122.318 63.1948C122.809 63.1588 122.876 62.5368 122.431 62.3618C120.159 61.4707 117.693 61.2276 115.297 60.7945C112.891 60.3594 110.492 59.8924 108.099 59.3923C103.313 58.3922 98.5508 57.266 93.8178 56.0389C84.4309 53.6066 75.148 50.6963 66.0901 47.231C56.8642 43.7017 48.0863 39.3355 39.1944 35.0652C37.1785 34.0971 35.1245 33.1781 32.9895 32.5C30.7195 31.7789 28.3716 31.4239 26.0136 31.1428C20.9496 30.5406 16.0936 29.6595 11.4197 27.5193C9.20971 26.5073 6.77374 25.3562 5.1618 23.4761C3.47186 21.5061 3.35694 18.8171 4.45301 16.5301C6.74616 11.7452 12.1092 10.4464 16.1413 7.62748C16.2913 7.52449 16.2063 7.24547 16.0083 7.31347Z" fill="white"/>
<path d="M67.612 12.091C70.2439 12.7431 72.8609 12.8172 75.5639 12.9273C78.3509 13.0414 81.1379 13.1424 83.9259 13.2405C89.2049 13.4267 94.4859 13.5259 99.7659 13.717C110.257 14.0973 120.754 14.7607 131.185 15.969C141.641 17.1803 152.036 19.0086 162.194 21.7889C167.18 23.1541 172.056 24.8412 176.879 26.6944C181.729 28.5575 186.556 30.5137 191.553 31.9588C196.743 33.459 202.025 34.0332 207.365 34.6963C212.709 35.3595 217.886 36.3997 222.628 39.0608C223.164 39.3618 223.593 38.5918 223.103 38.2478C215.342 32.8056 204.967 33.7573 196.093 31.824C185.897 29.6037 176.476 24.7934 166.544 21.7001C146.326 15.4035 125.244 13.5698 104.199 12.4962C98.263 12.194 92.325 11.8508 86.386 11.6246C83.189 11.5025 79.992 11.3744 76.795 11.2703C73.706 11.1702 70.669 10.9691 67.613 11.489C67.303 11.543 67.328 12.021 67.612 12.091Z" fill="white"/>
<path d="M118.346 63.0177C118.363 63.0177 118.363 62.9917 118.346 62.9917C118.329 62.9917 118.329 63.0177 118.346 63.0177Z" fill="white"/>
<path d="M117.69 61.8847C122.766 63.7088 127.819 65.505 133.016 66.9772C138.19 68.4433 143.382 69.8355 148.592 71.1656C158.788 73.7669 169.05 76.4353 179.498 77.8086C189.196 79.0839 199.144 79.0532 208.597 76.2995C212.966 75.0266 217.178 73.1958 221.013 70.7359C224.723 68.356 228.133 65.3781 229.966 61.2851C231.879 57.0162 232.277 52.0052 230.667 47.5752C229.09 43.2331 226.211 40.015 222.237 37.7109C221.889 37.5089 221.582 38.0389 221.923 38.2489C229.218 42.7491 232.193 52.5272 228.735 60.3341C225.158 68.412 215.708 72.9697 207.619 75.1365C188.85 80.1639 169.196 74.6603 150.924 70.0647C145.394 68.6735 139.877 67.2244 134.371 65.7442C128.855 64.261 123.301 62.9879 117.754 61.6547C117.603 61.6187 117.547 61.8337 117.69 61.8847Z" fill="white"/>
<path d="M3.95407 33.2911C3.7151 32.3311 3.26813 31.4341 3.02116 30.4711C2.77319 29.5031 2.61022 28.5151 2.41725 27.5351C2.01731 25.5061 1.65638 23.4411 1.73944 21.3651C1.8225 19.3021 2.45757 17.3371 3.78562 15.7351C4.38264 15.0161 5.08266 14.3832 5.81868 13.8102C6.48369 13.2932 7.23271 12.8342 7.67773 12.1002C7.79674 11.9032 7.64674 11.5712 7.39174 11.6012C5.61474 11.8102 3.82268 13.6051 2.73064 14.9181C1.36559 16.5591 0.677531 18.54 0.518465 20.656C0.351397 22.887 0.755328 25.124 1.25426 27.2891C1.6992 29.2231 2.11811 32.0621 3.66407 33.4581C3.79207 33.5731 3.99607 33.4621 3.95407 33.2911Z" fill="white"/>
<path d="M42.8142 47.1003C45.7991 49.1234 49.0971 50.5615 52.379 52.0416C55.442 53.4227 58.534 54.7408 61.6309 56.0449C68.1298 58.7821 74.7008 61.3292 81.3317 63.7295C87.9586 66.1277 94.5805 68.5799 101.317 70.6591C104.615 71.6772 107.967 72.4423 111.253 73.5044C114.535 74.5655 117.836 75.5486 121.16 76.4737C128.858 78.6159 136.615 80.5392 144.411 82.2894C145.433 82.5194 145.869 80.9474 144.844 80.7174C137.964 79.1722 131.123 77.477 124.307 75.6668C120.976 74.7817 117.654 73.8616 114.335 72.9345C112.674 72.4704 111.006 72.0494 109.352 71.5603C107.611 71.0453 105.959 70.3472 104.24 69.7782C97.6216 67.587 90.9776 65.4797 84.4117 63.1345C77.7738 60.7643 71.2199 58.1382 64.6849 55.499C61.046 54.0288 57.425 52.5167 53.8231 50.9596C50.2591 49.4195 46.7292 47.7414 42.9882 46.6883C42.7332 46.6173 42.6082 46.9613 42.8142 47.1003Z" fill="white"/>
<path d="M2.40086 32.3618C2.5498 34.2148 5.22876 35.6189 6.67174 36.4149C8.7147 37.542 10.9507 38.1841 13.1867 38.8021C15.5416 39.4532 17.9026 39.6273 20.2576 40.1414C22.7216 40.6794 25.2126 41.0545 27.6586 41.6766C28.6756 41.9346 29.1096 40.3636 28.0916 40.1046C25.8336 39.5305 23.5377 39.0865 21.2317 38.7514C20.0607 38.5813 18.9877 38.4673 17.8627 38.1113C16.7267 37.7522 15.5187 37.6172 14.3557 37.3672C12.1487 36.8931 10.0437 36.163 8.00277 35.198C6.97379 34.712 6.00581 34.1319 5.06883 33.4879C4.28384 32.9489 3.60586 32.2359 2.62487 32.1358C2.51187 32.1248 2.39186 32.2488 2.40086 32.3618Z" fill="white"/>
<path d="M173.422 88.0163C177.654 89.0674 182.302 89.1596 186.653 89.1397C190.956 89.1198 195.267 88.7909 199.503 88.0181C203.371 87.3122 207.171 86.2373 210.799 84.7184C212.576 83.9745 214.311 83.1315 215.976 82.1636C217.32 81.3826 219.309 80.4557 219.943 78.9547C220.065 78.6657 219.755 78.2767 219.451 78.3087C217.895 78.4736 216.425 79.8806 215.091 80.6496C213.432 81.6065 211.706 82.4525 209.933 83.1754C206.425 84.6063 202.749 85.6112 199.023 86.28C194.856 87.0279 190.634 87.3498 186.408 87.4897C182.112 87.6326 177.708 87.3334 173.444 87.8473C173.355 87.8583 173.32 87.9913 173.422 88.0163Z" fill="white"/>
<path d="M219.059 79.5328C218.785 79.7498 220.152 79.1438 219.76 79.3548C219.992 79.2298 220.221 79.0968 220.448 78.9618C221.071 78.5909 221.672 78.1849 222.257 77.7559C223.31 76.9839 224.31 76.137 225.245 75.224C227.116 73.398 228.739 71.2061 229.904 68.8662C231.167 66.3292 231.999 63.6112 232.358 60.8002C232.755 57.6902 232.387 54.9382 231.679 51.9152C231.532 51.2862 230.606 51.5582 230.72 52.1792C231.282 55.2422 231.113 58.8262 230.51 61.8802C229.908 64.9301 228.778 67.8161 227.148 70.4641C225.662 72.879 223.756 75.056 221.546 76.8339C220.915 77.3409 220.256 77.8149 219.58 78.2618C219.222 78.4988 218.756 78.6768 218.593 79.1098C218.432 79.5398 218.599 79.9078 219.062 79.9118C219.12 79.9118 219.18 79.8798 219.208 79.8278C219.231 79.7848 219.254 79.7428 219.277 79.6998C219.357 79.5548 219.179 79.4378 219.059 79.5328Z" fill="white"/>
<path d="M160.734 111.383C155.003 112.937 149.156 110.894 144.792 107.084C142.734 105.288 140.63 103.105 139.37 100.659C138.032 98.0633 138.581 95.3553 140.659 93.3433C144.897 89.2415 152.403 91.1427 156.948 93.7058C161.516 96.281 165.677 101.668 164.297 107.22C163.438 110.677 160.171 111.623 156.998 111.842C155.552 111.942 154.099 111.939 152.655 111.799C150.951 111.633 149.552 111.122 147.972 110.515C147.814 110.454 147.718 110.674 147.817 110.781C149.932 113.062 153.687 113.28 156.587 113.102C159.423 112.928 162.563 112.399 164.344 109.939C168.14 104.695 164.331 97.7551 159.904 94.35C157.233 92.2959 153.994 90.9708 150.74 90.1617C147.722 89.4116 144.347 89.3695 141.54 90.8654C139.074 92.1803 137.129 94.7123 137.023 97.5692C136.904 100.818 139.333 103.636 141.412 105.87C146.25 111.07 153.863 114.924 160.84 111.637C160.986 111.569 160.883 111.342 160.734 111.383Z" fill="white"/>
<path d="M146.857 99.0064C147.295 99.2044 147.892 98.8965 148.365 98.8875C148.905 98.8775 149.466 99.1035 149.996 99.2005C151.169 99.4165 152.233 99.7906 153.228 100.461C154.093 101.043 154.837 101.871 155.431 102.724C155.736 103.161 156.001 103.619 156.317 104.05C156.736 104.621 156.899 105.101 156.973 105.809C156.979 105.867 157.07 105.869 157.066 105.809C157.026 105.178 156.964 104.577 156.97 103.946C156.977 103.313 156.769 102.75 156.501 102.187C155.949 101.03 155.089 100.112 154.042 99.3807C152.953 98.6206 151.635 98.1726 150.318 98.0325C149.651 97.9615 149.086 98.1465 148.446 98.2865C147.958 98.3934 147.104 98.3594 146.808 98.8164C146.77 98.8744 146.791 98.9764 146.857 99.0064Z" fill="white"/>
<path d="M149.333 98.5644C148.502 99.1384 147.217 99.6973 147.477 100.937C147.62 101.621 148.281 102.111 148.765 102.561C149.305 103.063 149.885 103.527 150.491 103.948C151.66 104.76 153.038 105.391 154.487 105.388C155.172 105.386 155.838 105.196 156.372 104.756C156.85 104.363 157.272 103.561 156.865 102.978C156.522 102.486 155.746 102.531 155.565 103.148C155.502 103.363 155.558 103.473 155.472 103.567C155.383 103.663 155.224 103.748 155.098 103.797C154.734 103.939 154.289 103.909 153.909 103.862C152.881 103.734 151.936 103.222 151.092 102.65C150.652 102.352 150.239 102.021 149.821 101.694C149.608 101.527 149.398 101.358 149.189 101.187C149.029 101.056 148.761 100.89 148.678 100.69C148.581 100.457 148.824 100.281 148.991 100.139C149.305 99.8704 149.65 99.6504 149.945 99.3574C150.342 98.9654 149.817 98.2304 149.333 98.5644Z" fill="white"/>
<path d="M163.381 109.607C162.904 109.833 162.605 110.119 162.319 110.56C162.184 110.768 162.358 111.101 162.617 111.078C166.205 110.766 168.719 106.828 170.447 104.099C171.52 102.405 172.43 100.626 173.21 98.7803C173.606 97.8424 173.971 96.8914 174.295 95.9254C174.618 94.9644 175.068 93.8994 175.082 92.8784C175.092 92.1444 174.029 91.8294 173.674 92.4974C173.261 93.2734 173.112 94.2073 172.843 95.0433C172.557 95.9283 172.241 96.8053 171.891 97.6673C171.18 99.4203 170.323 101.118 169.38 102.757C168.491 104.302 167.495 105.782 166.395 107.184C165.262 108.628 164.109 109.658 162.443 110.437C162.616 110.536 162.789 110.635 162.962 110.734C162.989 110.298 163.139 109.964 163.4 109.625C163.408 109.613 163.391 109.602 163.381 109.607Z" fill="white"/>
<path d="M137.161 97.1021C137.94 96.6211 138.159 95.6222 138.558 94.8362C139.088 93.7932 139.698 92.7962 140.276 91.7802C141.364 89.8653 142.434 87.9523 143.653 86.1143C144.853 84.3044 146.143 82.1824 147.799 80.7474C149.677 79.1195 152.318 79.1876 154.677 79.3137C162.598 79.7369 173.152 84.5172 173.587 93.5772C173.638 94.6342 175.179 94.6353 175.23 93.5773C175.588 86.2683 167.814 81.1481 161.726 79.1969C158.065 78.0228 154.058 77.6326 150.243 78.1595C148.323 78.4245 146.978 79.0014 145.711 80.4934C144.435 81.9963 143.275 83.6173 142.186 85.2583C140.895 87.2022 139.663 89.2462 138.744 91.3952C138.347 92.3242 138.004 93.2732 137.664 94.2241C137.354 95.0911 136.74 96.1161 137.013 97.0431C137.033 97.1031 137.106 97.1371 137.161 97.1021Z" fill="white"/>
<path d="M31.3063 60.505C28.5742 62.1829 25.3813 60.3158 23.2343 58.5527C21.1574 56.8467 19.3595 54.6676 18.5305 52.0755C18.1416 50.8595 17.8836 49.3185 18.8137 48.2746C19.7697 47.2026 21.4217 47.2366 22.6687 47.6747C25.1756 48.5558 27.2146 50.6188 28.6385 52.7989C29.4455 54.0349 30.1134 55.3619 30.6514 56.7349C30.9624 57.527 31.3583 58.4069 31.3973 59.2659C31.4443 60.3259 30.8083 60.7069 29.9283 61.0259C29.7483 61.0909 29.6823 61.3009 29.8172 61.4469C30.2772 61.9439 30.8502 61.857 31.3852 61.51C32.0573 61.074 32.4053 60.319 32.4433 59.537C32.5224 57.901 31.6054 56.086 30.9285 54.6329C29.5296 51.6289 27.4206 48.8288 24.5017 47.1667C22.9867 46.3037 21.1017 45.6776 19.3777 46.2566C17.7847 46.7905 16.8257 48.1105 16.7146 49.7735C16.4845 53.2165 19.0264 56.3906 21.4253 58.5487C24.0293 60.8907 28.3682 63.8639 31.6103 60.902C31.8233 60.708 31.5503 60.356 31.3063 60.505Z" fill="white"/>
<path d="M28.5117 61.9938C29.8517 62.3948 31.1337 61.9148 32.3797 61.4399C33.6927 60.9399 35.0067 60.407 36.2608 59.772C37.5088 59.139 38.7538 58.4621 39.9378 57.7171C40.5488 57.3331 41.1418 56.9142 41.7279 56.4922C42.2799 56.0952 42.9919 55.6972 43.4239 55.1682C43.6349 54.9092 43.7639 54.5062 43.5489 54.2002C43.5289 54.1712 43.5079 54.1422 43.4879 54.1132C43.2699 53.8022 42.8919 53.6722 42.5429 53.8652C42.0359 54.1452 41.5889 54.6102 41.1269 54.9601C40.5839 55.3721 40.0309 55.7701 39.4699 56.1571C38.3798 56.9081 37.2998 57.656 36.1578 58.33C35.0248 58.999 33.8818 59.6589 32.7047 60.2479C31.4057 60.8979 30.0057 61.6748 28.5407 61.7858C28.4237 61.7938 28.3927 61.9577 28.5117 61.9938Z" fill="white"/>
<path d="M16.7286 45.9916C16.7456 45.9916 16.7456 45.9646 16.7286 45.9646C16.7116 45.9656 16.7116 45.9916 16.7286 45.9916Z" fill="white"/>
<path d="M17.7578 48.9704C17.9358 47.0644 19.9118 46.2294 21.3779 45.3785C22.7759 44.5665 24.2149 43.8316 25.6739 43.1346C28.487 41.7907 31.815 40.2848 34.959 41.1929C37.746 41.998 40.0899 43.9481 41.3368 46.5711C42.0098 47.9851 42.3627 49.5591 42.3977 51.1221C42.4207 52.1431 41.7826 53.6621 42.4996 54.4761C42.6136 54.6061 42.7916 54.5931 42.9336 54.5322C44.1086 54.0292 43.8407 51.3592 43.7547 50.3402C43.6138 48.6562 43.1598 47.0132 42.3659 45.5191C40.7609 42.5001 37.761 40.311 34.376 39.7859C32.651 39.5178 30.92 39.4258 29.238 39.9517C27.311 40.5547 25.438 41.4766 23.675 42.4496C21.9439 43.4045 20.1309 44.4234 18.6229 45.7134C17.6928 46.5084 16.6758 47.8203 17.3887 49.0704C17.4917 49.2544 17.7407 49.1564 17.7578 48.9704Z" fill="white"/>
<path d="M20.5211 51.1944C20.6441 51.2914 20.7591 51.4024 20.8971 51.4754C21.0891 51.5774 21.2061 51.5814 21.3021 51.7654C21.4931 52.1304 22.0151 52.2664 22.3581 52.4635C23.067 52.8695 23.728 53.3295 24.315 53.9005C24.907 54.4765 25.406 55.1226 25.793 55.8526C26.1709 56.5656 26.4299 57.3516 26.3289 58.1656C26.3069 58.3396 26.5389 58.3906 26.6459 58.2966C27.0039 57.9826 27.2119 57.6156 27.2579 57.1376C27.3039 56.6556 27.2319 56.1376 27.063 55.6866C26.72 54.7726 26.079 53.9666 25.395 53.2796C24.7331 52.6145 23.9591 52.0135 23.1241 51.5815C22.9321 51.4825 22.7341 51.3945 22.5361 51.3095C22.3041 51.2105 22.0221 51.0515 21.7641 51.0674C21.6461 51.0744 21.5591 51.1485 21.4521 51.1695C21.3401 51.1915 21.2151 51.1494 21.1051 51.1304C20.9021 51.0944 20.7301 51.1314 20.5281 51.1714C20.5181 51.1744 20.5141 51.1884 20.5211 51.1944Z" fill="white"/>
<path d="M23.2227 52.5917C23.1618 52.3757 23.0648 52.1737 23.0038 51.9567C22.9488 51.7617 22.7398 51.6977 22.5688 51.7796C22.2328 51.9416 22.2118 52.3736 22.1787 52.7026C22.2197 52.6026 22.2608 52.5036 22.3028 52.4036C21.9897 52.6496 22.0887 53.1146 22.1477 53.4586C22.1967 53.7457 22.2937 54.0196 22.4147 54.2846C22.6537 54.8077 23.0377 55.2497 23.5097 55.5757C23.9896 55.9087 24.5666 56.0817 25.1456 56.1297C25.7416 56.1777 26.6686 56.1228 26.8587 55.4378C26.8097 55.5018 26.7597 55.5658 26.7107 55.6308C26.7267 55.6188 26.7417 55.6078 26.7567 55.5958C27.0227 55.3968 26.8817 54.9248 26.5167 55.0268C26.4987 55.0318 26.4807 55.0368 26.4617 55.0418C26.5447 55.0528 26.6277 55.0638 26.7097 55.0748C26.3937 54.9128 26.1377 54.9738 25.8077 55.0438C25.6217 55.0837 25.4467 55.0947 25.2027 55.0817C24.8247 55.0617 24.4157 54.9307 24.0587 54.6937C23.9207 54.6017 23.7507 54.4467 23.6147 54.2817C23.5257 54.1737 23.3877 53.9477 23.3047 53.7657C23.2767 53.7047 23.2487 53.6277 23.2157 53.5177C23.1857 53.4187 23.1607 53.3167 23.1417 53.2147C23.1367 53.1867 23.1317 53.1587 23.1267 53.1307C23.1307 53.1637 23.1297 53.1627 23.1267 53.1267C23.1197 53.0707 23.1157 53.0137 23.1137 52.9577C23.1027 52.7337 23.0858 52.5637 22.9018 52.4047C22.9428 52.5047 22.9837 52.6037 23.0257 52.7037C23.0288 52.4207 23.1298 52.1457 22.9758 51.8877C22.8408 52.0227 22.7058 52.1577 22.5708 52.2926C22.7648 52.4077 22.9348 52.5537 23.1277 52.6687C23.1747 52.6957 23.2377 52.6467 23.2227 52.5917Z" fill="white"/>
<path d="M42.5814 53.9162C43.8085 53.3353 44.9825 52.6643 46.1635 51.9963C46.7345 51.6733 47.2985 51.3393 47.8565 50.9954C48.1505 50.8154 48.4355 50.6124 48.7475 50.4654C49.0965 50.3014 49.2825 50.0894 49.3466 49.7074C49.3716 49.5544 49.3086 49.3554 49.1286 49.3244C48.7916 49.2664 48.5256 49.2864 48.2556 49.5214C47.9916 49.7504 47.7356 49.9724 47.4525 50.1814C46.9065 50.5853 46.3555 50.9823 45.8005 51.3753C44.6955 52.1593 43.5385 52.8712 42.4004 53.6062C42.2054 53.7342 42.3744 54.0142 42.5814 53.9162Z" fill="white"/>
<path d="M168.635 106.347C169.658 105.055 170.698 103.771 171.649 102.424C172.475 101.253 173.006 99.8542 173.525 98.5272C174.076 97.1192 174.548 95.6923 174.957 94.2373C175.376 92.7453 175.486 91.5243 174.014 90.6592C173.837 90.5552 173.658 90.7932 173.797 90.9402C174.883 92.0853 174.215 93.6103 173.873 94.9542C173.532 96.2972 173.083 97.6202 172.601 98.9182C172.121 100.212 171.595 101.447 170.807 102.582C169.986 103.766 169.199 104.968 168.416 106.178C168.332 106.308 168.536 106.472 168.635 106.347Z" fill="white"/>
<path d="M23.8776 46.5426C26.2155 47.6417 28.2045 49.4177 29.6304 51.5638C30.3204 52.6028 30.8943 53.7328 31.3063 54.9108C31.5123 55.4999 31.6683 56.1019 31.8173 56.7069C31.9852 57.3849 32.2472 58.0479 32.3262 58.7449C32.3332 58.8029 32.4182 58.8059 32.4192 58.7449C32.4292 58.0699 32.5222 57.3959 32.4293 56.7219C32.3403 56.0769 32.1473 55.4429 31.9323 54.8298C31.4793 53.5408 30.8494 52.3218 30.0444 51.2178C28.4815 49.0737 26.3845 47.4187 23.9256 46.4266C23.8606 46.4016 23.8126 46.5126 23.8776 46.5426Z" fill="white"/>
<path d="M28.1299 47.4209C31.5769 49.979 33.5697 54.1051 34.0566 58.3181C34.0656 58.3931 34.1726 58.3971 34.1756 58.3181C34.2177 57.2101 34.1727 56.1841 33.8747 55.1081C33.5777 54.0351 33.1518 53.0021 32.6108 52.0301C31.5429 50.1121 30.0339 48.501 28.216 47.272C28.124 47.209 28.0429 47.3559 28.1299 47.4209Z" fill="white"/>
<path d="M30.4341 47.9688C31.4731 49.2688 32.455 50.5989 33.242 52.0689C34.0319 53.5419 34.4899 55.1169 35.1288 56.6509C35.1588 56.7219 35.2868 56.725 35.2788 56.631C35.1299 54.99 34.3729 53.3809 33.587 51.9509C32.771 50.4659 31.7491 49.0518 30.4851 47.9178C30.4501 47.8848 30.4051 47.9318 30.4341 47.9688Z" fill="white"/>
<path d="M31.4474 47.087C32.7764 48.066 33.7324 49.4661 34.4343 50.9441C35.1313 52.4091 35.5112 53.9901 36.1492 55.4771C36.1792 55.5481 36.2742 55.4932 36.2642 55.4282C35.9962 53.7651 35.3833 52.1161 34.6223 50.6171C33.8834 49.1611 32.8794 47.897 31.4874 47.018C31.4435 46.991 31.4064 47.058 31.4474 47.087Z" fill="white"/>
<path d="M32.5477 45.6448C33.7857 46.1889 34.7017 47.2269 35.3507 48.3929C36.0936 49.7289 36.4266 51.2289 36.9055 52.667C36.9465 52.79 37.1195 52.739 37.0975 52.614C36.5946 49.838 35.4447 46.6529 32.5887 45.5468C32.5327 45.5258 32.4927 45.6208 32.5477 45.6448Z" fill="white"/>
<path d="M34.4033 44.8279C37.4992 46.805 39.2711 50.4231 39.245 54.066C39.245 54.127 39.33 54.1231 39.338 54.0661C39.8161 50.3141 37.7392 46.555 34.4733 44.7079C34.3953 44.6639 34.3273 44.7799 34.4033 44.8279Z" fill="white"/>
<path d="M35.0262 42.3089C36.8982 43.2669 38.3761 44.732 39.3941 46.573C39.921 47.526 40.284 48.558 40.516 49.62C40.7529 50.702 40.9239 51.8661 40.9629 52.9701C40.9639 52.9961 40.9999 53.0011 41.0089 52.9761C41.3769 51.8341 41.4979 50.7811 41.307 49.5911C41.115 48.3921 40.6701 47.231 40.0301 46.201C38.8921 44.368 37.0852 42.9579 35.0832 42.1749C35.0052 42.1449 34.9532 42.2709 35.0262 42.3089Z" fill="white"/>
<path d="M36.6642 45.2712C37.7952 46.0022 38.4692 47.2302 38.9922 48.4363C39.2821 49.1063 39.5661 49.7803 39.8311 50.4603C40.1421 51.2583 40.39 52.0473 40.297 52.9143C40.293 52.9513 40.355 52.9603 40.362 52.9233C40.6621 51.2763 40.2251 49.6873 39.4772 48.2203C38.8402 46.9712 37.9992 45.8192 36.7082 45.1972C36.6582 45.1732 36.6172 45.2412 36.6642 45.2712Z" fill="white"/>
<path d="M36.5857 48.2379C36.9616 48.6119 37.0846 49.1129 37.2206 49.6089C37.3686 50.1509 37.5346 50.6869 37.6696 51.2329C37.9335 52.2989 38.1495 53.3779 38.4355 54.4389C38.4555 54.5149 38.5595 54.4929 38.5655 54.4209C38.6725 53.2219 38.4755 52.012 38.1346 50.8629C37.8516 49.9089 37.5046 48.7549 36.6577 48.1439C36.6027 48.1039 36.5387 48.1909 36.5857 48.2379Z" fill="white"/>
<path d="M21.3973 44.8666C21.9593 44.8127 22.5203 44.7607 23.0823 44.7097C23.3533 44.6857 23.6233 44.6507 23.8933 44.6187C24.1283 44.5907 24.4383 44.6107 24.6313 44.4577C24.6653 44.4307 24.6573 44.3607 24.6163 44.3427C24.3903 44.2457 24.0943 44.3447 23.8603 44.3787C23.5913 44.4187 23.3213 44.4547 23.0533 44.5017C22.4973 44.5987 21.9423 44.6937 21.3863 44.7886C21.3433 44.7966 21.3523 44.8706 21.3973 44.8666Z" fill="white"/>
<path d="M23.6876 43.8168C24.1406 43.8088 24.5946 43.8118 25.0486 43.8278C25.2666 43.8359 25.4856 43.8459 25.7036 43.8589C25.8666 43.8689 26.1766 43.9439 26.2996 43.8069C26.3156 43.7889 26.3256 43.7559 26.3087 43.7349C26.1957 43.5859 25.9197 43.6289 25.7537 43.6289C25.5267 43.6299 25.2997 43.6339 25.0737 43.6399C24.6107 43.6538 24.1486 43.6798 23.6876 43.7168C23.6246 43.7228 23.6226 43.8188 23.6876 43.8168Z" fill="white"/>
<path d="M25.0875 43.3527C25.3905 43.3727 25.6935 43.3978 25.9965 43.4288C26.1475 43.4448 26.2985 43.4608 26.4495 43.4798C26.5195 43.4888 26.5885 43.4978 26.6585 43.5048C26.7465 43.5138 26.8045 43.4968 26.8855 43.4628C26.9435 43.4388 26.9525 43.3738 26.9025 43.3358C26.8325 43.2828 26.7835 43.2518 26.6945 43.2388C26.6245 43.2288 26.5545 43.2218 26.4845 43.2138C26.3275 43.1968 26.1705 43.1818 26.0135 43.1688C25.7055 43.1418 25.3965 43.1217 25.0875 43.1067C24.9295 43.0997 24.9315 43.3427 25.0875 43.3527Z" fill="white"/>
<path d="M26.3023 42.6307C26.5303 42.6947 26.7573 42.7587 26.9852 42.8227C27.0972 42.8537 27.2092 42.8857 27.3202 42.9167C27.4152 42.9437 27.5482 42.9877 27.6432 42.9467C27.6662 42.9367 27.6762 42.8978 27.6612 42.8788C27.5982 42.7978 27.4623 42.7707 27.3673 42.7487C27.2543 42.7217 27.1413 42.6947 27.0283 42.6677C26.7983 42.6127 26.5683 42.5577 26.3383 42.5027C26.2543 42.4837 26.2193 42.6077 26.3023 42.6307Z" fill="white"/>
<path d="M27.0638 42.4367C27.3898 42.5047 27.7158 42.5737 28.0418 42.6417C28.2078 42.6767 28.3738 42.7187 28.5418 42.7417C28.6578 42.7567 28.9138 42.8207 28.9508 42.6517C28.9878 42.4807 28.7348 42.4407 28.6218 42.4137C28.4598 42.3747 28.2928 42.3557 28.1278 42.3287C27.7978 42.2747 27.4678 42.2217 27.1378 42.1677C27.0638 42.1557 26.9878 42.1867 26.9668 42.2647C26.9468 42.3347 26.9898 42.4207 27.0638 42.4367Z" fill="white"/>
<path d="M27.8897 41.8307C28.1397 41.9207 28.3897 42.0107 28.6397 42.1017C28.7627 42.1457 28.8857 42.1907 29.0077 42.2347C29.0717 42.2577 29.1357 42.2777 29.2007 42.2947C29.2687 42.3127 29.3216 42.3197 29.3916 42.3057C29.4556 42.2927 29.4677 42.2097 29.4287 42.1677C29.3397 42.0727 29.1937 42.0397 29.0717 42.0047C28.9467 41.9687 28.8217 41.9327 28.6967 41.8967C28.4417 41.8237 28.1867 41.7507 27.9327 41.6777C27.8327 41.6487 27.7947 41.7967 27.8897 41.8307Z" fill="white"/>
<path d="M28.9303 41.4198C29.1963 41.4798 29.4613 41.5409 29.7273 41.6009C29.8553 41.6299 29.9833 41.6588 30.1113 41.6879C30.2413 41.7179 30.3933 41.7609 30.5123 41.6809C30.5433 41.6599 30.5613 41.6159 30.5383 41.5809C30.4583 41.4609 30.3183 41.4409 30.1853 41.4189C30.0553 41.3979 29.9253 41.3759 29.7953 41.3549C29.5253 41.3109 29.2553 41.2659 28.9853 41.2218C28.8563 41.2008 28.7983 41.3898 28.9303 41.4198Z" fill="white"/>
<path d="M29.4829 41.1197C29.8009 41.2067 30.1189 41.2937 30.4369 41.3807C30.5929 41.4237 30.7489 41.4667 30.9049 41.5087C31.0379 41.5448 31.2239 41.6218 31.3549 41.5538C31.3869 41.5368 31.3999 41.4888 31.3799 41.4588C31.2969 41.3368 31.1019 41.3157 30.9679 41.2837C30.8099 41.2467 30.6529 41.2097 30.4949 41.1727C30.1739 41.0977 29.8529 41.0227 29.5319 40.9467C29.4179 40.9207 29.3709 41.0887 29.4829 41.1197Z" fill="white"/>
<path d="M30.2743 40.914C30.6013 40.965 30.9253 41.027 31.2483 41.1C31.4073 41.136 31.5643 41.174 31.7223 41.216C31.8043 41.237 31.8853 41.259 31.9683 41.275C32.0503 41.291 32.1103 41.285 32.1913 41.266C32.2363 41.256 32.2533 41.1921 32.2193 41.1611C32.1583 41.1061 32.1103 41.071 32.0313 41.046C31.9503 41.021 31.8683 41.004 31.7853 40.987C31.6193 40.954 31.4533 40.923 31.2863 40.895C30.9573 40.84 30.6263 40.797 30.2953 40.764C30.2093 40.756 30.1893 40.901 30.2743 40.914Z" fill="white"/>
<path d="M23.0906 43.9438C23.4686 44.0638 23.8526 44.1588 24.2356 44.2578C24.4196 44.3058 24.6046 44.3538 24.7896 44.4018C24.9586 44.4458 25.1736 44.5438 25.3486 44.5058C25.4006 44.4948 25.4266 44.4138 25.3826 44.3788C25.2416 44.2668 25.0126 44.2588 24.8396 44.2218C24.6526 44.1828 24.4656 44.1428 24.2786 44.1038C23.8896 44.0218 23.5026 43.9348 23.1096 43.8737C23.0646 43.8657 23.0446 43.9288 23.0906 43.9438Z" fill="white"/>
<path d="M22.3467 44.8306C22.6417 44.8216 22.9367 44.8366 23.2287 44.8797C23.3667 44.9007 23.5047 44.9267 23.6407 44.9587C23.7097 44.9747 23.7797 44.9997 23.8507 45.0097C23.9227 45.0207 23.9957 45.0247 24.0677 45.0327C24.1107 45.0377 24.1257 44.9717 24.0897 44.9527C24.0257 44.9187 23.9597 44.8827 23.8927 44.8557C23.8267 44.8297 23.7537 44.8177 23.6837 44.8027C23.5397 44.7717 23.3947 44.7477 23.2487 44.7297C22.9497 44.6916 22.6477 44.6816 22.3457 44.6966C22.2627 44.7016 22.2617 44.8326 22.3467 44.8306Z" fill="white"/>
<path d="M22.7855 44.3116C23.0405 44.3856 23.2945 44.4596 23.5495 44.5347C23.6745 44.5707 23.7995 44.6077 23.9245 44.6437C23.9895 44.6627 24.0535 44.6827 24.1185 44.7007C24.1725 44.7157 24.2165 44.7277 24.2695 44.7047C24.2895 44.6957 24.2975 44.6627 24.2845 44.6457C24.2505 44.5997 24.2075 44.5887 24.1525 44.5737C24.0875 44.5567 24.0215 44.5417 23.9555 44.5257C23.8295 44.4947 23.7025 44.4627 23.5765 44.4317C23.3185 44.3677 23.0615 44.3046 22.8035 44.2406C22.7595 44.2306 22.7405 44.2986 22.7855 44.3116Z" fill="white"/>
<path d="M21.3777 44.9006C21.6417 44.9676 21.9027 45.0466 22.1597 45.1376C22.2877 45.1836 22.4157 45.2326 22.5417 45.2837C22.6647 45.3337 22.7947 45.3926 22.9267 45.4117C22.9777 45.4197 23.0367 45.3547 22.9847 45.3117C22.7787 45.1407 22.4827 45.0657 22.2317 44.9847C21.9627 44.8987 21.6907 44.8256 21.4147 44.7656C21.3277 44.7476 21.2907 44.8786 21.3777 44.9006Z" fill="white"/>
<path d="M36.5777 56.645C36.5977 56.94 36.5836 57.232 36.5576 57.526C36.5456 57.667 36.5256 57.808 36.4986 57.948C36.4846 58.022 36.4626 58.097 36.4516 58.172C36.4416 58.243 36.4546 58.308 36.4766 58.377C36.4896 58.416 36.5356 58.428 36.5656 58.4C36.6856 58.292 36.7056 58.165 36.7316 58.012C36.7586 57.857 36.7786 57.7 36.7896 57.543C36.8126 57.237 36.7827 56.926 36.7327 56.624C36.7187 56.536 36.5707 56.556 36.5777 56.645Z" fill="white"/>
<path d="M21.6555 52.9447C21.5875 52.9797 21.5185 53.0147 21.4505 53.0497C21.4385 53.0557 21.4495 53.0727 21.4605 53.0667C21.5295 53.0337 21.5995 53.0007 21.6685 52.9667C21.6835 52.9607 21.6705 52.9377 21.6555 52.9447Z" fill="white"/>
<path d="M21.6474 52.9446C21.5754 53.0166 21.5044 53.0876 21.4324 53.1596C21.4284 53.1636 21.4254 53.1716 21.4274 53.1766C21.4994 53.3596 21.4424 53.5226 21.4384 53.7086C21.4344 53.8466 21.4574 53.9916 21.4674 54.1296C21.4873 54.3906 21.5273 54.6516 21.6173 54.8986C21.7853 55.3636 22.0773 55.7806 22.4363 56.1186C22.8303 56.4906 23.2853 56.7867 23.8053 56.9457C24.3153 57.1017 24.9453 57.1057 25.4303 56.8647C25.4583 56.8507 25.4513 56.8047 25.4213 56.7977C25.1663 56.7377 24.9053 56.7217 24.6493 56.6687C24.3873 56.6157 24.1203 56.5537 23.8623 56.4817C23.3543 56.3406 22.8853 56.1237 22.5143 55.7426C22.1743 55.3936 21.9313 54.9456 21.8183 54.4716C21.7564 54.2136 21.7704 53.9456 21.7154 53.6876C21.6914 53.5766 21.6284 53.4676 21.5744 53.3686C21.5364 53.2996 21.4884 53.2526 21.4994 53.1736C21.5114 53.0866 21.6054 53.0186 21.6624 52.9546C21.6694 52.9496 21.6564 52.9356 21.6474 52.9446Z" fill="white"/>
<path d="M23.4697 51.0246C24.5607 51.5866 25.5297 52.4407 26.2006 53.4697C26.5286 53.9727 26.8066 54.4987 27.0276 55.0567C27.2556 55.6327 27.3605 56.2427 27.5835 56.8177C27.6015 56.8637 27.6715 56.8727 27.6855 56.8177C27.8465 56.2027 27.6996 55.5178 27.5076 54.9237C27.3086 54.3067 26.9946 53.7147 26.5976 53.2017C25.7977 52.1637 24.7397 51.3787 23.4767 51.0056C23.4667 51.0026 23.4597 51.0186 23.4697 51.0246Z" fill="white"/>
<path d="M3.41788 26.4511C6.0888 28.9682 9.29374 30.7993 12.7657 31.9704C16.1097 33.0985 19.9637 33.8236 23.4917 33.3407C23.5967 33.3267 23.5557 33.1817 23.4687 33.1717C21.5917 32.9487 19.7247 32.8286 17.8677 32.4516C16.2167 32.1165 14.5877 31.6875 12.9977 31.1304C9.64377 29.9563 6.48082 28.2752 3.52688 26.3121C3.44089 26.2541 3.34388 26.3811 3.41788 26.4511Z" fill="white"/>
<path d="M4.28077 31.779C6.74771 33.9071 9.72267 35.2062 12.8086 36.1743C14.4176 36.6793 16.0676 37.0844 17.7366 37.3324C19.5406 37.6005 21.3536 37.5635 23.1116 38.1046C23.1486 38.1156 23.1676 38.0636 23.1376 38.0436C21.7476 37.1525 19.9766 37.0345 18.3846 36.7564C16.7706 36.4744 15.1576 36.2043 13.5646 35.8113C10.2667 34.9972 7.17372 33.5651 4.33677 31.707C4.29377 31.677 4.24077 31.744 4.28077 31.779Z" fill="white"/>
<path d="M5.88059 31.8032C6.17058 32.1702 6.64657 32.4212 7.03956 32.6682C7.50056 32.9572 7.97855 33.2222 8.45754 33.4792C9.37752 33.9723 10.3195 34.4103 11.2935 34.7843C13.2515 35.5364 15.3625 36.1185 17.4675 36.2075C17.5015 36.2085 17.5075 36.1575 17.4755 36.1485C15.4715 35.5875 13.4695 35.0884 11.5195 34.3473C10.5205 33.9673 9.53054 33.5513 8.56855 33.0862C8.10756 32.8642 7.65657 32.6242 7.20457 32.3852C6.79258 32.1672 6.36459 31.8602 5.90959 31.7522C5.87859 31.7462 5.86259 31.7802 5.88059 31.8032Z" fill="white"/>
<path d="M8.0732 32.1652C9.29218 32.8502 10.5462 33.4962 11.8461 34.0153C12.4891 34.2713 13.1411 34.5003 13.8121 34.6673C14.4251 34.8204 15.1401 35.0344 15.7751 34.9184C15.8551 34.9034 15.8331 34.8024 15.7751 34.7774C15.1561 34.5174 14.4191 34.4784 13.7701 34.2993C13.1491 34.1283 12.5341 33.9343 11.9292 33.7113C10.6312 33.2323 9.37919 32.6472 8.10921 32.1002C8.06821 32.0842 8.03121 32.1422 8.0732 32.1652Z" fill="white"/>
<path d="M6.71501 30.0852C8.73598 31.3153 10.9229 32.2654 13.1429 33.0774C14.2849 33.4955 15.4529 33.8445 16.6369 34.1195C17.7279 34.3736 18.9109 34.6366 20.0319 34.6496C20.1019 34.6506 20.1089 34.5546 20.0479 34.5326C18.9979 34.1556 17.8519 33.9216 16.7749 33.6205C15.6429 33.3045 14.5179 32.9655 13.3979 32.6104C11.128 31.8904 8.94899 30.9483 6.77502 29.9822C6.70702 29.9522 6.64801 30.0442 6.71501 30.0852Z" fill="white"/>
<path d="M27.5567 37.9668C27.3667 37.9698 27.1797 37.9488 26.9907 37.9318C26.9667 37.9298 26.9557 37.9688 26.9777 37.9788C27.5497 38.2218 28.1907 38.3408 28.7867 38.5178C29.4577 38.7168 30.1277 38.9238 30.7937 39.1409C31.4367 39.3509 32.0767 39.5719 32.7146 39.7959C33.3086 40.0049 33.9816 40.379 34.6216 40.369C34.7606 40.367 34.8386 40.192 34.7366 40.092C34.2766 39.642 33.5267 39.4759 32.9337 39.2709C32.2257 39.0259 31.5097 38.8139 30.7847 38.6259C30.0817 38.4429 29.3747 38.2888 28.6597 38.1588C28.3017 38.0938 27.9427 38.0358 27.5827 37.9828C27.5027 37.9708 27.2177 37.8868 27.1327 37.9298C27.1137 38.0118 27.1607 38.0287 27.2737 37.9818C27.3687 37.9768 27.4627 37.9808 27.5567 37.9948C27.5747 37.9968 27.5757 37.9668 27.5567 37.9668Z" fill="white"/>
<path d="M27.2972 38.9749C27.9322 39.2569 28.6122 39.449 29.2702 39.672C29.6032 39.785 29.9352 39.898 30.2682 40.011C30.4342 40.068 30.6011 40.124 30.7671 40.18C30.9501 40.242 31.0461 40.253 31.1991 40.134C31.2191 40.118 31.2262 40.083 31.2192 40.06C31.1662 39.888 31.0792 39.8411 30.9132 39.7911C30.7452 39.741 30.5752 39.697 30.4062 39.65C30.0682 39.556 29.7302 39.462 29.3922 39.368C28.7192 39.181 28.0452 38.9539 27.3572 38.8289C27.2772 38.8139 27.2092 38.9349 27.2972 38.9749Z" fill="white"/>
<path d="M29.7401 35.1347C31.3801 35.4937 32.8731 36.2088 34.3901 36.9048C36.0021 37.6439 37.613 38.3839 39.236 39.101C42.388 40.4921 45.5789 41.7802 48.8259 42.9313C48.8539 42.9413 48.8729 42.8963 48.8459 42.8833C45.644 41.2172 42.372 39.7081 39.055 38.286C36.0881 37.0139 33.0051 35.4348 29.7761 35.0007C29.6911 34.9887 29.6501 35.1147 29.7401 35.1347Z" fill="white"/>
<path d="M43.6384 48.5112C44.2494 48.7902 44.8424 49.1053 45.4134 49.4593C45.6954 49.6333 45.9694 49.8193 46.2384 50.0133C46.3734 50.1113 46.5074 50.2113 46.6394 50.3133C46.7764 50.4193 46.9064 50.5433 47.0594 50.6264C47.3314 50.7724 47.5164 50.3204 47.2214 50.2413C47.1114 50.2113 47.0184 50.1314 46.9184 50.0793C46.8154 50.0253 46.7144 49.9683 46.6094 49.9193C46.5614 49.8973 46.5034 49.9573 46.5494 49.9973C46.6924 50.1213 46.9204 50.3083 46.9624 50.5013C47.0794 50.4334 47.1974 50.3643 47.3144 50.2963C47.0914 50.0573 46.7624 49.8843 46.4874 49.7103C46.1904 49.5223 45.8884 49.3433 45.5814 49.1733C44.9834 48.8413 44.3644 48.5503 43.7305 48.2953C43.6065 48.2433 43.5154 48.4552 43.6384 48.5112Z" fill="white"/>
<path d="M43.1652 48.9592C43.2062 49.0042 43.2182 49.0501 43.2722 49.0871C43.3382 49.1331 43.4062 49.1742 43.4762 49.2132C43.6081 49.2872 43.7402 49.3622 43.8701 49.4402C44.1451 49.6052 44.4151 49.7792 44.6781 49.9642C44.9331 50.1432 45.1821 50.3302 45.4231 50.5272C45.6551 50.7172 45.8951 50.9892 46.1941 51.0672C46.2971 51.0942 46.4251 50.9922 46.3811 50.8792C46.2661 50.5842 45.9761 50.3962 45.7331 50.2112C45.4711 50.0122 45.2021 49.8222 44.9261 49.6432C44.6571 49.4682 44.3821 49.3042 44.1012 49.1492C43.9602 49.0721 43.8192 48.9972 43.6752 48.9242C43.6062 48.8892 43.5372 48.8581 43.4652 48.8301C43.4342 48.8181 43.3992 48.7991 43.3672 48.7931C43.3172 48.7831 43.2812 48.8041 43.2312 48.8001C43.1462 48.7931 43.1162 48.9052 43.1652 48.9592Z" fill="white"/>
<path d="M43.0837 49.5433C43.5667 49.7963 44.0357 50.0733 44.4877 50.3783C44.7107 50.5283 44.9267 50.6883 45.1467 50.8443C45.2527 50.9193 45.3566 50.9983 45.4626 51.0744C45.5746 51.1534 45.6956 51.2514 45.8366 51.2554C45.9326 51.2584 46.0066 51.1584 45.9806 51.0664C45.9437 50.9364 45.8286 50.8544 45.7267 50.7724C45.6187 50.6854 45.5027 50.6074 45.3887 50.5274C45.1617 50.3693 44.9237 50.2283 44.6837 50.0923C44.2017 49.8183 43.7047 49.5723 43.1947 49.3553C43.0687 49.3013 42.9557 49.4763 43.0837 49.5433Z" fill="white"/>
<path d="M43.5169 50.2064C43.8839 50.6684 44.2959 51.0795 44.7619 51.4415C44.8459 51.5075 45.0079 51.6755 45.1279 51.6085C45.2599 51.5355 45.0739 51.3805 45.0139 51.3365C44.7779 51.1635 44.5529 50.9775 44.3379 50.7805C44.0949 50.5574 43.8569 50.3325 43.6349 50.0884C43.5609 50.0084 43.4519 50.1244 43.5169 50.2064Z" fill="white"/>
<path d="M43.2619 50.5054C43.7169 50.8004 44.1509 51.1234 44.5619 51.4774C44.6359 51.5404 44.7809 51.6964 44.8839 51.5884C44.9699 51.4974 44.8599 51.3854 44.7899 51.3304C44.5779 51.1604 44.3599 50.9974 44.1379 50.8414C43.8849 50.6644 43.6249 50.4974 43.3599 50.3404C43.2519 50.2764 43.1579 50.4384 43.2619 50.5054Z" fill="white"/>
<path d="M42.6711 50.7592C43.0401 50.9182 43.3951 51.1032 43.7431 51.3032C43.9121 51.4012 44.0791 51.5042 44.2421 51.6122C44.3121 51.6592 44.3961 51.7032 44.4471 51.7722C44.4741 51.8092 44.5131 51.8773 44.5211 51.9203C44.5251 51.9383 44.5431 51.9553 44.5601 51.9593C44.6461 51.9813 44.7171 51.9282 44.7421 51.8452C44.7711 51.7462 44.7131 51.6522 44.6501 51.5812C44.5741 51.4962 44.4701 51.4422 44.3741 51.3852C44.2701 51.3242 44.1651 51.2652 44.0581 51.2082C43.6311 50.9792 43.1811 50.7922 42.7221 50.6372C42.6521 50.6142 42.6011 50.7292 42.6711 50.7592Z" fill="white"/>
<path d="M43.1055 51.3463C43.3025 51.5373 43.5055 51.7203 43.7165 51.8953C43.8205 51.9823 43.9255 52.0693 44.0345 52.1503C44.0865 52.1893 44.1405 52.2293 44.1955 52.2633C44.2555 52.3013 44.3265 52.3193 44.3945 52.3353C44.4315 52.3433 44.4705 52.3023 44.4465 52.2673C44.4125 52.2163 44.3775 52.1643 44.3325 52.1223C44.2825 52.0743 44.2195 52.0363 44.1645 51.9943C44.0575 51.9133 43.9455 51.8363 43.8385 51.7543C43.6225 51.5903 43.4145 51.4183 43.2115 51.2383C43.1405 51.1743 43.0345 51.2783 43.1055 51.3463Z" fill="white"/>
<path d="M43.7719 49.1173C43.6829 49.1113 43.6499 49.0613 43.6729 48.9693C43.7919 48.8913 43.8939 48.8883 43.9789 48.9633C44.0519 48.9953 44.1199 49.0493 44.1879 49.0913C44.3429 49.1873 44.4979 49.2853 44.6559 49.3773C44.9509 49.5484 45.2469 49.7194 45.5419 49.8894C45.8369 50.0604 46.1319 50.2314 46.4279 50.4024C46.7199 50.5704 47.0419 50.7824 47.3789 50.8344C47.4369 50.8434 47.4789 50.7824 47.4369 50.7344C47.2689 50.5424 47.0419 50.4304 46.8229 50.3064C46.6099 50.1864 46.3929 50.0764 46.1759 49.9644C45.7099 49.7234 45.2439 49.4813 44.7789 49.2403C44.5509 49.1223 44.3199 49.0103 44.0869 48.9033C43.9839 48.8553 43.8109 48.8063 43.7079 48.8803C43.6109 48.9483 43.6349 49.1653 43.7769 49.1313C43.7839 49.1273 43.7809 49.1153 43.7719 49.1173Z" fill="white"/>
<path d="M44.6997 50.8023C44.9027 50.9843 45.1147 51.1563 45.3337 51.3183C45.4417 51.3983 45.5517 51.4753 45.6637 51.5503C45.7217 51.5883 45.7797 51.6263 45.8377 51.6633C45.8677 51.6823 45.8977 51.7053 45.9297 51.7193C45.9767 51.7403 45.9987 51.7184 46.0467 51.7224C46.0677 51.7244 46.0857 51.6954 46.0727 51.6774C46.0497 51.6454 46.0527 51.6134 46.0207 51.5864C45.9967 51.5664 45.9667 51.5533 45.9397 51.5383C45.8787 51.5053 45.8187 51.4714 45.7587 51.4374C45.6427 51.3704 45.5277 51.3013 45.4147 51.2283C45.1847 51.0813 44.9617 50.9233 44.7477 50.7553C44.7137 50.7303 44.6667 50.7733 44.6997 50.8023Z" fill="white"/>
<path d="M54.8301 45.7896C60.435 48.3598 66.1379 50.715 71.9289 52.8371C74.8509 53.9082 77.7868 54.9353 80.7448 55.9024C83.7738 56.8935 86.8027 57.9636 89.9347 58.5767C90.0107 58.5917 90.0377 58.4897 89.9667 58.4617C87.0607 57.3346 84.0538 56.4985 81.1108 55.4724C78.1698 54.4473 75.2459 53.3682 72.3349 52.2591C66.522 50.045 60.733 47.7648 54.8601 45.7156C54.8191 45.7026 54.7891 45.7716 54.8301 45.7896Z" fill="white"/>
<path d="M41.6986 45.0332C43.8576 45.8253 45.9365 46.8373 48.0965 47.6334C50.4365 48.4955 52.7285 49.4766 55.0204 50.4596C59.2574 52.2778 63.4773 54.4179 67.8513 55.876C67.8693 55.882 67.8803 55.855 67.8643 55.846C63.8573 53.4289 59.3104 51.6847 55.0065 49.8666C50.6855 48.0425 46.3606 45.8193 41.7936 44.6892C41.5666 44.6322 41.4846 44.9552 41.6986 45.0332Z" fill="white"/>
<path d="M83.1455 61.0765C91.1674 64.4387 99.5013 67.081 107.835 69.5512C116.092 71.9985 124.326 74.5747 132.643 76.811C134.963 77.4351 137.29 78.0381 139.625 78.6042C141.819 79.1363 144.255 79.9893 146.523 79.9864C146.799 79.9864 146.81 79.6304 146.584 79.5374C144.704 78.7633 142.496 78.5533 140.516 78.0822C138.412 77.5822 136.318 77.0421 134.234 76.465C130.142 75.3309 126.068 74.1258 121.995 72.9246C113.679 70.4724 105.395 67.9081 97.0684 65.4949C92.3934 64.1407 87.7725 62.5686 83.1645 61.0054C83.1195 60.9904 83.1035 61.0585 83.1455 61.0765Z" fill="white"/>
<path d="M96.0359 59.7949C102.439 61.6821 108.981 63.1543 115.471 64.7115C118.681 65.4816 121.898 66.2237 125.12 66.9428C128.249 67.6409 131.441 68.549 134.644 68.8121C134.791 68.8241 134.798 68.6161 134.677 68.5711C131.605 67.434 128.267 66.8899 125.08 66.1568C121.862 65.4167 118.642 64.6846 115.418 63.9715C108.97 62.5453 102.544 60.9471 96.0549 59.7239C96.0099 59.7159 95.9899 59.7809 96.0359 59.7949Z" fill="white"/>
<path d="M117.702 62.3046C118.543 62.7116 119.448 62.9836 120.327 63.2966C121.26 63.6277 122.192 63.9727 123.134 64.2777C123.173 64.1357 123.212 63.9937 123.251 63.8517C121.5 63.4407 119.751 63.0316 118.068 62.3885C118.029 62.5315 117.989 62.6736 117.95 62.8166C120.972 63.8586 124.126 64.5037 127.304 64.8308C127.607 64.8619 127.682 64.3409 127.377 64.2939C125.054 63.9358 122.79 63.3537 120.507 62.8056C120.441 62.7896 120.391 62.8886 120.459 62.9206C122.59 63.9217 124.907 64.4818 127.232 64.8208C127.256 64.6418 127.28 64.4628 127.305 64.2839C124.16 63.9868 121.084 63.3226 118.068 62.3885C117.793 62.3035 117.683 62.7235 117.951 62.8166C119.649 63.4046 121.391 63.8477 123.134 64.2777C123.412 64.3457 123.52 63.9417 123.251 63.8517C122.343 63.5457 121.423 63.2767 120.507 62.9956C119.594 62.7156 118.682 62.3856 117.744 62.2075C117.688 62.1975 117.645 62.2765 117.702 62.3046Z" fill="white"/>
<path d="M142.089 71.2402C148.85 73.3904 155.718 75.2846 162.641 76.8408C166.097 77.6179 169.577 78.328 173.083 78.8391C176.417 79.3252 179.875 79.7924 183.247 79.7465C183.294 79.7455 183.308 79.6705 183.259 79.6615C179.783 79.0604 176.275 78.6823 172.796 78.0752C169.383 77.4801 165.983 76.8299 162.599 76.0848C155.737 74.5746 148.956 72.7344 142.112 71.1562C142.058 71.1452 142.037 71.2232 142.089 71.2402Z" fill="white"/>
<path d="M125.327 72.6148C129.102 74.0509 132.923 75.25 136.839 76.2391C140.583 77.1852 144.406 78.2164 148.253 78.6195C148.276 78.6215 148.279 78.5865 148.258 78.5805C144.502 77.3804 140.547 76.7822 136.719 75.8461C132.892 74.91 129.056 73.8879 125.333 72.5888C125.318 72.5828 125.311 72.6088 125.327 72.6148Z" fill="white"/>
<path d="M144.391 97.8394C147.127 95.8265 150.663 96.8536 153.41 98.2777C156.138 99.6918 158.245 101.968 158.396 105.163C158.398 105.202 158.46 105.215 158.468 105.173C159.047 101.919 156.551 98.9898 153.793 97.6237C150.927 96.2046 146.953 95.4975 144.331 97.7624C144.289 97.7974 144.345 97.8734 144.391 97.8394Z" fill="white"/>
<path d="M146.935 95.9025C149.654 95.6196 152.367 96.1357 154.693 97.6078C155.67 98.2258 156.559 98.9878 157.299 99.8789C157.702 100.364 158.043 100.886 158.37 101.424C158.634 101.859 158.784 102.45 159.167 102.791C159.195 102.816 159.247 102.809 159.256 102.768C159.362 102.251 159.051 101.714 158.851 101.251C158.606 100.682 158.268 100.149 157.895 99.6549C157.13 98.6429 156.182 97.7658 155.092 97.1118C152.674 95.6607 149.668 95.2946 146.92 95.7925C146.859 95.8035 146.872 95.9095 146.935 95.9025Z" fill="white"/>
<path d="M146.235 88.2475C150.148 88.4756 153.949 89.6047 157.334 91.5848C158.964 92.5379 160.497 93.6279 161.908 94.884C162.663 95.556 163.431 96.235 164.019 97.061C164.65 97.948 164.939 98.887 165.22 99.921C165.256 100.053 165.437 100.016 165.448 99.89C165.608 98.0351 164.19 96.173 162.987 94.901C161.588 93.4219 159.894 92.1599 158.117 91.1718C154.507 89.1657 150.36 88.1346 146.237 88.1485C146.171 88.1485 146.172 88.2435 146.235 88.2475Z" fill="white"/>
<path d="M149.582 87.5246C150.927 87.8426 152.275 88.0637 153.602 88.4637C155.011 88.8888 156.388 89.4138 157.719 90.0419C158.954 90.6249 160.117 91.3299 161.231 92.119C161.805 92.526 162.391 92.929 162.93 93.382C163.495 93.858 163.994 94.4121 164.564 94.8791C164.644 94.9441 164.761 94.8641 164.71 94.7671C164.087 93.5771 162.936 92.466 161.889 91.646C160.73 90.739 159.419 90.0269 158.076 89.4329C155.486 88.2888 152.438 87.4927 149.595 87.4336C149.543 87.4326 149.531 87.5126 149.582 87.5246Z" fill="white"/>
<path d="M154.7 86.9486C156.831 88.1176 159.111 88.9557 161.184 90.2487C162.172 90.8648 163.142 91.5558 163.972 92.3758C164.394 92.7919 164.79 93.2489 165.109 93.7489C165.375 94.1649 165.585 94.6649 165.916 95.0299C165.968 95.0869 166.077 95.0599 166.093 94.9829C166.293 94.0059 165.48 92.9209 164.871 92.2409C164.036 91.3108 163.01 90.5628 161.949 89.9138C159.764 88.5777 157.217 87.4986 154.732 86.8746C154.688 86.8656 154.659 86.9266 154.7 86.9486Z" fill="white"/>
<path d="M157.443 86.8366C159.279 87.4117 161.032 88.3217 162.645 89.3648C163.452 89.8868 164.233 90.4608 164.963 91.0849C165.648 91.6699 166.285 92.3909 167.048 92.8699C167.091 92.8969 167.129 92.8449 167.112 92.8069C166.743 91.9629 165.97 91.2469 165.295 90.6439C164.558 89.9849 163.774 89.3918 162.936 88.8678C161.249 87.8128 159.412 87.1507 157.478 86.7096C157.396 86.6896 157.362 86.8106 157.443 86.8366Z" fill="white"/>
<path d="M150.144 80.5926C154.378 80.4487 158.611 81.3129 162.468 83.08C164.277 83.909 166.012 84.8901 167.613 86.0752C168.499 86.7312 169.37 87.4312 170.132 88.2302C170.944 89.0823 171.462 90.0852 172.14 91.0283C172.191 91.1003 172.306 91.0593 172.285 90.9673C171.834 88.9743 170.147 87.2062 168.623 85.9482C166.93 84.5511 165.041 83.3561 163.028 82.477C158.976 80.7069 154.541 80.0547 150.143 80.5066C150.09 80.5116 150.088 80.5946 150.144 80.5926Z" fill="white"/>
<path d="M158.74 82.8918C161.079 83.5799 163.227 84.8719 165.25 86.204C166.252 86.864 167.241 87.5641 167.983 88.5191C168.508 89.1951 169.044 90.0921 169.904 90.3611C169.972 90.3821 170.03 90.2871 169.975 90.2391C169.159 89.5271 168.744 88.6141 168.082 87.7811C167.348 86.8571 166.376 86.207 165.381 85.593C163.312 84.3159 161.171 83.2538 158.78 82.7438C158.685 82.7238 158.645 82.8638 158.74 82.8918Z" fill="white"/>
<path d="M159.43 84.3428C160.905 84.9338 162.396 85.5529 163.779 86.3399C164.376 86.68 164.939 87.072 165.475 87.502C166.036 87.952 166.641 88.446 167.068 89.028C167.08 89.045 167.108 89.03 167.097 89.011C166.714 88.4 166.355 87.827 165.823 87.329C165.299 86.838 164.702 86.428 164.084 86.065C162.636 85.2169 161.046 84.7479 159.454 84.2588C159.399 84.2428 159.38 84.3228 159.43 84.3428Z" fill="white"/>
<path d="M159.805 86.5469C162.411 87.173 164.418 88.913 166.678 90.2381C166.707 90.2551 166.739 90.2151 166.714 90.1911C164.815 88.405 162.424 86.913 159.836 86.4319C159.762 86.4179 159.73 86.5289 159.805 86.5469Z" fill="white"/>
<path d="M140.511 100.426C141.274 102.358 142.836 103.867 144.303 105.294C145.981 106.926 147.995 108.165 150.1 109.172C152.062 110.112 154.158 110.971 156.358 111.074C158.202 111.16 160.59 110.737 161.934 109.372C161.959 109.347 161.934 109.299 161.899 109.311C161.054 109.597 160.231 109.961 159.347 110.117C158.373 110.289 157.335 110.227 156.359 110.115C154.137 109.861 152.052 109.081 150.011 108.201C148.001 107.335 146.193 106.55 144.587 105.011C143.145 103.629 141.594 102.125 140.561 100.404C140.545 100.381 140.5 100.397 140.511 100.426Z" fill="white"/>
<path d="M145.972 104.345C148.22 106.816 151.542 108.413 154.915 108.345C154.976 108.344 154.995 108.243 154.93 108.234C151.625 107.788 148.526 106.533 146.009 104.307C145.984 104.285 145.949 104.319 145.972 104.345Z" fill="white"/>
<path d="M150.07 100.87C150.599 101.171 151.114 101.494 151.641 101.798C152.153 102.094 152.651 102.427 153.207 102.634C153.239 102.646 153.262 102.6 153.239 102.579C152.811 102.165 152.28 101.878 151.765 101.585C151.236 101.284 150.681 101.025 150.13 100.767C150.062 100.735 150.002 100.831 150.07 100.87Z" fill="white"/>
<path d="M149.92 100.857C150.605 100.963 151.272 101.162 151.907 101.44C152.525 101.71 153.061 102.134 153.693 102.362C153.749 102.382 153.805 102.309 153.772 102.26C153.376 101.677 152.678 101.376 152.042 101.12C151.375 100.852 150.665 100.703 149.949 100.643C149.827 100.632 149.797 100.838 149.92 100.857Z" fill="white"/>
<path d="M150.17 100.435C151.034 100.745 151.879 101.096 152.716 101.472C153.11 101.649 153.503 101.83 153.891 102.022C154.278 102.213 154.679 102.454 155.105 102.546C155.168 102.56 155.219 102.484 155.169 102.435C154.858 102.13 154.433 101.943 154.045 101.757C153.643 101.564 153.238 101.378 152.828 101.204C151.976 100.844 151.1 100.537 150.217 100.261C150.106 100.228 150.063 100.397 150.17 100.435Z" fill="white"/>
<path d="M150.865 100.223C151.768 100.476 152.628 100.838 153.444 101.3C153.833 101.52 154.212 101.757 154.574 102.019C154.954 102.293 155.324 102.588 155.739 102.807C155.792 102.835 155.861 102.777 155.825 102.721C155.33 101.948 154.418 101.412 153.624 100.992C152.775 100.544 151.862 100.212 150.928 99.9927C150.779 99.9577 150.716 100.182 150.865 100.223Z" fill="white"/>
<path d="M93.0241 63.3459C96.1051 64.516 99.2791 65.4271 102.412 66.4412C105.555 67.4582 108.763 68.2353 112.033 68.6994C112.099 68.7084 112.127 68.6205 112.061 68.5975C108.946 67.5284 105.771 66.6443 102.566 65.8832C99.3621 65.1231 96.2281 64.111 93.0491 63.2569C92.9901 63.2399 92.9691 63.3249 93.0241 63.3459Z" fill="white"/>
<path d="M99.7989 63.9139C102.512 64.727 105.203 65.6391 107.978 66.2222C108.007 66.2282 108.018 66.1872 107.99 66.1772C105.317 65.2321 102.544 64.611 99.8039 63.8939C99.7919 63.8919 99.7869 63.9109 99.7989 63.9139Z" fill="white"/>
<path d="M100.076 62.7162C102.978 63.7003 105.902 64.8044 108.905 65.4385C108.948 65.4475 108.961 65.3905 108.923 65.3745C106.086 64.2024 103.05 63.4603 100.099 62.6332C100.045 62.6182 100.024 62.6992 100.076 62.7162Z" fill="white"/>
<path d="M100.397 61.889C103.249 62.822 106.123 63.8691 109.068 64.4662C109.14 64.4812 109.165 64.3842 109.098 64.3572C106.303 63.2512 103.324 62.5601 100.425 61.787C100.359 61.769 100.333 61.868 100.397 61.889Z" fill="white"/>
<path d="M60.9921 52.5466C61.0341 52.4916 61.0761 52.4376 61.1181 52.3826C61.1231 52.3756 61.1121 52.3696 61.1061 52.3756C61.0641 52.4306 61.0221 52.4846 60.9811 52.5396C60.9751 52.5466 60.9871 52.5526 60.9921 52.5466Z" fill="white"/>
<path d="M60.852 52.0468C62.548 52.7399 64.2389 53.446 65.9479 54.106C66.7689 54.423 67.5939 54.7281 68.4189 55.0321C69.2959 55.3551 70.1849 55.7631 71.0959 55.9722C71.2019 55.9962 71.2749 55.8462 71.1729 55.7902C70.3979 55.3681 69.5199 55.1001 68.6979 54.7821C67.8459 54.4511 66.9939 54.119 66.1369 53.801C64.394 53.1559 62.635 52.5549 60.881 51.9438C60.815 51.9218 60.79 52.0208 60.852 52.0468Z" fill="white"/>
<path d="M61.1287 51.2377C64.6207 52.6019 68.1287 53.869 71.6796 55.0711C71.7126 55.0821 71.7246 55.0321 71.6936 55.0201C68.1997 53.663 64.6967 52.3829 61.1428 51.1868C61.1098 51.1758 61.0968 51.2257 61.1287 51.2377Z" fill="white"/>
<path d="M61.8578 50.8237C63.5258 51.4858 65.1928 52.1488 66.8557 52.8229C68.5107 53.4939 70.1607 54.204 71.8587 54.759C71.9257 54.781 71.9707 54.6771 71.9077 54.6441C70.3367 53.84 68.6717 53.2069 67.0227 52.5859C65.3178 51.9438 63.6058 51.3308 61.8778 50.7537C61.8318 50.7377 61.8148 50.8067 61.8578 50.8237Z" fill="white"/>
<path d="M62.3783 50.4187C65.3853 51.5898 68.3973 52.8019 71.4952 53.715C71.5692 53.737 71.6232 53.619 71.5492 53.588C68.5723 52.3219 65.4743 51.3388 62.4033 50.3297C62.3453 50.3107 62.3233 50.3977 62.3783 50.4187Z" fill="white"/>
<path d="M67.5424 55.737C68.5004 56.15 69.4593 56.5601 70.4153 56.9771C71.3523 57.3861 72.2553 57.8621 73.2063 58.2412C75.1393 59.0102 77.1843 59.3693 79.2332 59.6704C79.2572 59.6744 79.2692 59.6374 79.2432 59.6324C77.2613 59.1763 75.3643 58.4463 73.4503 57.7702C71.4853 57.0761 69.5333 56.3781 67.5874 55.628C67.5254 55.604 67.4804 55.71 67.5424 55.737Z" fill="white"/>
<path d="M190.127 80.2629C199.189 80.5802 208.378 79.1855 216.748 75.6028C223.614 72.664 230.933 66.7302 230.546 58.4822C230.54 58.3482 230.34 58.3102 230.305 58.4492C229.795 60.4842 229.463 62.4981 228.521 64.3981C227.731 65.9911 226.683 67.4291 225.471 68.726C222.707 71.6829 219.143 73.7148 215.412 75.2027C207.452 78.3765 198.679 79.9762 190.127 80.1299C190.041 80.1319 190.042 80.2599 190.127 80.2629Z" fill="white"/>
<path d="M165.976 100.836C166.638 102.25 166.546 103.944 166.307 105.45C166.189 106.195 165.982 106.934 165.58 107.58C165.39 107.886 165.164 108.17 164.893 108.409C164.695 108.583 164.4 108.725 164.354 109.008C164.347 109.052 164.358 109.115 164.406 109.135C164.977 109.376 165.641 108.471 165.912 108.072C166.397 107.356 166.634 106.498 166.753 105.651C166.975 104.063 167.039 102.147 166.084 100.774C166.038 100.705 165.942 100.762 165.976 100.836Z" fill="white"/>
<path d="M170.561 85.3231C173.035 86.0132 175.891 85.9513 178.445 86.1464C181.178 86.3545 183.918 86.6036 186.661 86.6356C192.132 86.6998 197.795 86.049 203.118 84.7872C203.143 84.7812 203.138 84.7401 203.112 84.7411C197.612 85.129 192.2 86.0578 186.662 85.9337C184.082 85.8766 181.509 85.6655 178.937 85.4734C177.629 85.3754 176.32 85.2963 175.011 85.2153C173.562 85.1252 172.041 84.9062 170.594 85.0821C170.465 85.0981 170.418 85.2831 170.561 85.3231Z" fill="white"/>
<path d="M173.046 87.4803C173.341 87.6103 173.69 87.6483 174.006 87.7043C174.334 87.7633 174.664 87.8113 174.995 87.8503C175.7 87.9343 176.412 87.9713 177.122 87.9744C177.323 87.9754 177.382 87.6444 177.171 87.6124C175.42 87.3413 173.687 86.9843 171.943 86.6772C171.628 86.6212 171.627 87.1102 171.943 87.0542C172.049 87.0352 172.155 87.0292 172.263 87.0232C172.332 87.0192 172.366 86.9232 172.3 86.8872C172.191 86.8282 172.091 86.7692 171.99 86.6972C171.94 86.8162 171.89 86.9352 171.839 87.0542C173.563 87.4942 175.357 87.7583 177.122 87.9754C177.122 87.8524 177.122 87.7294 177.122 87.6064C176.446 87.6393 175.771 87.6293 175.096 87.5743C174.754 87.5463 174.414 87.5073 174.074 87.4573C173.752 87.4093 173.419 87.3093 173.094 87.3022C173.005 87.2992 172.956 87.4403 173.046 87.4803Z" fill="white"/>
<path d="M175.773 83.6994C180.31 84.0945 184.879 84.5336 189.438 84.4738C191.667 84.4449 193.895 84.3309 196.111 84.082C197.958 83.875 200.4 83.8241 202.034 82.9022C202.112 82.8582 202.072 82.7472 201.99 82.7422C201.023 82.6761 200.062 82.9771 199.11 83.1361C197.88 83.3411 196.641 83.497 195.399 83.614C193.257 83.8159 191.11 83.8948 188.959 83.9168C184.558 83.9616 180.168 83.7855 175.773 83.5744C175.692 83.5694 175.694 83.6924 175.773 83.6994Z" fill="white"/>
<path d="M207.724 82.7423C211.618 81.5984 215.43 80.0186 219.011 78.1087C221.821 76.6098 225.745 74.7029 226.985 71.5409C227.057 71.3569 226.771 71.1889 226.647 71.3439C225.545 72.7229 224.471 73.9778 223.025 75.0178C221.57 76.0637 219.997 76.9387 218.429 77.8016C214.979 79.6995 211.383 81.2484 207.682 82.5893C207.587 82.6233 207.624 82.7713 207.724 82.7423Z" fill="white"/>
<path d="M208.715 80.5043C212.428 79.2854 216.204 78.0765 219.629 76.1616C221.105 75.3367 222.544 74.3727 223.818 73.2578C224.467 72.6898 224.997 72.0038 225.57 71.3618C226.155 70.7068 226.687 70.0368 227.104 69.2628C227.119 69.2338 227.08 69.1999 227.057 69.2269C226.525 69.8318 226.029 70.4678 225.484 71.0608C224.894 71.7018 224.201 72.2028 223.538 72.7617C222.187 73.8987 220.756 74.8917 219.23 75.7786C215.899 77.7135 212.294 79.0794 208.694 80.4213C208.641 80.4403 208.662 80.5213 208.715 80.5043Z" fill="white"/>
<path d="M208.485 79.4332C211.244 78.8263 213.907 77.7654 216.429 76.5024C217.689 75.8715 218.909 75.1705 220.086 74.3956C221.067 73.7496 222.008 73.0656 222.467 71.9476C222.502 71.8616 222.375 71.8256 222.328 71.8886C221.519 72.9816 220.395 73.7386 219.253 74.4455C218.163 75.1215 217.045 75.7575 215.903 76.3394C213.51 77.5604 210.999 78.4733 208.451 79.3112C208.374 79.3372 208.405 79.4512 208.485 79.4332Z" fill="white"/>
<path d="M36.4011 28.4122C37.4271 28.2922 38.3591 27.5583 39.2501 27.0593C40.4981 26.3603 41.7421 25.6544 42.9832 24.9424C45.3952 23.5585 47.7812 22.1276 50.1573 20.6826C52.4663 19.2787 54.7594 17.8508 57.0374 16.3978C59.3325 14.9349 61.6575 13.52 63.7146 11.73C63.8016 11.655 63.6906 11.533 63.5986 11.579C61.1685 12.773 58.9515 14.3209 56.6724 15.7748C54.3944 17.2278 52.1034 18.6617 49.8003 20.0746C47.5653 21.4466 45.3122 22.7885 43.0572 24.1284C41.8962 24.8184 40.7321 25.5053 39.5651 26.1853C38.5221 26.7923 37.0901 27.3092 36.3391 28.2672C36.3011 28.3152 36.3181 28.4222 36.4011 28.4122Z" fill="white"/>
<path d="M40.3644 27.8281C42.5434 27.2462 44.3774 26.0823 46.2674 24.8903C48.4125 23.5374 50.5485 22.1715 52.6876 20.8095C54.8276 19.4486 56.9657 18.0847 59.1007 16.7167C61.1567 15.3988 63.3848 14.1869 65.2508 12.6049C65.3548 12.5169 65.2228 12.3769 65.1138 12.4279C62.9128 13.4648 60.8978 14.9798 58.8527 16.2947C56.7887 17.6227 54.7256 18.9536 52.6636 20.2845C50.6016 21.6155 48.5365 22.9434 46.4755 24.2763C44.5174 25.5433 42.5704 26.9802 40.3224 27.6811C40.2304 27.7101 40.2694 27.8541 40.3644 27.8281Z" fill="white"/>
<path d="M46.8567 26.8465C50.1527 25.3396 53.2898 23.3297 56.3328 21.3728C59.3129 19.4569 62.281 17.467 64.963 15.1471C65.05 15.0711 64.935 14.9201 64.838 14.9861C61.873 17.011 59.0059 19.1709 55.9999 21.1368C52.9888 23.1057 49.8247 24.8076 46.7757 26.7085C46.6877 26.7645 46.7647 26.8885 46.8567 26.8465Z" fill="white"/>
<path d="M5.00532 17.975C6.66713 24.1231 13.224 26.6253 18.923 27.3934C25.648 28.2997 33.824 27.7069 39.1139 32.8391C39.1389 32.8631 39.1739 32.8271 39.1509 32.8021C34.846 27.8529 28.403 27.4667 22.27 26.9716C15.7751 26.4464 7.4581 25.1101 5.07532 17.957C5.06132 17.912 4.99332 17.929 5.00532 17.975Z" fill="white"/>
<path d="M11.6595 11.8643C19.6716 8.68051 28.0117 6.55276 36.5277 5.23902C40.6107 4.60915 44.7717 4.08728 48.9097 4.0904C50.8177 4.09246 52.7227 4.25952 54.5847 4.68758C56.7457 5.18465 58.2187 6.1877 59.9266 7.53575C59.9626 7.56375 60.0216 7.52875 59.9946 7.48375C58.6327 5.24771 55.4877 4.02861 53.0258 3.63853C49.9488 3.15144 46.7848 3.36135 43.6988 3.64325C36.4877 4.30103 29.4077 5.82281 22.4736 7.8816C18.7916 8.97548 15.1326 10.2124 11.6255 11.7863C11.5825 11.8053 11.6145 11.8823 11.6595 11.8643Z" fill="white"/>
<path d="M61.3866 42.7506C78.5094 50.7042 97.3493 53.9587 115.736 57.6323C121.069 58.6975 126.381 59.8416 131.661 61.1488C131.723 61.1638 131.749 61.0718 131.687 61.0528C113.693 55.5842 94.8923 53.5037 76.8735 48.1641C71.6345 46.6119 66.4316 44.8688 61.4056 42.7166C61.3836 42.7056 61.3626 42.7396 61.3866 42.7506Z" fill="white"/>
<path d="M101.279 16.1552C122.916 17.1568 144.502 20.1865 165.259 26.5071C171.03 28.2643 176.703 30.2395 182.334 32.4037C182.379 32.4207 182.411 32.3457 182.367 32.3247C162.917 23.0171 141.032 19.1274 119.711 17.1967C113.579 16.6415 107.434 16.2904 101.279 16.1282C101.262 16.1282 101.262 16.1542 101.279 16.1552Z" fill="white"/>
<path d="M159.432 68.1678C164.863 69.871 170.438 70.8902 176.075 71.6193C181.853 72.3665 187.675 73.0307 193.507 73.0919C198.975 73.149 204.503 72.6242 209.773 71.1134C214.411 69.7845 219.22 67.6227 222.867 64.4058C224.568 62.9058 225.623 61.0429 226.345 58.9159C226.877 57.3509 227.374 55.1329 226.082 53.7939C226.05 53.7609 225.997 53.8029 226.02 53.8419C226.951 55.4819 225.993 57.8969 225.358 59.5029C224.506 61.6598 223.18 63.2998 221.322 64.6867C217.477 67.5566 212.872 69.3575 208.244 70.5083C198.154 73.018 187.503 72.2497 177.263 71.2084C171.267 70.5982 165.262 69.735 159.456 68.0778C159.399 68.0618 159.376 68.1498 159.432 68.1678Z" fill="white"/>
<path d="M179.126 63.9074C180.937 64.4675 182.771 64.9555 184.623 65.3596C185.514 65.5536 186.41 65.7296 187.309 65.8877C188.182 66.0407 189.154 66.2967 190.043 66.2497C190.103 66.2467 190.115 66.1637 190.057 66.1457C189.208 65.8777 188.237 65.8527 187.358 65.7107C186.422 65.5596 185.488 65.3876 184.56 65.1966C182.737 64.8205 180.931 64.3645 179.146 63.8374C179.1 63.8234 179.081 63.8934 179.126 63.9074Z" fill="white"/>
<path d="M179.331 60.6185C181.609 61.5046 183.934 62.2636 186.3 62.8767C187.482 63.1828 188.676 63.4438 189.876 63.6708C190.979 63.8799 192.152 64.1509 193.28 64.1279C193.373 64.1259 193.393 63.9919 193.302 63.9649C192.144 63.6259 190.893 63.5269 189.708 63.2998C188.551 63.0788 187.401 62.8227 186.257 62.5427C183.926 61.9726 181.634 61.2616 179.385 60.4265C179.263 60.3815 179.213 60.5725 179.331 60.6185Z" fill="white"/>
<path d="M179.621 55.8705C182.079 56.8486 184.587 57.6886 187.148 58.3557C189.597 58.9938 192.15 59.6269 194.682 59.796C194.793 59.803 194.818 59.624 194.708 59.601C192.167 59.0639 189.603 58.7108 187.08 58.0697C184.565 57.4316 182.085 56.6565 179.654 55.7485C179.578 55.7205 179.547 55.8405 179.621 55.8705Z" fill="white"/>
<path d="M183.406 54.8557C185.299 55.2267 187.192 55.5988 189.083 55.9698C190.896 56.3259 192.731 56.8039 194.571 56.983C194.621 56.988 194.628 56.912 194.583 56.898C192.781 56.367 190.868 56.1209 189.024 55.7668C187.167 55.4098 185.308 55.0527 183.45 54.6957C183.346 54.6767 183.301 54.8357 183.406 54.8557Z" fill="white"/>
<path d="M184.661 52.3715C186.447 52.7956 188.233 53.2206 190.019 53.6447C191.797 54.0668 193.585 54.5868 195.391 54.8669C195.453 54.8769 195.48 54.7908 195.417 54.7708C193.673 54.2268 191.839 53.9067 190.057 53.5037C188.266 53.0986 186.474 52.6926 184.683 52.2875C184.63 52.2765 184.607 52.3585 184.661 52.3715Z" fill="white"/>
<path d="M187.398 49.5335C189.376 50.3086 191.395 50.9717 193.451 51.5087C194.478 51.7768 195.513 52.0148 196.554 52.2208C197.499 52.4079 198.529 52.6939 199.497 52.6639C199.557 52.6619 199.568 52.5779 199.511 52.5599C198.52 52.2439 197.405 52.1908 196.382 51.9908C195.377 51.7948 194.378 51.5698 193.386 51.3157C191.365 50.7987 189.379 50.1596 187.431 49.4125C187.356 49.3835 187.324 49.5045 187.398 49.5335Z" fill="white"/>
<path d="M188.272 44.8987C190.004 45.4788 191.765 45.9628 193.552 46.3399C195.262 46.7009 197.047 47.031 198.799 47.039C198.843 47.039 198.855 46.969 198.81 46.961C197.047 46.651 195.267 46.4749 193.508 46.1269C191.749 45.7788 190.013 45.3268 188.304 44.7827C188.23 44.7607 188.199 44.8747 188.272 44.8987Z" fill="white"/>
<path d="M189.566 42.6398C190.998 43.0328 192.429 43.4259 193.861 43.8179C194.563 44.0109 195.266 44.203 195.968 44.396C196.641 44.581 197.331 44.821 198.028 44.8801C198.079 44.8841 198.102 44.8031 198.055 44.7811C197.447 44.494 196.761 44.358 196.113 44.186C195.382 43.993 194.651 43.799 193.919 43.6059C192.484 43.2259 191.049 42.8468 189.613 42.4668C189.502 42.4378 189.455 42.6088 189.566 42.6398Z" fill="white"/>
<path d="M190.424 40.7576C192.028 41.2757 193.641 41.7637 195.265 42.2158C196.047 42.4338 196.83 42.6438 197.616 42.8458C198.378 43.0419 199.219 43.3659 200.007 43.3839C200.06 43.3849 200.087 43.3029 200.035 43.2789C199.317 42.9469 198.434 42.8529 197.666 42.6628C196.878 42.4668 196.093 42.2638 195.309 42.0518C193.682 41.6127 192.064 41.1397 190.456 40.6346C190.38 40.6126 190.347 40.7336 190.424 40.7576Z" fill="white"/>
<path d="M191.394 39.7386C193.091 40.1807 194.801 40.5657 196.525 40.8868C198.169 41.1928 199.889 41.5689 201.566 41.592C201.657 41.593 201.681 41.449 201.588 41.429C199.91 41.0779 198.176 40.9619 196.486 40.6648C194.79 40.3667 193.106 40.0067 191.435 39.5916C191.339 39.5676 191.299 39.7136 191.394 39.7386Z" fill="white"/>
<path d="M193.239 35.3578C199.58 36.087 206.055 37.0532 212.235 38.6814C217.819 40.1526 223.06 43.1467 225.376 48.6728C225.394 48.7148 225.456 48.7008 225.446 48.6538C224.284 43.0468 218.838 39.8066 213.747 38.3174C207.161 36.3902 200.043 35.936 193.239 35.3178C193.214 35.3158 193.214 35.3558 193.239 35.3578Z" fill="white"/>
</svg>
